{"glyphs":{"0":{"ha":719,"x_min":44,"x_max":675,"o":"m 44 236 q 140 490 44 378 q 394 603 236 603 q 593 524 511 603 q 675 322 675 446 q 644 168 675 238 q 560 56 613 99 q 446 -11 508 13 q 318 -35 383 -35 q 124 35 203 -35 q 44 236 44 106 m 126 236 q 183 86 126 139 q 322 33 239 33 q 513 111 428 33 q 597 319 597 189 q 538 477 597 421 q 393 533 479 533 q 207 454 288 533 q 126 236 126 375 z "},"1":{"ha":429,"x_min":28,"x_max":401,"o":"m 28 19 q 63 36 28 36 q 97 46 82 36 q 122 69 113 56 q 138 106 131 82 q 147 144 144 129 q 152 185 149 158 q 157 219 156 211 q 185 478 185 397 q 107 544 185 540 q 76 553 93 544 q 58 579 58 563 q 79 599 58 599 q 111 593 89 599 q 151 588 133 588 q 190 587 169 588 q 239 586 210 586 q 314 590 272 586 q 369 594 356 594 q 393 588 385 594 q 401 574 401 581 q 354 550 401 550 q 287 485 301 550 q 249 158 272 419 q 246 139 249 156 q 243 113 243 122 q 294 44 243 61 q 312 42 296 44 q 341 38 328 40 q 366 29 354 36 q 378 13 378 22 q 351 -6 378 -6 q 283 -1 332 -6 q 203 4 235 4 q 124 -1 171 4 q 60 -6 76 -6 q 28 19 28 -6 z "},"2":{"ha":625,"x_min":28,"x_max":585,"o":"m 28 15 q 58 40 28 24 q 150 94 88 57 q 269 178 213 131 q 472 439 472 343 q 421 526 472 496 q 326 556 369 556 q 199 492 199 556 q 209 449 199 476 q 219 413 219 421 q 200 394 219 394 q 106 443 106 394 q 119 484 106 460 q 161 536 133 508 q 242 583 189 564 q 361 601 294 601 q 517 564 450 601 q 583 451 583 526 q 529 339 583 401 q 411 231 475 276 q 293 144 347 185 q 239 94 239 104 q 301 83 239 83 l 393 83 q 440 88 419 83 q 474 95 461 92 q 500 109 486 99 q 518 124 514 119 q 533 141 522 128 q 546 157 544 154 q 568 174 560 174 q 585 158 585 174 q 579 146 585 154 q 560 115 574 138 q 531 57 546 92 q 486 0 508 0 l 281 0 q 127 -1 190 0 q 60 -3 64 -3 q 28 15 28 -3 z "},"3":{"ha":542,"x_min":-28,"x_max":500,"o":"m -28 -161 q 0 -131 -28 -131 q 24 -148 4 -131 q 78 -183 43 -165 q 151 -200 113 -200 q 328 -122 251 -200 q 406 29 406 -43 q 351 137 406 92 q 233 182 297 182 q 196 179 221 182 q 151 174 171 176 q 129 171 131 171 q 113 188 113 171 q 124 203 113 197 q 168 224 135 210 q 235 256 201 238 q 393 438 393 344 q 350 521 393 488 q 242 554 307 554 q 159 533 197 554 q 113 511 121 511 q 93 531 93 511 q 165 579 93 553 q 301 606 236 606 q 383 596 344 606 q 454 556 422 586 q 486 478 486 525 q 477 426 486 451 q 457 385 468 401 q 426 349 446 368 q 393 322 406 331 q 358 297 381 313 q 329 279 335 282 q 310 265 319 271 q 296 256 300 258 q 288 251 292 253 q 284 247 285 249 q 283 244 283 246 q 317 233 283 240 q 392 213 351 225 q 466 164 432 200 q 500 74 500 128 q 471 -27 500 28 q 390 -134 442 -82 q 254 -222 339 -186 q 72 -257 169 -257 q -8 -241 11 -257 q -28 -161 -28 -225 z "},"4":{"ha":689,"x_min":14,"x_max":663,"o":"m 14 19 q 17 36 14 28 q 29 54 21 44 q 44 72 38 64 q 65 92 51 79 q 86 113 78 104 l 478 518 q 567 588 543 588 q 585 564 585 588 q 579 529 585 549 q 562 458 574 510 q 539 333 550 407 l 526 256 q 515 186 522 226 q 505 123 508 146 q 501 94 501 100 q 539 72 501 72 q 596 78 575 72 q 622 89 617 83 q 633 100 626 94 q 647 106 639 106 q 663 89 663 106 q 638 28 663 82 q 594 0 624 0 q 549 1 572 0 q 512 3 526 1 q 496 4 497 4 q 485 -3 488 4 q 481 -43 482 -11 q 475 -115 478 -83 q 472 -155 474 -131 q 469 -189 469 -179 q 465 -215 468 -199 q 458 -237 463 -231 q 447 -251 454 -243 q 430 -260 440 -258 q 406 -262 419 -262 q 374 -251 385 -262 q 363 -229 363 -240 q 381 -122 363 -218 q 399 -19 399 -25 q 383 2 399 -1 q 310 6 367 6 q 151 1 221 6 q 44 -3 81 -3 q 14 19 14 -3 m 144 96 q 163 78 144 82 q 236 74 181 74 q 290 74 251 74 q 347 75 329 75 l 378 75 l 385 75 q 399 76 393 75 q 408 80 404 76 q 415 87 413 83 q 419 99 417 90 q 422 115 421 108 q 425 138 422 122 q 429 165 428 153 q 465 413 465 382 q 460 433 465 433 q 413 393 453 433 q 247 217 349 331 q 144 96 144 104 z "},"5":{"ha":518,"x_min":-49,"x_max":533,"o":"m -49 -160 q -26 -128 -49 -128 q -3 -139 -17 -128 q 24 -163 10 -150 q 69 -187 38 -176 q 142 -199 100 -199 q 310 -120 229 -199 q 392 82 392 -42 q 322 241 392 178 q 110 304 253 304 q 85 306 93 304 q 73 313 78 307 q 68 332 68 319 q 104 442 68 336 l 142 556 q 149 573 146 568 q 163 585 151 578 q 192 592 174 592 q 233 588 197 592 q 324 583 269 583 q 485 606 465 583 q 491 615 486 607 q 500 627 496 622 q 510 637 504 632 q 521 642 517 642 q 533 631 533 642 q 529 615 533 624 q 512 585 525 607 q 486 539 499 564 q 443 500 465 500 l 258 500 q 222 500 236 500 q 203 501 208 500 q 196 501 197 501 q 167 475 171 501 q 160 447 164 463 q 152 422 156 432 q 149 410 149 411 q 178 388 149 394 q 247 378 207 382 q 338 352 286 375 q 425 288 389 329 q 476 138 476 228 q 346 -144 476 -17 q 26 -260 228 -260 q -19 -243 -4 -260 q -49 -160 -49 -210 z "},"6":{"ha":681,"x_min":44,"x_max":643,"o":"m 44 342 q 135 633 44 486 q 351 871 225 781 q 585 961 478 961 q 606 956 596 961 q 617 943 617 950 q 603 925 617 929 q 554 914 590 921 q 483 890 518 907 q 279 724 378 842 q 181 536 181 606 q 186 529 181 529 q 213 548 190 529 q 278 585 236 567 q 371 604 319 604 q 573 522 503 604 q 643 322 643 440 q 558 85 643 189 q 328 -18 472 -18 q 44 342 44 -18 m 143 332 q 209 109 143 192 q 361 26 275 26 q 492 100 444 26 q 539 275 539 174 q 482 471 539 388 q 322 554 425 554 q 188 490 233 554 q 143 332 143 426 z "},"7":{"ha":657,"x_min":-32,"x_max":629,"o":"m -32 -211 q 8 -129 -32 -178 q 134 31 36 -96 q 293 229 232 158 q 507 493 507 482 q 475 501 507 501 q 451 501 469 501 q 419 500 432 500 l 311 500 q 233 498 289 500 q 158 496 178 496 q 127 494 140 496 q 107 492 114 493 q 94 485 100 490 q 88 480 89 481 q 83 472 86 479 l 81 464 q 77 456 79 461 q 74 449 75 451 q 71 443 74 446 q 64 439 68 440 q 54 438 60 438 q 28 461 28 438 q 56 544 28 474 q 63 566 58 553 q 69 583 67 579 q 79 592 71 588 q 101 596 88 596 l 124 596 q 256 592 138 596 q 461 589 374 589 l 550 589 q 588 599 569 589 q 615 610 606 610 q 629 594 629 610 q 624 578 629 588 q 614 563 619 569 q 598 542 608 556 q 582 522 588 529 l 465 361 l 203 -15 q 120 -144 133 -121 q 107 -187 107 -167 l 107 -194 q 72 -226 107 -226 l -1 -226 q -32 -211 -32 -226 z "},"8":{"ha":731,"x_min":58,"x_max":686,"o":"m 58 206 q 83 316 58 265 q 142 397 107 367 q 211 447 176 426 q 270 476 246 467 q 294 488 294 486 q 279 500 294 489 q 242 530 264 511 q 197 574 219 549 q 158 635 174 599 q 143 710 143 671 q 218 876 143 797 q 425 956 293 956 q 608 903 532 956 q 685 749 685 850 q 665 658 685 699 q 618 597 646 618 q 562 560 590 575 q 514 538 533 546 q 494 528 494 531 q 514 515 494 525 q 562 485 533 504 q 619 438 590 465 q 667 366 647 410 q 686 271 686 322 q 585 51 686 136 q 338 -35 485 -35 q 135 32 213 -35 q 58 206 58 99 m 140 219 q 192 71 140 135 q 343 7 243 7 q 496 57 422 7 q 592 247 592 122 q 471 421 592 353 q 397 452 451 432 q 336 472 343 472 q 272 442 322 472 q 199 376 222 413 q 140 219 140 289 m 213 740 q 247 653 213 693 q 327 591 282 613 q 406 558 372 569 q 450 546 440 546 q 551 604 492 546 q 611 743 611 663 q 560 860 611 806 q 417 915 508 915 q 272 869 332 915 q 213 740 213 824 z "},"9":{"ha":697,"x_min":44,"x_max":654,"o":"m 44 256 q 80 408 44 331 q 192 544 115 486 q 365 603 268 603 q 570 524 486 603 q 654 293 654 444 q 546 -43 654 114 q 304 -246 457 -172 q 118 -285 221 -285 q 81 -278 89 -285 q 74 -261 74 -272 q 101 -239 74 -239 q 272 -187 182 -239 q 413 -78 361 -135 q 465 1 465 -22 q 460 7 465 7 q 409 -10 454 7 q 319 -26 364 -26 q 125 42 206 -26 q 44 256 44 111 m 199 479 q 171 441 199 479 q 143 300 143 403 q 201 113 143 197 q 369 29 260 29 q 459 51 422 29 q 514 109 496 72 q 540 183 532 146 q 547 264 547 221 q 483 469 547 382 q 342 556 418 556 q 199 479 256 556 z "}," ":{"ha":296,"x_min":0,"x_max":0,"o":""},"!":{"ha":346,"x_min":94,"x_max":340,"o":"m 94 69 q 109 93 94 76 q 131 115 124 110 q 155 136 140 122 q 178 156 169 150 q 197 161 188 161 q 208 156 203 161 q 223 138 213 151 q 240 115 233 124 q 265 76 265 88 q 224 22 265 61 q 179 -15 186 -15 q 136 15 163 -15 q 118 35 131 22 q 100 56 106 47 q 94 69 94 64 m 185 293 q 188 332 185 301 l 224 871 q 224 882 224 872 q 224 896 224 892 q 226 909 225 900 q 231 923 228 918 q 238 935 233 928 q 250 945 243 942 q 267 951 257 949 q 290 954 278 954 q 340 908 340 954 q 335 867 340 889 q 316 785 329 844 q 290 635 303 725 q 232 297 265 460 q 222 279 231 289 q 203 269 214 269 q 185 293 185 269 z "},"\"":{"ha":569,"x_min":50,"x_max":468,"o":"z "},"#":{"ha":740,"x_min":82,"x_max":660,"o":"m 82 193 q 82 197 82 193 q 85 220 82 214 q 101 226 88 226 l 215 226 q 219 229 219 226 q 229 301 222 254 q 241 381 236 349 q 246 417 246 414 q 236 424 246 424 l 104 424 q 87 428 92 424 q 82 451 82 433 q 104 482 82 482 l 246 482 q 258 492 258 482 q 289 724 278 631 q 294 754 293 751 q 325 764 301 764 q 353 747 353 764 q 335 618 353 743 q 317 489 317 493 q 325 482 317 482 l 461 482 q 474 492 472 482 q 513 756 510 753 q 544 764 518 764 q 567 750 567 764 q 549 619 567 744 q 532 489 532 494 q 539 482 532 482 l 635 482 q 660 447 660 482 q 639 424 660 424 l 526 424 q 519 415 522 424 q 494 235 494 236 q 504 226 494 226 l 636 226 q 649 225 644 226 q 656 217 653 224 q 660 199 660 211 q 636 168 660 168 l 500 168 q 485 154 488 168 q 468 35 478 106 q 450 -76 456 -60 q 421 -92 444 -92 q 394 -74 394 -92 q 410 44 394 -69 q 426 160 426 157 q 417 168 426 168 l 325 168 q 286 167 299 168 q 272 163 274 165 q 268 157 269 161 q 235 -81 238 -74 q 203 -92 228 -92 q 178 -74 178 -92 q 194 43 178 -69 q 210 158 210 156 q 199 168 210 168 l 101 168 q 82 193 82 168 m 279 233 q 290 226 279 226 l 422 226 q 436 236 435 226 q 445 304 440 272 q 453 353 450 336 q 458 385 456 371 q 460 407 460 400 q 461 417 461 414 q 453 424 461 424 l 317 424 q 304 414 307 424 q 279 233 279 235 z "},"$":{"ha":678,"x_min":28,"x_max":650,"o":"m 28 126 q 44 188 28 142 q 75 233 61 233 q 96 219 88 233 q 113 178 104 206 q 126 138 121 150 q 188 55 150 86 q 261 24 226 24 q 274 28 271 24 q 279 50 276 33 q 301 228 289 132 q 322 379 314 325 q 329 438 329 433 q 306 465 329 451 q 251 496 283 479 q 188 535 219 513 q 133 600 156 558 q 110 694 110 642 q 190 881 110 817 q 375 947 271 944 q 396 973 393 947 q 401 1024 399 999 q 424 1050 404 1050 q 458 1025 458 1050 q 451 989 458 1013 q 443 950 443 965 q 450 943 443 946 q 471 938 457 940 q 486 936 485 936 q 580 895 542 919 q 631 853 618 871 q 643 825 643 836 q 635 774 643 794 q 619 747 626 753 q 606 742 611 742 q 593 749 599 742 q 578 775 588 757 q 564 801 569 793 q 506 865 544 833 q 444 896 467 896 q 425 856 431 896 q 406 703 415 769 q 393 609 397 636 q 389 565 389 582 q 416 537 389 550 q 481 507 443 524 q 558 465 519 490 q 623 387 596 439 q 650 263 650 335 q 565 58 650 135 q 340 -18 479 -18 q 324 -23 331 -18 q 317 -33 317 -28 q 311 -86 314 -58 q 306 -131 308 -114 q 302 -165 304 -147 q 298 -191 300 -182 q 292 -208 296 -200 q 283 -219 289 -217 q 271 -222 278 -222 q 247 -217 253 -222 q 240 -199 240 -211 q 254 -109 240 -178 q 268 -39 268 -40 q 254 -24 268 -24 q 98 38 168 -10 q 28 126 28 85 m 182 738 q 199 674 182 704 q 242 626 217 643 q 332 575 321 575 q 350 606 347 575 q 385 882 385 876 q 357 903 385 903 q 315 897 339 903 q 258 874 290 890 q 203 823 225 858 q 182 738 182 788 m 325 39 q 356 17 325 17 q 403 27 374 17 q 469 61 432 38 q 531 133 506 85 q 557 246 557 182 q 541 317 557 283 q 502 370 525 350 q 455 405 479 390 q 415 426 431 419 q 396 432 399 432 q 374 410 376 432 q 345 205 365 358 q 325 39 325 51 z "},"%":{"ha":1071,"x_min":82,"x_max":961,"o":"m 82 478 q 162 696 82 590 q 358 801 242 801 q 437 777 403 801 q 501 729 471 753 q 567 706 532 706 q 625 717 593 706 q 683 743 657 729 q 741 783 708 757 q 790 822 774 808 q 833 861 806 836 l 860 886 q 885 897 871 897 q 897 885 897 897 q 886 856 897 874 q 282 -65 483 254 q 239 -124 246 -121 q 225 -126 231 -126 q 194 -115 208 -126 q 179 -93 179 -104 q 219 -17 179 -76 q 235 4 229 -4 l 464 333 q 612 542 538 440 q 715 683 686 643 q 744 728 744 724 q 739 733 744 733 q 712 718 738 733 q 647 688 686 703 q 569 672 607 672 q 539 676 554 672 q 513 683 524 679 q 501 686 503 686 q 500 685 500 686 l 501 675 q 503 658 503 667 q 489 529 503 579 q 432 417 475 479 q 235 306 357 306 q 134 351 186 306 q 82 478 82 396 m 182 506 q 204 386 182 429 q 265 343 226 343 q 372 435 332 343 q 413 633 413 526 q 394 725 413 689 q 347 761 376 761 q 226 683 269 761 q 182 506 182 604 m 536 89 q 613 307 536 207 q 811 407 689 407 q 924 360 886 407 q 961 236 961 313 q 885 3 961 115 q 704 -108 808 -108 q 579 -52 622 -108 q 536 89 536 4 m 635 101 q 657 -19 635 25 q 718 -64 679 -64 q 825 31 781 -64 q 869 229 869 125 q 849 324 869 285 q 800 364 829 364 q 678 283 722 364 q 635 101 635 201 z "},"&":{"ha":1158,"x_min":54,"x_max":1132,"o":"m 54 304 q 95 455 54 381 q 189 574 136 529 q 232 604 210 592 q 264 623 254 617 q 274 636 274 629 q 272 648 274 639 q 267 676 269 657 q 264 721 264 696 q 294 850 264 793 q 370 939 324 907 q 465 987 417 971 q 556 1003 513 1003 q 597 998 575 1003 q 645 982 619 993 q 688 946 671 971 q 704 886 704 921 q 614 789 704 789 q 597 799 597 789 q 606 826 597 804 q 615 863 615 847 q 591 903 615 883 q 531 922 567 922 q 367 847 424 922 q 310 686 310 771 q 326 661 310 661 q 367 668 333 661 q 426 675 400 675 q 513 647 482 675 q 543 582 543 619 q 514 518 543 544 q 432 492 485 492 q 368 507 397 492 q 324 540 339 522 q 298 572 310 557 q 281 588 286 588 q 242 560 268 588 q 192 480 217 533 q 168 368 168 426 q 203 218 168 290 q 317 94 239 146 q 500 43 394 43 q 731 129 631 43 q 832 325 832 215 q 799 422 832 383 q 707 461 765 461 q 624 431 658 461 q 589 350 589 401 q 608 295 589 314 q 646 276 628 276 q 681 292 667 276 q 703 307 696 307 q 713 294 713 307 q 690 258 713 276 q 633 240 667 240 q 549 285 579 240 q 518 371 518 329 q 532 438 518 407 q 565 488 546 468 q 623 530 585 508 q 690 564 661 551 q 772 599 718 576 q 857 635 826 621 q 1021 736 967 683 q 1075 861 1075 789 q 1045 929 1075 897 q 967 961 1015 961 q 915 945 940 961 q 890 889 890 929 q 923 851 890 865 q 956 826 956 838 q 890 769 956 769 q 842 794 860 769 q 825 857 825 819 q 875 958 825 917 q 982 999 925 999 q 1088 951 1043 999 q 1132 840 1132 904 q 1100 722 1132 776 q 1023 633 1068 667 q 933 575 978 600 q 856 535 888 550 q 824 513 824 519 q 837 499 824 508 q 865 478 850 490 q 894 436 881 465 q 907 367 907 407 q 814 142 907 233 q 645 23 732 60 q 438 -14 558 -14 q 162 69 269 -14 q 54 304 54 151 m 342 597 q 365 558 342 581 q 418 535 389 535 q 455 549 439 535 q 471 582 471 563 q 447 622 471 610 q 400 635 424 635 q 360 623 378 635 q 342 597 342 611 z "},"'":{"ha":332,"x_min":50,"x_max":231,"o":"m 50 610 q 59 629 50 621 q 80 645 68 638 q 107 672 92 653 q 132 718 122 692 q 149 781 149 758 q 138 828 149 808 q 113 858 126 849 q 89 879 100 868 q 78 903 78 890 q 108 949 78 915 q 157 983 138 983 q 169 980 161 983 q 188 966 176 976 q 208 940 199 956 q 224 899 217 925 q 231 840 231 872 q 194 712 231 772 q 121 622 158 651 q 67 593 83 593 q 50 610 50 593 z "},"(":{"ha":400,"x_min":88,"x_max":476,"o":"m 88 288 q 122 549 88 419 q 205 769 156 678 q 308 931 254 860 q 400 1037 361 1001 q 453 1072 439 1072 q 476 1049 476 1072 q 448 1008 476 1036 q 376 931 419 979 q 288 817 333 883 q 204 636 243 750 q 151 385 165 522 q 144 271 144 318 q 174 42 144 149 q 240 -120 204 -64 q 305 -219 275 -176 q 335 -269 335 -261 q 324 -289 335 -281 q 306 -297 314 -297 q 268 -269 293 -297 q 212 -187 243 -242 q 153 -65 181 -133 q 106 98 125 4 q 88 288 88 192 z "},")":{"ha":400,"x_min":-76,"x_max":313,"o":"m -76 -274 q -48 -233 -76 -261 q 24 -156 -19 -204 q 112 -42 67 -108 q 196 139 157 25 q 249 390 235 253 q 256 504 256 457 q 226 733 256 626 q 160 896 196 839 q 95 995 125 953 q 65 1046 65 1038 q 76 1065 65 1057 q 94 1072 86 1072 q 132 1044 107 1072 q 188 963 157 1017 q 247 841 219 910 q 294 678 275 772 q 313 489 313 585 q 278 228 313 357 q 195 8 244 99 q 92 -155 146 -83 q 0 -262 39 -226 q -53 -297 -39 -297 q -76 -274 -76 -297 z "},"*":{"ha":599,"x_min":82,"x_max":518,"o":"m 82 532 q 157 583 82 550 q 232 621 232 617 q 157 661 232 626 q 82 713 82 696 q 95 743 82 725 q 126 761 108 761 q 193 724 139 761 q 253 688 247 688 q 260 714 260 688 q 258 766 260 728 q 256 824 256 804 q 263 847 256 842 q 292 853 269 853 q 334 844 325 853 q 343 803 343 836 q 340 758 343 790 q 338 713 338 726 q 344 688 338 688 q 408 725 351 688 q 472 763 464 763 q 503 745 489 763 q 518 714 518 728 q 442 663 518 697 q 367 622 367 628 q 442 582 367 615 q 518 532 518 549 q 504 501 518 518 q 471 483 490 483 q 404 520 458 483 q 346 557 350 557 q 339 531 339 557 q 341 488 339 517 q 343 450 343 460 q 335 401 343 410 q 293 392 328 392 q 256 425 256 392 q 258 472 256 436 q 260 525 260 508 q 253 557 260 557 q 191 520 247 557 q 126 483 135 483 q 95 501 108 483 q 82 532 82 519 z "},"+":{"ha":706,"x_min":29,"x_max":675,"o":"m 29 294 q 31 310 29 306 q 38 319 32 315 q 56 322 43 322 l 290 322 q 321 349 321 322 l 321 593 q 324 608 321 603 q 333 613 328 613 q 350 614 338 614 q 368 613 363 614 q 378 606 374 613 q 383 586 383 599 l 383 360 q 407 322 383 322 l 653 322 q 669 319 664 322 q 674 310 674 315 q 675 293 675 306 q 671 267 675 274 q 646 261 667 261 l 407 261 q 387 256 390 261 q 383 236 383 251 l 383 -7 q 376 -26 383 -22 q 356 -31 369 -31 q 327 -27 333 -31 q 321 -6 321 -24 l 321 236 q 315 258 321 254 q 289 261 308 261 l 54 261 q 33 268 38 261 q 29 294 29 275 z "},",":{"ha":314,"x_min":58,"x_max":239,"o":"m 58 -212 q 66 -196 58 -204 q 87 -178 74 -187 q 104 -162 100 -168 q 156 -36 156 -106 q 136 18 156 -4 q 98 53 117 40 q 79 78 79 67 q 110 124 79 85 q 158 164 142 164 q 213 122 186 164 q 239 0 239 81 q 177 -150 239 -69 q 79 -231 115 -231 q 58 -212 58 -231 z "},"-":{"ha":392,"x_min":54,"x_max":338,"o":"m 54 257 q 66 288 54 275 q 115 313 78 301 q 204 341 165 328 q 258 360 243 354 q 284 369 272 365 q 307 372 296 372 q 338 342 338 372 q 337 322 338 329 q 333 308 336 315 q 326 299 329 301 q 313 291 324 296 q 295 284 303 286 q 268 276 288 282 q 233 264 249 269 q 168 240 199 251 q 125 223 138 228 q 100 215 113 218 q 78 211 88 211 q 54 257 54 211 z "},".":{"ha":308,"x_min":68,"x_max":240,"o":"m 68 64 q 114 117 68 76 q 171 157 157 157 q 211 115 183 157 q 223 103 214 111 q 236 85 232 94 q 240 64 240 76 q 235 49 240 56 q 215 29 231 42 q 197 14 200 17 q 147 -21 163 -21 q 131 -15 138 -21 q 115 3 124 -10 q 101 21 107 15 q 93 29 97 25 q 86 36 89 33 q 80 42 83 39 q 74 48 76 46 q 71 53 72 50 q 69 58 69 56 q 68 64 68 61 z "},"/":{"ha":578,"x_min":28,"x_max":550,"o":"m 28 -236 q 54 -157 28 -233 q 481 996 478 986 q 494 1016 486 1011 q 521 1021 501 1021 q 550 1004 550 1021 q 531 943 550 993 l 108 -211 q 90 -248 97 -242 q 64 -254 82 -254 q 28 -236 28 -254 z "},":":{"ha":414,"x_min":97,"x_max":310,"o":"m 97 69 q 113 93 97 76 q 136 115 128 110 q 160 136 146 122 q 184 156 175 150 q 203 161 193 161 q 213 156 208 161 q 228 138 218 151 q 246 115 239 124 q 271 79 271 88 q 229 22 271 61 q 213 6 225 18 q 195 -13 201 -7 q 185 -19 189 -19 q 142 15 171 -19 q 123 35 135 24 q 104 56 111 47 q 97 69 97 64 m 144 511 q 186 559 144 522 q 239 596 228 596 q 279 560 249 596 q 310 519 310 525 q 267 466 310 501 q 214 431 225 431 q 203 437 210 431 q 190 453 197 443 q 178 468 182 464 q 144 511 144 501 z "},";":{"ha":414,"x_min":92,"x_max":306,"o":"m 92 -212 q 99 -196 92 -204 q 119 -177 107 -187 q 136 -162 132 -167 q 189 -36 189 -104 q 169 18 189 -4 q 131 53 150 40 q 113 78 113 67 q 144 124 113 85 q 192 164 175 164 q 244 122 218 164 q 271 0 271 81 q 209 -150 271 -69 q 111 -231 147 -231 q 92 -212 92 -231 m 139 511 q 183 558 139 517 q 232 599 228 599 q 274 558 242 599 q 306 513 306 518 q 264 459 306 496 q 211 422 222 422 q 200 430 207 422 q 185 449 193 438 q 172 464 176 460 q 139 511 139 497 z "},"<":{"ha":706,"x_min":43,"x_max":663,"o":"m 43 293 q 44 305 43 301 q 49 313 44 308 q 64 321 54 317 q 565 504 356 426 q 624 526 615 522 q 636 529 633 529 q 663 494 663 529 q 640 472 663 478 l 217 318 q 158 289 158 297 q 217 264 158 285 l 647 108 q 663 90 663 103 q 655 68 663 79 q 631 57 647 57 q 63 261 625 57 q 46 272 49 267 q 43 293 43 278 z "},"=":{"ha":706,"x_min":29,"x_max":675,"o":"m 29 158 q 31 174 29 169 q 38 183 32 179 q 56 188 43 188 l 653 188 q 669 184 664 188 q 674 176 674 181 q 675 158 675 171 q 671 131 675 138 q 646 125 667 125 l 54 125 q 33 132 38 125 q 29 158 29 139 m 29 431 q 31 447 29 442 q 38 455 32 451 q 56 458 43 458 l 653 458 q 669 455 664 458 q 674 447 674 451 q 675 429 675 442 q 671 403 675 410 q 646 397 667 397 l 54 397 q 33 404 38 397 q 29 431 29 411 z "},">":{"ha":706,"x_min":43,"x_max":663,"o":"m 43 90 q 58 108 43 103 l 489 264 q 547 289 547 285 q 489 318 547 297 l 64 472 q 43 494 43 478 q 68 529 43 529 q 139 504 72 529 q 640 321 349 426 q 663 293 663 313 q 659 272 663 278 q 642 261 656 267 q 75 57 79 57 q 51 68 58 57 q 43 90 43 79 z "},"?":{"ha":574,"x_min":140,"x_max":517,"o":"m 140 69 q 144 80 140 74 q 156 92 149 86 q 169 103 163 99 q 182 111 175 107 l 189 117 q 211 137 200 125 q 229 153 222 149 q 246 158 236 158 q 252 157 249 158 q 260 151 256 156 q 267 142 264 146 q 277 129 271 138 q 289 115 283 121 q 319 72 319 82 q 314 59 319 65 q 293 40 308 53 q 274 22 278 26 q 228 -19 232 -19 q 219 -17 224 -19 q 209 -11 214 -15 q 201 -3 204 -7 q 192 8 199 0 q 183 18 186 15 q 165 38 176 26 q 147 56 153 49 q 140 69 140 64 m 201 844 q 246 895 201 864 q 342 926 290 926 q 463 880 408 926 q 517 761 517 833 q 510 715 517 738 q 492 674 504 693 q 472 642 481 654 q 449 614 463 629 q 433 596 436 599 q 402 557 422 582 q 373 521 382 532 q 348 490 364 510 q 326 459 332 469 q 308 432 319 449 q 292 404 297 415 q 283 380 288 393 q 276 354 278 367 q 274 329 274 342 q 276 305 274 321 q 278 283 278 289 q 264 269 278 269 q 231 360 231 269 q 276 490 231 410 q 367 646 321 571 q 413 757 413 721 q 376 831 413 800 q 301 863 340 863 q 248 849 275 863 q 213 836 221 836 q 201 844 201 836 z "},"@":{"ha":1140,"x_min":61,"x_max":1079,"o":"m 61 397 q 106 636 61 531 q 217 802 151 742 q 367 902 283 863 q 517 955 450 942 q 643 968 585 968 q 958 845 836 968 q 1079 544 1079 722 q 984 286 1079 393 q 763 179 889 179 q 692 197 718 179 q 660 235 665 214 q 651 273 654 256 q 646 290 649 290 q 624 269 643 290 q 581 222 606 247 q 515 176 556 197 q 431 154 474 154 q 333 191 365 154 q 301 289 301 228 q 345 458 301 368 q 465 613 389 549 q 622 678 542 678 q 684 672 649 678 q 722 665 719 665 q 749 693 732 665 q 781 721 765 721 q 792 694 792 721 q 775 622 792 689 q 741 471 758 554 q 724 342 724 388 l 724 324 q 781 242 724 242 q 954 322 886 242 q 1022 551 1022 401 q 914 819 1022 722 q 644 915 806 915 q 290 776 435 915 q 144 413 144 636 q 267 89 144 215 q 588 -37 390 -37 q 746 -15 675 -37 q 853 31 817 8 q 890 53 889 53 q 906 36 906 53 q 890 13 906 28 q 844 -19 875 -1 q 774 -52 814 -36 q 678 -78 735 -68 q 563 -89 622 -89 q 201 40 340 -89 q 61 397 61 169 m 394 315 q 419 253 394 274 q 481 232 443 232 q 557 256 519 232 q 607 299 594 279 q 642 390 625 325 q 697 606 697 600 q 667 624 697 614 q 611 633 636 633 q 469 544 543 633 q 394 315 394 454 z "},"A":{"ha":1071,"x_min":28,"x_max":1044,"o":"m 28 13 q 63 42 28 31 q 85 52 76 47 q 103 65 93 57 q 124 90 114 74 q 148 128 135 107 q 182 189 161 150 q 228 272 203 228 q 292 388 253 317 q 374 538 331 460 q 483 731 418 617 q 618 969 547 846 q 634 993 629 989 q 650 997 639 997 q 666 988 661 997 q 686 924 671 978 q 697 885 693 900 q 710 839 701 869 q 728 778 718 808 q 842 418 760 671 q 933 142 925 165 q 969 66 957 81 q 1022 39 982 51 q 1044 11 1044 32 q 1001 -3 1044 -3 q 959 -1 986 -3 q 911 1 932 1 q 847 -2 886 1 q 782 -6 808 -6 q 744 10 744 -6 q 759 31 744 22 q 790 42 774 39 q 822 57 807 44 q 836 90 836 69 q 825 158 836 114 q 799 251 814 201 q 779 318 783 301 q 750 356 772 349 q 728 358 740 358 q 667 358 721 358 q 560 357 613 357 q 419 359 454 357 q 374 361 385 361 q 325 340 336 361 q 257 213 286 272 q 217 127 228 154 q 207 96 207 100 q 231 49 207 61 q 278 34 254 38 q 301 17 301 31 q 300 5 301 10 q 295 -1 299 0 q 290 -3 292 -3 q 281 -3 288 -3 q 225 -2 251 -3 q 184 -1 199 -1 q 160 0 169 0 q 115 -1 147 0 q 56 -3 83 -3 q 28 13 28 -3 m 376 433 q 422 422 376 422 q 446 422 428 422 q 528 423 464 422 q 711 424 593 424 q 727 427 722 424 q 733 434 732 431 q 733 444 733 438 q 673 644 733 461 q 600 828 613 828 q 485 633 593 828 q 376 433 376 439 z "},"B":{"ha":850,"x_min":28,"x_max":789,"o":"m 28 13 q 47 35 28 35 q 75 39 63 35 q 97 54 88 43 q 111 72 106 65 q 121 97 117 78 q 126 121 125 115 q 131 147 128 126 l 133 169 q 179 558 150 278 q 208 869 208 838 q 174 929 208 904 q 146 941 163 938 q 117 945 129 944 q 95 951 104 946 q 86 967 86 956 q 92 978 86 974 q 104 983 99 983 q 140 981 107 983 q 199 978 174 978 q 282 978 226 978 q 347 979 338 979 q 429 980 378 979 q 503 981 481 981 q 706 926 626 981 q 785 760 785 872 q 765 672 785 714 q 715 603 744 631 q 658 557 686 576 q 609 526 629 538 q 589 514 589 515 q 610 505 589 511 q 660 486 631 499 q 718 452 689 474 q 768 389 747 431 q 789 290 789 347 q 767 193 789 244 q 694 91 746 142 q 569 17 642 40 q 392 -4 503 -4 q 278 -2 343 -4 q 204 0 214 0 q 140 -4 192 0 q 57 -8 88 -8 q 28 13 28 -8 m 228 104 q 263 55 228 71 q 397 39 297 39 q 602 115 533 39 q 671 271 671 192 q 615 422 671 358 q 442 494 558 485 q 328 501 344 501 l 288 501 q 265 417 275 501 q 258 356 263 399 q 249 279 253 308 l 238 186 q 233 151 236 171 q 229 119 231 131 q 228 104 228 108 m 289 561 q 318 540 289 543 q 475 536 347 536 q 571 558 529 536 q 633 614 613 581 q 665 679 654 647 q 675 739 675 711 q 614 871 675 819 q 534 915 578 901 q 403 929 490 929 q 349 918 363 929 q 329 871 335 907 l 313 757 q 289 561 289 603 z "},"C":{"ha":1058,"x_min":54,"x_max":990,"o":"m 54 433 q 88 633 54 536 q 185 810 121 729 q 356 938 250 890 q 594 986 461 986 q 760 960 679 986 q 886 907 840 933 l 931 881 q 945 892 935 881 q 961 903 956 903 q 978 881 978 903 q 980 779 978 821 q 984 723 982 738 q 988 696 986 708 q 990 674 990 683 q 971 640 990 640 q 954 651 961 640 q 937 692 947 663 q 921 736 926 722 q 885 802 904 779 q 833 847 867 825 q 572 933 707 933 q 353 863 447 933 q 216 688 260 793 q 172 464 172 583 q 285 140 172 260 q 553 19 397 19 q 853 163 726 19 q 883 210 869 181 q 907 258 897 240 q 929 275 917 275 q 951 250 951 275 q 948 226 951 240 q 938 193 944 213 q 928 164 931 174 q 917 121 922 144 q 909 88 913 97 q 896 74 906 79 q 525 -32 694 -32 q 316 7 408 -32 q 167 112 224 46 q 83 260 111 178 q 54 433 54 342 z "},"D":{"ha":1065,"x_min":28,"x_max":1018,"o":"m 28 18 q 39 34 28 29 q 65 41 50 39 q 96 58 79 43 q 122 101 113 72 q 135 161 129 128 l 229 856 q 232 881 232 878 q 213 919 232 901 q 169 938 193 936 q 106 968 106 942 q 149 993 106 993 q 213 985 172 993 q 289 978 254 978 q 385 985 324 978 q 506 992 447 992 q 894 881 769 992 q 1018 600 1018 771 q 910 258 1018 425 q 822 155 879 210 q 728 79 764 100 q 414 0 597 0 q 321 2 378 0 q 199 4 264 4 q 108 -1 150 4 q 58 -7 65 -7 q 37 1 46 -7 q 28 18 28 8 m 239 99 q 253 60 239 74 q 306 47 267 47 l 428 47 q 572 76 489 47 q 711 157 654 106 q 806 276 767 208 q 862 408 846 343 q 884 518 878 474 q 890 599 890 563 q 881 685 890 643 q 843 774 871 728 q 772 855 815 821 q 656 911 729 889 q 490 933 583 933 q 379 922 404 933 q 339 857 354 911 q 308 644 333 833 q 261 278 283 454 q 239 99 239 101 z "},"E":{"ha":876,"x_min":28,"x_max":857,"o":"m 28 19 q 58 39 28 38 q 126 90 108 42 q 154 226 135 115 q 165 299 154 231 q 182 411 176 367 l 232 832 q 233 861 233 844 q 217 919 233 900 q 181 939 200 938 q 144 945 161 940 q 128 963 128 950 q 160 983 128 983 q 217 983 172 983 q 341 981 263 982 q 511 981 419 981 q 676 983 540 981 q 832 986 813 986 q 857 960 857 986 q 854 928 857 953 q 851 886 851 904 q 853 851 851 876 q 856 811 856 826 q 838 772 856 772 q 821 782 825 772 q 817 806 817 792 q 811 840 817 819 q 790 878 806 861 q 771 893 785 885 q 722 912 757 901 q 644 922 688 922 q 532 924 592 922 q 431 926 472 926 q 356 913 369 926 q 332 832 343 899 q 297 550 297 589 q 306 533 297 536 q 357 531 315 531 q 580 536 538 531 q 640 564 622 542 q 663 600 654 581 q 675 628 671 619 q 688 636 679 636 q 704 621 704 636 q 692 556 704 608 q 676 476 681 504 q 674 422 674 461 q 669 361 674 383 q 651 339 664 339 q 636 361 636 339 q 613 444 636 428 q 464 474 572 474 q 397 474 422 474 q 365 474 371 474 q 354 475 358 475 q 346 475 350 475 q 292 451 293 475 q 274 327 288 410 q 251 181 261 244 q 242 107 242 117 q 275 65 242 74 q 417 56 308 56 q 617 77 535 56 q 730 124 700 99 q 780 172 760 150 q 808 193 800 193 q 822 174 822 193 q 764 63 822 136 q 661 -11 706 -11 q 412 -3 561 -11 q 232 4 263 4 q 151 2 193 4 q 76 0 110 0 q 28 19 28 0 z "},"F":{"ha":813,"x_min":28,"x_max":793,"o":"m 28 11 q 36 26 28 19 q 57 35 44 33 q 99 53 82 38 q 128 108 117 69 q 144 176 139 146 q 158 267 150 206 q 164 307 163 293 q 199 563 182 429 q 224 775 215 697 q 233 861 233 853 q 213 919 233 900 q 169 938 193 938 q 126 944 146 939 q 106 965 106 949 q 138 988 106 988 q 201 985 150 988 q 335 982 251 983 q 511 981 419 981 q 641 982 540 981 q 761 983 742 983 q 786 960 786 983 l 786 886 q 790 851 786 876 q 793 811 793 826 q 776 774 793 774 q 761 783 765 774 q 756 807 757 793 q 744 843 754 821 q 714 885 733 865 q 579 925 681 921 q 476 929 501 929 l 429 929 q 358 916 372 929 q 336 849 344 903 q 333 832 335 838 q 299 556 299 589 q 308 535 299 540 q 357 531 318 531 l 442 531 q 572 533 544 531 q 619 551 601 536 q 642 581 638 565 q 653 610 646 597 q 672 622 661 622 q 686 608 686 622 q 673 528 686 593 q 660 404 660 463 q 642 332 660 332 q 619 361 619 332 l 619 376 q 617 416 619 401 q 601 442 614 431 q 572 459 588 454 q 519 467 557 464 q 444 472 482 471 q 336 472 407 472 q 286 442 288 472 q 272 324 282 401 q 253 190 261 247 q 246 124 246 133 q 269 65 246 85 q 321 43 293 44 q 372 35 349 42 q 396 14 396 29 q 375 -3 396 -3 q 325 1 371 -3 q 232 4 279 4 q 158 1 199 4 q 89 -4 117 -1 l 63 -7 q 28 11 28 -7 z "},"G":{"ha":1074,"x_min":54,"x_max":1019,"o":"m 54 499 q 69 610 54 550 q 118 740 85 671 q 219 870 151 810 q 378 963 286 931 q 558 994 471 994 q 678 984 619 994 q 778 958 738 974 q 849 928 818 943 q 899 902 881 913 q 919 892 917 892 q 939 906 924 892 q 960 919 954 919 q 978 894 978 919 q 976 865 978 889 q 975 822 975 842 q 980 753 975 794 q 985 706 985 711 q 961 674 985 674 q 944 687 950 674 q 929 728 939 700 q 903 781 919 757 q 749 901 850 860 q 536 943 649 943 q 442 933 488 943 q 345 892 396 922 q 258 813 294 861 q 197 683 221 765 q 172 496 172 601 q 280 169 172 303 q 561 35 388 35 q 668 44 625 35 q 751 84 711 54 q 812 177 792 114 q 832 338 832 240 l 832 346 q 820 437 832 418 q 756 456 808 456 l 743 456 q 703 481 703 456 q 749 499 703 499 q 813 497 767 499 q 876 494 858 494 q 932 496 904 494 q 976 499 960 497 q 993 500 992 500 q 1019 483 1019 500 q 1010 468 1019 474 q 988 460 1000 463 q 963 447 975 458 q 947 413 951 435 q 917 146 917 222 l 917 103 q 915 77 917 83 q 910 68 913 71 q 890 61 907 65 q 858 51 874 57 q 836 42 856 50 q 801 29 817 35 q 756 15 785 24 q 699 0 726 6 q 633 -10 671 -6 q 560 -14 596 -14 q 184 126 314 -14 q 54 499 54 267 z "},"H":{"ha":1092,"x_min":28,"x_max":1065,"o":"m 28 15 q 35 30 28 25 q 51 35 42 35 q 76 43 61 36 q 104 63 92 50 q 113 74 110 68 q 120 92 117 81 q 126 113 124 103 q 133 144 129 124 q 138 182 136 164 q 144 232 140 200 q 151 292 149 264 q 160 366 154 319 q 169 453 165 413 q 192 638 179 531 q 213 801 206 744 q 219 860 219 858 q 196 913 219 896 q 137 935 172 931 q 100 940 101 939 q 89 957 89 944 q 126 978 89 978 q 183 973 142 978 q 269 968 225 968 q 347 973 303 968 q 400 978 390 978 q 425 957 425 978 q 412 944 425 947 q 380 935 399 940 q 353 921 361 931 q 330 869 338 903 q 312 753 322 836 q 290 608 301 671 q 285 554 285 574 q 288 540 285 543 q 301 538 292 538 q 353 537 318 538 q 496 535 388 536 q 764 533 604 535 l 792 533 q 822 543 815 533 q 833 590 829 553 q 842 665 835 601 q 854 781 849 729 q 860 840 860 833 q 804 931 860 907 q 777 935 797 933 q 743 942 757 938 q 729 957 729 947 q 767 975 729 975 q 826 973 781 975 q 915 971 872 971 q 987 974 949 971 q 1035 976 1025 976 q 1065 956 1065 976 q 1038 938 1065 944 q 1000 919 1010 932 q 958 757 971 885 q 922 453 942 601 q 893 233 903 306 q 883 139 883 160 q 885 110 883 124 q 888 86 886 96 q 895 69 890 76 q 903 56 900 61 q 913 47 906 50 q 924 41 921 43 q 935 37 926 39 q 947 35 944 35 q 958 34 949 35 q 969 33 968 33 q 1015 8 1015 31 q 990 -8 1015 -8 q 921 -2 964 -8 q 849 4 878 4 q 771 -1 808 4 q 724 -7 733 -7 q 679 11 679 -7 q 706 32 679 29 q 733 42 721 33 q 753 57 746 50 q 765 82 760 64 q 771 106 769 100 q 775 133 772 111 l 778 156 q 817 456 817 432 q 809 474 817 471 q 769 478 801 478 q 715 477 761 478 q 631 476 669 476 l 304 476 q 277 472 281 476 q 271 442 274 468 l 261 369 q 232 138 232 168 q 236 97 232 114 q 244 71 240 81 q 260 53 249 61 q 275 44 271 46 q 294 39 279 43 q 311 35 310 35 q 321 33 315 33 q 329 31 326 32 q 337 28 332 29 q 344 26 342 28 q 349 23 346 25 q 352 18 351 21 q 353 13 353 15 q 331 0 353 0 q 263 1 303 0 q 183 3 222 3 q 130 -1 168 3 q 75 -4 92 -4 q 28 15 28 -4 z "},"I":{"ha":451,"x_min":28,"x_max":425,"o":"m 28 15 q 36 29 28 25 q 55 34 44 33 q 79 42 65 35 q 103 63 93 49 q 124 110 121 89 q 152 332 126 136 q 199 692 178 528 q 219 860 219 857 q 196 913 219 896 q 137 935 172 931 q 100 940 101 939 q 89 957 89 944 q 126 978 89 978 q 183 972 142 978 q 269 967 225 967 q 347 971 303 967 q 400 975 390 975 q 425 956 425 975 q 412 942 425 946 q 380 934 399 939 q 353 919 361 929 q 313 757 325 888 q 275 453 296 600 q 243 231 254 306 q 232 138 232 157 q 236 86 232 107 q 251 56 240 65 q 267 42 261 46 q 290 35 274 38 q 311 31 307 32 q 324 28 317 29 q 335 26 331 26 q 344 24 340 25 q 351 19 349 22 q 353 13 353 17 q 349 -1 353 3 q 340 -6 344 -6 q 324 -7 336 -7 q 267 -3 318 -7 q 183 1 217 1 q 126 -3 163 1 q 76 -7 90 -7 q 28 15 28 -7 z "},"J":{"ha":563,"x_min":-14,"x_max":535,"o":"m -14 -54 q 2 7 -14 -39 q 38 53 18 53 q 58 33 49 53 q 83 -5 67 14 q 129 -24 100 -24 q 213 76 183 -24 q 263 342 243 175 l 321 839 q 323 858 321 846 q 325 874 325 869 q 231 936 325 928 q 196 961 196 939 q 232 983 196 983 q 285 977 249 983 q 368 971 321 971 q 457 976 414 971 q 503 982 500 982 q 535 965 535 982 q 526 948 535 951 q 506 943 518 944 q 479 935 493 942 q 452 903 465 929 q 431 829 439 876 q 405 613 428 810 q 360 271 382 415 q 308 92 346 175 q 197 -43 272 10 q 58 -96 122 -96 q 6 -84 26 -96 q -14 -54 -14 -72 z "},"K":{"ha":1075,"x_min":28,"x_max":1047,"o":"m 28 18 q 40 35 28 31 q 69 41 53 39 q 105 63 86 43 q 133 122 124 83 q 186 505 149 182 q 224 861 224 828 q 197 917 224 894 q 129 942 169 939 q 104 965 104 943 q 129 982 104 982 l 136 981 q 156 979 143 981 q 187 976 169 978 q 231 974 204 975 q 289 974 258 974 q 360 976 324 974 q 406 979 397 979 q 432 965 432 979 q 427 955 432 958 q 409 947 422 951 q 386 938 396 943 q 333 864 344 913 q 297 575 322 815 q 294 554 296 565 q 292 537 293 543 q 292 526 292 531 q 301 514 292 514 q 465 627 313 514 q 731 828 618 740 q 804 911 804 886 q 771 940 804 931 q 738 964 738 950 q 775 981 738 981 q 830 976 778 981 q 903 972 882 972 q 970 976 931 972 q 1018 981 1010 981 q 1047 958 1047 981 q 1029 932 1047 936 q 1003 926 1022 929 q 967 918 985 924 q 904 885 950 913 q 793 811 858 858 l 493 596 q 473 582 486 590 q 451 567 460 574 q 434 554 443 561 q 420 541 425 547 q 415 529 415 535 q 428 511 415 524 q 599 319 508 424 q 722 178 689 215 q 800 101 754 142 q 878 49 846 60 q 958 36 910 39 q 990 17 990 33 q 967 -3 990 -3 q 907 0 961 -3 q 829 3 853 3 q 784 3 801 3 q 759 2 767 3 q 750 1 751 1 q 715 24 736 1 q 593 168 694 47 q 449 340 508 269 q 338 467 346 461 q 324 469 332 469 q 297 457 310 469 l 294 454 q 290 450 290 451 q 286 446 289 449 q 282 440 283 443 q 278 432 281 438 q 275 421 276 426 q 272 406 274 415 q 269 387 271 397 q 267 363 268 376 q 244 157 244 163 q 259 65 244 82 q 332 39 274 47 q 375 18 375 35 q 343 0 375 0 q 274 2 301 0 q 226 4 246 4 q 130 1 185 4 q 68 -3 75 -3 q 28 18 28 -3 z "},"L":{"ha":818,"x_min":35,"x_max":811,"o":"m 35 14 q 44 31 35 26 q 74 40 54 35 q 108 58 93 46 q 121 71 117 65 q 129 84 125 76 q 136 108 133 92 q 142 142 139 124 q 149 197 144 160 q 158 273 153 233 q 173 381 164 313 q 192 524 182 450 q 232 878 232 811 q 147 954 232 951 q 119 963 131 954 q 107 982 107 971 q 129 999 107 999 q 150 996 132 999 q 204 990 168 993 q 288 988 240 988 q 369 990 331 988 q 414 993 408 993 q 443 975 443 993 q 429 958 443 964 q 398 949 415 953 q 364 925 381 944 q 342 871 347 906 q 243 129 243 156 q 269 67 243 82 q 394 53 294 53 q 558 63 488 53 q 665 89 628 74 q 726 122 701 104 q 760 154 751 139 q 778 180 769 169 q 794 190 786 190 q 811 169 811 190 q 780 88 811 140 q 733 22 749 36 q 649 -11 696 -11 l 583 -11 q 399 -3 518 -11 q 242 4 279 4 q 151 0 203 4 q 67 -4 100 -4 q 35 14 35 -4 z "},"M":{"ha":1265,"x_min":28,"x_max":1238,"o":"m 28 14 q 28 19 28 17 q 28 23 28 21 q 31 26 29 25 q 34 28 32 26 q 38 31 36 29 q 45 34 40 32 q 54 38 50 36 q 66 42 58 39 q 81 47 74 44 q 129 105 114 60 q 165 265 144 150 q 174 313 171 296 q 198 432 175 319 q 232 614 221 544 q 243 721 243 683 q 242 750 243 731 q 242 781 242 769 q 200 910 242 851 q 165 938 183 932 q 115 944 147 944 l 94 944 q 74 965 74 944 q 172 989 74 989 l 181 989 q 229 990 200 989 q 269 990 258 990 q 307 961 292 990 q 378 793 322 932 q 497 513 431 663 q 609 269 564 364 q 660 175 654 175 q 883 600 672 175 q 925 681 885 603 q 985 801 965 760 q 1017 871 1001 835 q 1039 924 1032 907 q 1054 958 1046 942 q 1069 978 1063 974 q 1086 983 1076 983 l 1128 983 q 1172 986 1142 983 q 1204 989 1203 989 q 1238 969 1238 989 q 1231 957 1238 964 q 1218 949 1224 950 q 1197 945 1213 947 q 1176 941 1181 943 q 1160 930 1171 939 q 1145 904 1150 921 q 1133 858 1140 888 q 1122 783 1126 828 q 1115 631 1115 719 l 1115 522 q 1114 415 1115 482 q 1113 325 1113 347 q 1112 307 1113 315 q 1111 290 1111 299 q 1110 245 1111 282 q 1110 147 1110 208 q 1125 65 1110 89 q 1179 35 1140 42 q 1213 31 1201 32 q 1233 14 1233 28 q 1194 -6 1233 -6 q 1132 -2 1181 -6 q 1050 1 1083 1 q 997 -2 1032 1 q 935 -6 961 -6 q 906 11 906 -6 q 917 27 906 21 q 942 36 928 33 q 974 53 957 39 q 997 92 990 67 q 1018 542 1018 161 q 1010 701 1018 701 q 956 624 996 701 l 753 231 q 674 71 714 154 q 643 13 650 22 q 624 4 636 4 q 572 97 614 4 q 343 611 529 190 q 315 676 319 667 q 304 685 310 685 q 293 661 300 685 q 285 624 286 638 q 236 335 274 528 q 199 99 199 142 q 258 40 199 51 q 276 38 263 39 q 294 35 289 36 q 306 31 299 33 q 317 24 314 28 q 319 14 319 19 q 290 -3 319 -3 q 215 -1 264 -3 q 161 1 167 1 q 127 -1 158 1 q 60 -3 96 -3 q 28 14 28 -3 z "},"N":{"ha":1117,"x_min":28,"x_max":1090,"o":"m 28 8 q 33 19 28 15 q 47 26 39 24 q 66 32 54 28 q 86 44 78 36 q 106 65 97 54 q 122 95 115 76 q 133 128 129 114 q 144 177 138 143 q 153 235 150 211 q 165 313 157 258 q 179 406 174 367 q 194 495 182 425 q 212 607 206 565 q 224 704 218 649 q 231 793 231 760 q 228 826 231 811 q 222 850 225 842 q 210 870 219 858 q 197 885 200 882 q 180 902 194 889 q 163 918 165 915 q 114 935 146 933 q 60 940 82 938 q 39 960 39 942 q 132 986 39 986 q 160 984 140 986 q 190 982 181 982 q 210 983 193 982 q 232 983 226 983 q 244 983 239 983 q 253 980 249 982 q 260 976 258 978 q 268 969 263 975 q 276 958 274 963 q 287 944 279 954 q 300 925 294 933 q 785 221 629 469 q 821 176 813 176 q 888 494 847 176 q 929 856 929 811 q 912 915 929 894 q 873 940 894 936 q 834 951 851 943 q 817 975 817 958 q 851 989 817 989 q 897 986 857 989 q 957 983 936 983 q 1017 986 990 983 q 1054 989 1044 989 q 1083 985 1076 989 q 1090 969 1090 981 q 1088 963 1090 965 q 1081 958 1086 960 q 1071 955 1075 956 q 1060 952 1067 954 q 1049 949 1053 950 q 994 889 1011 938 q 967 747 978 840 q 858 29 908 257 q 849 5 857 18 q 829 -8 840 -8 q 808 4 819 -8 q 776 50 797 17 q 730 126 756 83 q 655 245 704 168 q 549 403 606 322 q 463 525 504 467 q 401 613 422 583 q 361 668 379 643 q 335 706 343 693 q 322 728 326 719 q 300 744 314 744 q 274 679 281 744 q 229 347 258 525 q 200 110 200 168 q 254 39 200 56 q 270 35 260 38 q 286 31 281 32 q 299 26 292 29 q 308 19 306 24 q 311 10 311 15 q 288 -7 311 -7 q 251 -5 281 -7 q 149 -3 222 -3 q 92 -5 121 -3 q 58 -7 64 -7 q 28 8 28 -7 z "},"O":{"ha":1132,"x_min":54,"x_max":1078,"o":"m 54 436 q 91 638 54 539 q 196 817 128 736 q 370 946 264 897 q 603 994 476 994 q 815 955 721 994 q 964 849 908 915 q 1049 699 1019 782 q 1078 522 1078 615 q 1045 328 1078 424 q 949 152 1013 233 q 782 22 886 71 q 547 -28 678 -28 q 190 100 325 -28 q 54 436 54 228 m 174 482 q 288 145 174 268 q 557 22 401 22 q 772 99 678 22 q 910 288 865 175 q 956 528 956 401 q 926 724 956 650 q 798 890 886 828 q 583 953 710 953 q 404 908 485 953 q 275 792 324 863 q 200 640 226 721 q 174 482 174 560 z "},"P":{"ha":800,"x_min":26,"x_max":746,"o":"m 26 14 q 56 35 26 29 q 61 36 60 36 q 121 108 106 44 q 158 406 125 131 q 211 883 211 817 q 115 958 211 956 q 90 978 90 958 q 122 994 90 994 q 239 990 147 994 q 340 986 331 986 q 420 991 372 986 q 490 996 468 996 q 676 937 607 996 q 746 765 746 878 q 699 597 746 676 q 569 482 651 517 q 422 460 515 460 q 355 466 383 460 q 326 482 326 472 q 331 485 326 485 q 341 484 332 485 q 367 483 350 483 q 407 483 385 483 q 561 557 486 483 q 636 750 636 631 q 618 832 636 796 q 583 883 600 868 q 538 917 565 899 q 408 950 485 950 q 372 949 381 950 q 357 947 361 949 q 347 940 353 946 q 336 922 340 935 q 326 886 332 910 q 303 735 319 857 q 289 625 297 692 q 267 441 281 558 q 240 222 253 324 q 233 168 240 215 q 225 113 225 121 q 257 56 225 75 q 321 31 289 38 q 353 14 353 24 q 326 -7 353 -7 q 271 -2 317 -7 q 183 3 225 3 q 125 -1 174 3 q 71 -6 76 -6 q 26 14 26 -6 z "},"Q":{"ha":1121,"x_min":54,"x_max":1074,"o":"m 54 -56 q 72 33 54 -4 q 109 83 89 69 q 147 107 129 97 q 164 122 164 117 q 147 153 164 129 q 109 206 129 176 q 72 293 89 236 q 54 417 54 350 q 69 552 54 482 q 123 703 83 622 q 223 848 163 785 q 385 953 283 911 q 615 996 488 996 q 667 994 642 996 q 714 988 693 992 q 755 978 735 983 q 790 967 775 972 q 820 953 804 961 q 845 940 836 946 q 866 926 854 935 q 883 915 878 918 q 894 904 888 911 q 903 897 901 897 q 975 826 950 858 q 1074 510 1074 693 q 948 156 1074 306 q 653 -14 822 7 q 601 -22 618 -18 q 581 -30 585 -26 q 578 -39 578 -33 q 642 -78 578 -43 q 796 -151 707 -114 q 933 -187 885 -187 q 999 -170 972 -187 q 1040 -136 1026 -153 q 1060 -119 1053 -119 q 1071 -133 1071 -119 q 1015 -225 1071 -172 q 897 -278 958 -278 q 703 -226 818 -278 q 496 -113 589 -175 q 317 0 403 -51 q 203 51 232 51 q 128 13 160 51 q 96 -72 96 -26 q 112 -148 96 -114 q 128 -185 128 -182 q 111 -203 128 -203 q 54 -56 54 -203 m 172 453 q 272 146 172 272 q 561 19 371 19 q 734 67 657 19 q 858 191 811 114 q 929 358 904 268 q 954 540 954 447 q 901 772 954 682 q 778 899 861 843 q 590 956 694 956 q 294 821 415 956 q 172 453 172 686 z "},"R":{"ha":885,"x_min":28,"x_max":857,"o":"m 28 13 q 37 32 28 26 q 66 43 46 38 q 100 56 86 49 q 126 98 119 67 q 151 301 132 129 q 185 594 169 468 q 198 697 189 629 q 213 812 207 765 q 219 867 219 858 q 133 942 219 935 q 89 958 89 944 q 98 978 89 974 q 131 983 107 983 q 185 979 144 983 q 243 975 225 975 q 345 981 278 975 q 472 986 413 986 q 565 983 536 986 q 715 915 660 975 q 771 774 771 856 q 715 622 771 693 q 550 513 658 550 q 538 497 538 508 q 609 312 538 474 q 717 103 681 150 q 831 36 765 36 q 857 21 857 36 q 760 -11 857 -11 q 646 15 678 -11 q 572 133 614 40 q 498 316 535 217 q 444 451 461 415 q 411 486 428 486 q 379 485 407 486 q 347 485 351 485 q 321 485 336 485 q 299 486 306 486 q 276 463 283 486 q 263 364 269 439 l 243 168 q 241 143 243 164 q 239 119 239 122 q 258 69 239 88 q 301 45 278 50 q 343 33 324 40 q 363 14 363 26 q 315 -4 363 -4 q 254 0 293 -4 q 211 4 215 4 q 119 -2 171 4 q 65 -8 67 -8 q 28 13 28 -8 m 289 572 q 332 536 289 536 l 351 536 q 518 546 475 536 q 597 599 565 557 q 640 681 629 640 q 650 758 650 722 q 598 885 650 831 q 451 939 546 939 q 358 922 389 939 q 324 853 328 906 q 310 726 319 792 q 295 619 301 660 q 289 572 289 579 z "},"S":{"ha":668,"x_min":28,"x_max":628,"o":"m 28 186 q 50 218 28 218 q 65 203 60 218 q 149 81 88 131 q 311 31 211 31 q 412 47 369 31 q 474 90 454 64 q 501 140 493 117 q 508 185 508 163 q 485 272 508 232 q 410 364 461 313 l 247 525 q 115 771 115 660 q 131 864 115 825 q 163 920 146 903 q 207 956 179 938 q 349 994 263 994 q 472 970 397 994 q 551 946 546 946 q 570 957 553 946 q 594 968 588 968 q 613 939 613 968 q 612 916 613 932 q 611 890 611 900 l 611 867 q 619 800 611 846 q 628 747 628 754 q 620 727 628 735 q 606 719 613 719 q 586 733 593 719 q 575 766 579 746 q 552 818 571 786 q 503 881 533 850 q 338 947 435 947 q 271 935 299 947 q 231 901 243 922 q 215 861 219 879 q 210 824 210 843 q 237 727 210 775 q 294 647 264 679 q 386 558 325 615 q 479 468 447 501 q 547 394 525 421 q 587 320 568 367 q 606 219 606 274 q 591 147 606 185 q 542 70 576 110 q 440 6 508 31 q 279 -19 372 -19 q 79 11 132 -19 q 44 85 60 22 q 28 186 28 147 z "},"T":{"ha":961,"x_min":40,"x_max":942,"o":"m 40 796 q 45 827 40 814 q 62 870 50 840 q 85 944 74 900 q 103 974 90 967 q 149 981 117 981 q 249 978 171 981 q 507 976 328 976 q 772 979 649 976 l 897 982 q 924 977 915 982 q 935 967 933 972 q 936 954 936 963 q 939 857 936 907 q 942 800 942 807 q 915 768 942 768 q 906 769 908 768 q 901 778 903 771 q 897 792 899 785 q 890 819 896 800 q 878 857 885 838 q 834 896 867 889 q 671 903 801 903 l 608 903 q 568 889 575 903 q 554 804 561 875 q 552 786 553 793 q 551 768 551 779 q 549 747 550 757 q 517 472 536 621 q 486 237 497 324 q 475 119 475 150 q 494 63 475 81 q 535 43 513 44 q 576 37 557 42 q 594 18 594 32 q 560 -3 594 -3 q 498 1 550 -3 q 411 6 446 6 q 344 2 386 6 q 292 -1 301 -1 q 247 18 247 -1 q 248 26 247 22 q 251 32 249 29 q 256 36 254 35 q 263 38 258 38 q 271 40 268 39 q 281 41 274 40 q 290 42 288 42 q 347 72 331 47 q 363 129 357 88 q 458 886 458 847 q 440 905 458 901 q 360 908 422 908 q 186 899 226 908 q 121 861 146 889 q 98 825 107 844 q 86 794 89 806 q 77 774 83 782 q 58 765 71 765 q 40 796 40 765 z "},"U":{"ha":1149,"x_min":61,"x_max":1121,"o":"m 61 964 q 85 983 61 983 q 133 979 85 983 q 243 975 182 975 q 296 979 256 975 q 368 983 336 983 q 396 964 396 983 q 381 945 396 951 q 349 936 367 939 q 315 914 332 933 q 296 860 299 894 q 273 653 289 788 q 248 425 257 519 q 239 267 239 331 q 249 197 239 231 q 284 123 258 163 q 365 59 310 83 q 501 35 421 35 q 861 256 771 35 q 927 560 892 333 q 963 857 963 786 q 933 917 963 900 q 872 939 903 933 q 842 961 842 944 q 875 979 842 979 q 910 976 882 979 q 951 974 938 974 q 1035 976 985 974 q 1096 979 1086 979 q 1113 974 1106 979 q 1121 961 1121 968 q 1104 947 1121 951 q 1065 926 1088 942 q 1032 876 1042 911 q 1012 733 1029 867 q 967 447 994 600 q 913 228 940 294 q 839 112 882 154 q 715 21 796 69 q 615 -12 682 1 q 506 -26 547 -26 q 314 -3 385 -26 q 196 69 243 21 q 142 160 154 111 q 131 299 131 208 q 156 585 131 318 q 182 869 182 851 q 163 919 182 903 q 122 938 144 936 q 80 944 99 939 q 61 964 61 950 z "},"V":{"ha":1083,"x_min":28,"x_max":1056,"o":"m 28 958 q 78 979 28 979 q 130 976 92 979 q 189 974 168 974 q 242 976 203 974 q 297 979 282 979 q 347 961 347 979 q 328 944 347 947 q 291 924 310 940 q 272 864 272 908 q 369 491 272 833 q 481 149 465 149 q 680 497 493 149 q 867 886 867 844 q 849 920 867 908 q 812 934 832 932 q 774 943 792 936 q 757 963 757 950 q 762 978 757 974 q 785 982 767 982 q 851 978 792 982 q 938 975 911 975 q 961 976 944 975 q 1008 978 978 978 q 1056 963 1056 978 q 1050 947 1056 951 q 1036 942 1044 943 q 1013 936 1028 942 q 985 919 999 931 q 915 820 957 896 q 816 628 874 744 q 717 443 758 513 q 655 337 694 406 q 587 219 615 268 q 526 117 558 171 q 471 28 494 64 q 433 -22 447 -7 q 418 -29 426 -29 q 390 8 401 -29 q 383 36 388 17 q 378 54 379 47 l 188 743 q 166 819 174 796 q 141 872 158 842 q 101 917 124 903 q 74 927 89 924 q 50 931 60 931 q 34 938 40 932 q 28 958 28 944 z "},"W":{"ha":1463,"x_min":28,"x_max":1435,"o":"m 28 972 q 56 986 28 986 q 103 981 60 986 q 183 976 146 976 q 238 979 197 976 q 293 982 278 982 q 332 965 332 982 q 324 953 332 957 q 306 949 317 950 q 281 944 294 949 q 260 932 268 940 q 246 872 246 918 q 335 492 246 840 q 440 143 425 143 q 490 216 443 143 q 581 369 536 289 q 626 463 626 449 q 619 508 626 481 l 560 744 q 550 781 557 753 q 540 820 543 810 q 531 853 538 831 q 517 885 524 875 q 501 909 511 896 q 479 929 490 922 q 445 944 464 939 q 417 955 426 950 q 408 969 408 960 q 449 983 408 983 q 499 980 463 983 q 556 976 535 976 q 610 979 569 976 q 665 982 650 982 q 708 965 708 982 q 697 949 708 953 q 670 945 685 946 q 644 931 656 944 q 632 889 632 918 q 694 643 632 876 q 708 606 703 606 q 787 739 724 606 q 850 889 850 872 q 826 932 850 919 q 780 951 803 944 q 757 969 757 957 q 793 983 757 983 q 838 981 800 983 q 901 979 875 979 q 934 981 908 979 q 990 983 960 983 q 1032 964 1032 983 q 1026 949 1032 953 q 1013 946 1021 946 q 991 941 1006 946 q 963 925 976 936 q 947 910 956 918 q 929 886 939 901 q 913 861 919 871 q 894 829 907 851 q 876 797 882 807 q 856 760 871 788 q 838 725 842 732 q 808 673 822 699 q 785 631 794 647 q 767 599 776 614 q 753 574 758 583 q 744 557 749 565 q 737 544 739 549 q 733 535 735 539 q 731 528 732 532 q 731 522 731 525 q 731 515 731 519 q 783 315 731 490 q 846 140 836 140 q 1047 497 857 140 q 1236 893 1236 853 q 1220 930 1236 918 q 1185 943 1204 942 q 1149 950 1165 944 q 1133 968 1133 956 q 1163 986 1133 986 q 1219 983 1169 986 q 1296 981 1269 981 q 1345 983 1308 981 q 1388 986 1382 986 q 1435 965 1435 986 q 1427 950 1435 954 q 1409 945 1419 946 q 1382 939 1399 944 q 1351 922 1365 933 q 1282 822 1324 899 q 1183 629 1240 746 q 1083 443 1125 513 q 988 275 1047 382 q 884 92 928 168 q 814 -21 840 17 q 785 -35 806 -35 q 772 -31 776 -35 q 764 -19 767 -28 q 759 -2 761 -11 q 753 24 757 7 q 746 54 750 40 l 664 365 q 653 393 657 393 q 593 297 650 393 q 474 98 536 201 q 401 -19 413 -6 q 385 -29 392 -29 q 367 -15 374 -29 q 346 54 360 0 q 253 429 308 204 q 131 890 149 849 q 101 924 121 911 q 96 926 97 925 q 63 942 82 935 q 35 954 43 949 q 28 972 28 960 z "},"X":{"ha":1024,"x_min":28,"x_max":1010,"o":"m 28 14 q 36 33 28 28 q 60 41 44 39 q 107 63 75 43 q 174 117 139 82 q 221 168 194 138 q 265 222 247 199 q 322 294 283 244 q 379 365 361 343 q 479 497 479 492 q 470 520 479 499 q 444 584 461 542 q 411 663 426 626 q 327 830 372 761 q 247 907 282 899 q 196 918 214 918 q 115 882 144 918 q 85 801 85 846 q 119 729 85 750 q 131 724 124 726 q 144 720 139 722 q 153 711 149 718 q 157 694 157 704 q 119 668 157 668 q 58 715 82 668 q 33 821 33 763 q 53 910 33 872 q 106 965 74 947 q 166 991 138 983 q 219 999 194 999 q 362 951 310 999 q 468 792 414 904 q 514 686 494 738 q 540 616 533 635 q 553 597 547 597 q 579 625 558 597 l 669 746 q 769 913 769 878 q 757 940 769 931 q 728 952 744 950 q 700 959 713 954 q 688 974 688 964 q 711 994 688 994 q 771 992 742 994 q 824 990 800 990 q 890 992 851 990 q 939 994 928 994 q 982 969 982 994 q 963 950 982 954 q 873 906 911 942 q 708 708 835 871 q 590 560 636 617 q 579 547 581 549 q 578 542 578 544 q 637 394 578 525 q 746 176 696 264 q 788 110 769 133 q 840 67 806 88 q 918 46 875 46 q 963 56 942 46 q 996 67 983 67 q 1010 51 1010 67 q 967 8 1010 25 q 874 -10 924 -10 q 751 7 794 -10 q 685 53 707 24 q 633 147 663 82 q 542 360 588 250 q 503 435 510 435 q 463 389 497 435 l 333 217 q 261 83 261 118 q 344 38 261 44 q 368 17 368 38 q 329 -3 368 -3 q 249 1 315 -3 q 178 4 182 4 q 124 -3 165 4 q 67 -10 82 -10 q 28 14 28 -10 z "},"Y":{"ha":958,"x_min":28,"x_max":932,"o":"m 28 972 q 74 992 28 992 q 136 989 82 992 q 203 986 190 986 q 267 989 219 986 q 326 992 315 992 q 368 971 368 992 q 333 944 368 957 q 299 913 299 932 q 360 750 299 856 q 412 643 382 708 q 460 538 442 578 q 483 499 479 499 q 550 585 486 499 q 678 774 614 671 q 742 908 742 876 q 726 936 742 928 q 692 944 711 944 q 658 949 674 943 q 643 969 643 954 q 679 989 643 989 q 713 988 686 989 q 753 986 740 986 q 828 988 785 986 q 896 990 871 990 q 932 969 932 990 q 917 954 932 961 q 878 938 901 947 q 843 915 856 929 q 692 707 811 882 q 550 507 572 532 q 510 446 522 475 q 490 344 499 417 q 468 110 468 132 q 499 56 468 82 q 533 38 514 43 q 567 31 553 32 q 590 26 581 31 q 600 11 600 21 q 599 1 600 4 q 592 -6 597 -3 q 574 -8 586 -8 q 504 -3 567 -8 q 417 1 442 1 q 347 -4 381 1 q 300 -10 313 -10 q 263 8 263 -10 q 268 22 263 17 q 279 30 274 28 q 297 34 285 32 q 315 38 310 36 q 343 62 335 43 q 357 124 351 81 q 394 419 394 379 q 392 437 394 428 q 384 462 390 446 q 371 493 378 478 q 347 540 364 508 q 315 600 331 571 q 272 684 300 629 q 215 792 243 739 q 93 944 146 928 q 70 947 89 946 q 40 953 51 947 q 28 972 28 958 z "},"Z":{"ha":815,"x_min":28,"x_max":788,"o":"m 28 6 q 32 20 28 13 q 47 43 36 28 q 69 74 57 58 q 107 121 82 89 q 156 185 132 153 q 651 878 651 846 q 606 883 651 883 q 576 883 597 883 q 532 882 556 882 q 449 889 504 882 q 376 896 393 896 q 247 885 296 896 q 158 835 192 872 q 124 760 124 799 q 131 714 124 731 q 149 694 139 697 q 166 684 158 690 q 174 667 174 678 q 142 644 174 644 q 93 678 107 644 q 79 746 79 713 q 100 839 79 786 q 174 932 114 875 q 262 983 217 974 q 390 993 307 993 q 565 983 471 993 q 689 974 660 974 q 722 978 700 974 q 757 982 744 982 q 774 981 768 982 q 783 976 779 981 q 788 960 788 971 q 485 533 788 943 q 183 110 183 124 q 201 97 183 99 q 285 94 218 94 l 344 94 q 503 90 422 94 q 604 86 585 86 q 708 124 708 86 q 689 139 708 132 q 650 158 669 146 q 631 193 631 171 q 652 240 631 222 q 697 257 674 257 q 744 233 729 257 q 760 189 760 208 q 678 32 760 99 l 674 28 q 665 22 669 25 q 651 13 660 18 q 631 3 643 7 q 601 -6 618 -1 q 563 -12 585 -10 q 514 -14 540 -14 q 301 -10 383 -14 q 215 -6 218 -6 q 143 -9 183 -6 q 64 -12 103 -12 q 28 6 28 -12 z "},"[":{"ha":369,"x_min":76,"x_max":440,"o":"m 76 -249 q 78 -225 76 -242 q 81 -199 81 -208 l 89 -114 q 138 315 100 -14 q 192 792 176 644 q 203 906 199 853 q 210 989 208 960 q 214 1025 213 1018 q 229 1053 215 1047 q 282 1060 243 1060 l 338 1060 q 387 1060 368 1060 q 413 1061 406 1061 q 422 1061 421 1061 q 440 1036 440 1061 q 422 1004 440 1004 q 358 1003 408 1004 q 303 1003 308 1003 l 282 1003 q 272 994 275 1003 q 264 921 271 983 q 250 776 257 842 q 213 449 242 701 q 165 13 185 197 q 144 -197 144 -172 q 157 -221 144 -221 q 220 -220 171 -221 q 274 -219 269 -219 q 301 -242 301 -219 q 285 -276 301 -269 q 229 -283 269 -283 l 114 -283 q 84 -277 92 -283 q 76 -249 76 -271 z "},"\\":{"ha":578,"x_min":28,"x_max":550,"o":"m 28 1004 q 57 1021 28 1021 q 84 1016 76 1021 q 97 996 92 1011 l 524 -157 q 535 -186 528 -168 q 546 -215 542 -204 q 550 -232 550 -226 q 504 -254 550 -254 q 487 -247 493 -254 q 469 -211 481 -239 l 47 943 q 28 1004 28 993 z "},"]":{"ha":369,"x_min":-71,"x_max":293,"o":"m -71 -258 q -53 -226 -71 -226 q 82 -226 -53 -226 l 88 -226 q 97 -216 94 -226 q 106 -144 99 -206 q 119 1 113 -64 q 156 328 128 76 q 205 765 185 581 q 225 975 225 950 q 213 997 225 997 l 96 997 q 68 1018 68 997 q 93 1058 68 1058 q 256 1061 224 1061 q 285 1054 278 1061 q 293 1025 293 1047 q 291 1002 293 1018 q 289 976 289 986 l 281 892 q 231 463 269 792 q 178 -14 193 133 q 166 -128 171 -75 q 159 -211 161 -182 q 156 -247 157 -240 q 140 -276 154 -269 q 88 -283 125 -283 l 32 -283 l -53 -283 q -71 -258 -71 -283 z "},"^":{"ha":463,"x_min":40,"x_max":407,"o":"m 40 460 q 58 494 40 467 q 108 579 78 528 q 185 701 167 678 q 225 724 203 724 q 266 701 249 724 q 340 582 283 678 q 392 494 371 529 q 407 457 407 471 q 382 446 407 446 l 361 446 q 349 448 354 446 q 339 456 343 450 q 332 467 335 463 q 325 479 329 471 q 319 492 321 488 q 300 527 310 508 q 284 558 290 546 q 270 584 278 571 q 258 606 263 597 q 249 622 254 614 q 241 635 244 631 q 235 643 238 639 q 230 649 232 647 q 225 650 228 650 q 219 647 222 650 q 211 638 215 644 q 202 624 207 632 q 190 602 197 617 q 174 574 182 588 q 154 536 167 560 q 131 492 142 513 q 125 481 129 489 q 119 471 121 474 q 114 462 118 468 q 106 453 110 456 q 98 449 103 451 q 88 447 93 447 l 68 447 q 40 460 40 447 z "},"_":{"ha":296,"x_min":0,"x_max":296,"o":"m 0 -53 q 1 -37 0 -42 q 8 -28 3 -32 q 26 -24 14 -24 l 274 -24 q 290 -27 285 -24 q 295 -35 294 -31 q 296 -53 296 -40 q 292 -79 296 -72 q 267 -86 288 -86 l 25 -86 q 4 -79 8 -86 q 0 -53 0 -72 z "},"`":{"ha":610,"x_min":182,"x_max":358,"o":"m 182 881 q 211 907 182 897 q 254 917 240 917 q 276 892 268 917 q 320 770 299 819 q 350 705 342 721 q 358 683 358 689 q 344 669 358 669 q 256 763 329 669 q 182 881 182 856 z "},"a":{"ha":719,"x_min":44,"x_max":693,"o":"m 44 158 q 122 385 44 260 q 310 565 206 515 q 411 590 361 590 q 469 583 432 590 q 529 575 506 575 q 565 609 543 575 q 601 643 588 643 q 617 622 617 643 q 605 576 617 610 q 589 526 593 543 q 557 349 588 521 q 532 171 532 211 q 546 115 532 142 q 579 89 560 89 q 637 134 604 89 q 681 179 669 179 q 693 164 693 179 q 668 104 693 139 q 599 26 639 61 q 533 -10 560 -10 q 475 29 494 -10 q 452 107 456 68 q 447 146 449 146 q 431 128 446 146 q 392 87 417 111 q 338 38 368 63 q 269 -3 308 14 q 193 -21 231 -21 q 74 27 104 -21 q 44 158 44 75 m 142 167 q 173 86 142 117 q 250 56 204 56 q 362 99 314 56 q 428 181 410 143 q 460 292 443 210 q 488 438 478 374 q 499 507 499 501 q 468 544 499 532 q 407 556 438 556 q 314 525 363 556 q 235 443 265 494 q 149 242 163 324 q 142 167 142 200 z "},"b":{"ha":654,"x_min":61,"x_max":610,"o":"m 61 99 q 67 176 61 129 q 79 260 72 224 q 97 358 86 297 q 113 444 108 418 q 143 636 122 503 q 175 826 164 769 q 196 968 196 926 q 161 985 196 985 q 132 983 150 985 q 104 982 114 982 q 90 983 94 982 q 82 988 86 983 q 78 1001 78 992 q 80 1011 78 1007 q 88 1019 82 1015 q 98 1024 93 1022 q 113 1028 103 1026 q 132 1031 124 1029 q 156 1033 140 1032 q 181 1036 171 1035 q 224 1043 204 1039 q 255 1049 244 1047 q 268 1051 265 1051 q 294 1026 294 1051 q 250 785 294 1024 q 206 488 206 547 q 213 467 206 467 q 246 499 217 467 q 331 563 275 531 q 457 596 386 596 q 570 544 531 596 q 610 419 610 493 q 497 125 610 268 q 231 -18 383 -18 q 112 12 163 -18 q 61 99 61 42 m 153 115 q 260 21 153 21 q 432 140 351 21 q 513 381 513 258 q 473 481 513 439 q 376 522 433 522 q 327 515 353 522 q 265 476 301 508 q 208 388 229 443 q 176 273 190 339 q 158 167 163 207 q 153 115 153 126 z "},"c":{"ha":581,"x_min":44,"x_max":536,"o":"m 44 207 q 149 481 44 356 q 397 606 254 606 q 440 598 411 606 q 503 566 469 590 q 536 506 536 542 q 522 468 536 485 q 490 451 508 451 q 452 467 471 451 q 419 501 433 483 q 380 535 406 519 q 321 551 354 551 q 283 538 310 551 q 231 503 256 525 q 199 466 217 490 q 160 388 181 442 q 139 276 139 333 q 303 64 139 64 q 394 83 353 64 q 458 120 435 101 q 489 139 481 139 q 507 121 507 139 q 478 77 507 108 q 386 15 449 46 q 254 -17 324 -17 q 44 207 44 -17 z "},"d":{"ha":688,"x_min":24,"x_max":674,"o":"m 24 174 q 133 465 24 333 q 369 596 243 596 q 420 587 388 596 q 472 578 453 578 q 499 760 475 578 q 522 953 522 943 q 510 978 522 968 q 482 988 499 988 q 463 987 475 988 q 442 986 451 986 l 433 986 q 411 1001 411 986 q 423 1017 411 1013 q 460 1024 435 1021 q 499 1029 486 1026 q 535 1039 518 1035 q 559 1045 553 1043 q 574 1049 565 1047 q 588 1051 582 1051 q 606 1051 594 1051 q 622 1044 615 1051 q 628 1028 628 1038 q 626 1003 628 1018 q 617 945 624 988 q 602 844 611 903 q 575 659 593 785 q 536 379 557 533 q 507 144 507 178 q 543 85 507 85 q 594 106 569 85 q 634 149 618 128 q 658 171 650 171 q 674 158 674 171 q 615 58 674 126 q 496 -11 556 -11 q 444 13 463 -11 q 424 67 426 38 q 419 120 421 96 q 411 144 417 144 q 390 120 408 144 q 348 67 372 96 q 281 13 324 38 q 190 -11 238 -11 q 65 40 106 -11 q 24 174 24 90 m 121 213 q 150 108 121 147 q 239 69 179 69 q 379 142 322 69 q 435 314 415 186 q 456 511 456 442 q 426 552 456 538 q 363 567 396 567 q 244 508 301 567 q 154 368 188 450 q 121 213 121 286 z "},"e":{"ha":558,"x_min":44,"x_max":515,"o":"m 44 204 q 86 378 44 292 q 201 532 128 464 q 394 606 279 606 q 480 576 444 606 q 515 503 515 547 q 499 437 515 468 q 457 385 482 406 q 413 352 432 364 q 381 335 394 340 q 163 297 300 299 q 139 240 139 297 q 189 113 139 160 q 339 67 239 67 q 408 82 374 67 q 463 112 442 97 q 489 126 485 126 q 506 113 506 126 q 426 33 506 83 q 264 -17 346 -17 q 92 42 140 -17 q 44 204 44 100 m 158 349 q 171 321 158 321 q 344 376 269 321 q 419 499 419 432 q 395 549 419 533 q 346 564 371 564 q 232 499 294 564 q 181 418 204 469 q 158 349 158 367 z "},"f":{"ha":419,"x_min":-60,"x_max":533,"o":"m -60 -217 q -49 -160 -60 -199 q -19 -122 -37 -122 q -1 -142 -3 -122 q 17 -178 3 -164 q 40 -192 32 -192 q 62 -175 53 -192 q 77 -125 71 -158 q 88 -59 83 -92 q 97 23 92 -26 q 106 101 101 72 q 161 501 161 499 q 147 519 161 519 l 63 519 q 35 525 42 519 q 28 544 28 531 q 34 572 28 565 q 64 579 40 579 q 164 576 133 576 q 174 586 172 576 q 293 931 206 806 q 468 1042 372 1042 q 533 990 533 1042 q 528 941 533 971 q 510 911 522 911 q 465 940 500 911 q 394 968 431 968 q 303 801 349 968 q 257 590 257 635 q 274 576 257 576 q 327 578 288 576 q 386 579 367 579 q 413 556 413 579 q 385 518 413 518 q 320 519 356 518 q 268 521 285 521 q 258 519 263 521 q 251 517 253 518 q 247 511 249 515 q 245 505 246 507 q 244 496 244 503 q 243 486 243 489 q 229 339 243 482 q 204 110 215 196 q 165 -101 185 -56 q 101 -197 140 -161 q 37 -242 63 -233 q -10 -250 11 -250 q -44 -241 -29 -250 q -60 -217 -60 -232 z "},"g":{"ha":604,"x_min":-33,"x_max":578,"o":"m -33 -101 q -19 -40 -33 -67 q 14 0 -6 -14 q 53 22 33 14 q 86 33 72 29 q 100 39 100 38 q 96 48 100 42 q 88 67 92 54 q 83 100 83 81 q 97 150 83 129 q 124 181 111 171 q 138 196 138 192 q 123 210 138 197 q 93 264 108 224 q 78 371 78 304 q 135 519 78 444 q 285 593 193 593 q 368 575 317 593 q 438 557 419 557 q 493 572 458 557 q 538 588 528 588 q 565 579 551 588 q 578 551 578 571 q 564 523 578 538 q 526 508 550 508 q 481 514 506 508 q 453 519 456 519 q 436 507 436 519 q 442 490 436 504 q 455 450 449 475 q 461 399 461 425 q 405 240 461 321 q 263 160 349 160 q 193 169 225 160 q 156 178 161 178 q 151 174 154 178 q 143 159 147 171 q 139 131 139 147 q 194 65 139 92 q 316 24 250 39 q 438 -27 382 10 q 493 -121 493 -64 q 430 -237 493 -204 q 251 -271 367 -271 q 49 -228 132 -271 q -33 -101 -33 -186 m 43 -85 q 106 -197 43 -158 q 249 -236 169 -236 q 404 -146 404 -236 q 355 -94 404 -122 q 160 -6 306 -65 q 133 6 144 0 q 117 17 121 13 l 114 19 q 69 -14 96 19 q 43 -85 43 -47 m 161 347 q 188 231 161 271 q 256 192 215 192 q 342 247 304 192 q 381 392 381 301 q 352 514 381 471 q 282 557 324 557 q 198 501 235 557 q 161 347 161 444 z "},"h":{"ha":674,"x_min":40,"x_max":661,"o":"m 40 32 q 48 94 40 49 q 66 199 56 139 q 81 286 76 258 q 111 490 85 313 q 158 806 138 668 q 179 947 179 943 q 140 979 179 979 q 105 978 124 979 q 83 978 86 978 q 65 994 65 978 q 118 1014 65 1010 q 221 1028 183 1019 q 268 1038 258 1038 q 285 1019 285 1038 q 243 790 285 1017 q 201 488 201 563 q 207 472 201 472 q 229 491 211 472 q 270 531 247 510 q 331 572 293 553 q 408 590 369 590 q 532 433 532 590 q 515 288 532 392 q 499 153 499 183 q 532 89 499 89 q 590 114 550 89 q 615 135 603 121 q 635 160 626 150 q 647 171 643 171 q 661 160 661 171 q 594 54 661 113 q 481 -4 528 -4 q 413 125 413 -4 q 425 267 413 168 q 438 408 438 367 q 358 517 438 517 q 265 489 311 517 q 193 396 218 461 q 172 313 181 364 q 153 171 164 263 q 138 40 143 79 q 122 7 133 15 q 86 -1 110 -1 q 40 32 40 -1 z "},"i":{"ha":347,"x_min":28,"x_max":300,"o":"m 175 824 q 201 866 175 835 q 244 897 228 897 q 281 871 264 897 q 299 824 299 844 q 274 777 299 804 q 238 750 249 750 q 198 781 221 750 q 175 824 175 811 m 28 550 q 60 569 28 569 l 74 569 q 144 576 99 569 q 232 582 189 582 q 251 567 251 582 q 235 494 251 549 q 214 406 219 440 q 172 129 172 143 q 181 103 172 115 q 200 92 189 92 q 253 128 228 92 q 286 164 279 164 q 300 149 300 164 q 286 108 300 136 q 260 68 272 81 q 132 -14 183 -14 q 81 101 81 -14 q 112 312 81 157 q 143 503 143 467 q 136 526 143 519 q 110 532 129 532 q 72 533 93 532 q 47 533 50 533 q 28 550 28 533 z "},"j":{"ha":336,"x_min":-101,"x_max":274,"o":"m 151 821 q 176 867 151 839 q 222 894 201 894 q 256 871 238 894 q 274 825 274 847 q 251 778 274 806 q 215 750 229 750 q 172 779 193 750 q 151 821 151 808 m -101 -182 q -83 -160 -101 -160 q -42 -189 -69 -160 q 6 -218 -14 -218 q 42 -162 28 -218 q 78 75 56 -107 q 102 259 88 151 q 125 430 117 367 q 133 499 133 493 q 89 532 133 532 l 53 532 q 28 549 28 532 q 56 571 28 571 q 75 572 61 571 q 99 572 89 572 q 149 578 117 572 q 201 585 182 585 q 233 563 233 585 q 220 456 233 528 q 203 358 207 385 q 179 170 192 274 q 162 27 167 67 q 148 -64 157 -12 q 129 -136 139 -115 q 104 -181 119 -157 q 64 -228 89 -204 q 54 -237 63 -229 q 42 -249 46 -246 q 31 -258 39 -251 q 17 -266 24 -264 q 2 -272 11 -268 q -18 -276 -7 -275 q -42 -278 -29 -278 q -83 -270 -71 -278 q -97 -239 -96 -262 q -100 -202 -99 -218 q -101 -182 -101 -186 z "},"k":{"ha":628,"x_min":40,"x_max":600,"o":"m 40 32 q 47 93 40 49 q 64 199 54 138 q 78 286 74 261 l 106 471 q 140 719 125 606 q 164 888 154 832 q 175 953 175 950 q 140 979 175 979 q 105 981 124 979 q 83 982 86 982 q 63 999 63 982 q 83 1019 63 1019 q 195 1031 149 1022 q 253 1040 242 1040 q 278 1019 278 1040 q 268 956 278 1014 l 256 875 q 200 504 225 696 l 188 408 q 184 389 188 404 q 178 356 181 374 q 175 325 175 338 q 176 309 175 314 q 179 301 176 304 q 188 299 182 299 q 288 365 203 299 q 403 482 372 432 q 424 533 411 497 q 451 585 436 568 q 496 601 467 601 q 528 587 517 601 q 540 550 540 572 q 487 467 540 514 q 380 387 433 419 q 326 353 326 354 l 396 228 q 411 200 401 218 q 427 172 421 182 q 442 147 433 161 q 456 125 450 133 q 467 108 461 117 q 479 97 474 100 q 490 93 485 93 q 550 132 518 93 q 588 171 582 171 q 600 146 600 171 q 551 51 600 107 q 465 -4 503 -4 q 405 44 439 -4 q 344 149 371 92 q 290 255 317 207 q 249 303 263 303 l 215 285 q 197 274 207 279 q 182 267 186 268 q 172 261 178 265 q 166 257 167 257 q 163 251 165 257 q 161 245 161 246 q 160 235 161 244 q 158 222 158 226 l 133 40 q 86 -1 129 -1 q 40 32 40 -1 z "},"l":{"ha":363,"x_min":64,"x_max":322,"o":"m 64 119 q 73 214 64 154 q 92 328 82 274 q 103 385 103 382 q 119 518 108 424 q 136 660 129 613 q 181 951 181 942 q 146 979 181 979 q 124 978 135 979 q 106 978 114 978 q 65 997 65 978 q 86 1017 65 1015 q 190 1029 142 1021 q 254 1038 239 1038 q 283 1015 283 1038 q 277 983 283 1004 q 269 951 271 963 q 239 773 247 833 q 223 633 231 713 q 197 435 215 553 q 157 136 157 156 q 161 92 157 101 q 179 82 165 82 q 226 97 206 82 q 258 131 247 113 q 281 165 268 150 q 306 181 294 181 q 322 158 322 181 q 253 58 322 139 q 191 9 228 29 q 132 -11 154 -11 q 108 -8 117 -11 q 88 5 100 -6 q 70 44 76 15 q 64 119 64 74 z "},"m":{"ha":1058,"x_min":33,"x_max":1031,"o":"m 33 447 q 81 542 33 482 q 167 601 129 601 q 210 579 194 601 q 228 530 225 557 q 233 481 231 503 q 242 458 236 458 q 251 467 244 458 q 269 490 257 475 q 299 520 282 504 q 347 554 317 536 q 413 585 376 572 q 493 600 456 600 q 575 497 575 600 l 575 468 q 578 457 575 457 q 588 465 582 457 q 604 488 593 472 q 629 515 615 503 q 801 601 718 601 q 865 582 839 601 q 900 533 890 563 q 913 486 910 504 q 915 454 915 468 q 901 288 915 421 q 888 135 888 156 q 915 86 888 86 q 941 94 926 86 q 965 111 956 103 l 975 118 q 985 133 979 124 q 994 146 992 142 q 1003 153 997 150 q 1017 157 1010 157 q 1031 140 1031 157 q 963 48 1031 100 q 847 -4 894 -4 q 811 22 826 -4 q 796 83 796 47 q 811 233 796 89 q 826 428 826 378 q 802 506 826 478 q 751 535 778 535 q 671 495 710 535 q 615 423 632 456 q 594 376 597 390 q 578 288 585 343 q 562 134 571 232 q 553 29 553 36 q 496 -8 550 -8 q 457 36 457 -8 q 482 199 457 42 q 507 435 507 357 q 503 458 507 444 q 492 490 500 471 q 462 521 483 508 q 408 533 440 533 q 374 525 393 533 q 331 495 356 517 q 283 424 306 474 q 246 303 260 374 q 223 139 233 240 q 210 24 213 38 q 192 2 208 11 q 157 -7 176 -7 q 108 40 108 -7 q 140 215 108 64 q 171 426 171 367 q 160 478 171 463 q 135 494 149 494 q 88 454 111 494 q 50 414 64 414 q 33 447 33 414 z "},"n":{"ha":731,"x_min":33,"x_max":703,"o":"m 33 446 q 82 546 33 488 q 169 604 131 604 q 218 567 206 604 q 231 494 231 531 q 233 458 231 458 q 242 467 236 458 q 265 493 249 475 q 303 528 281 511 q 472 607 404 607 q 589 433 589 607 q 577 268 589 378 q 565 142 565 158 q 592 92 565 92 q 617 99 603 92 q 639 114 631 107 l 647 122 q 658 136 651 126 q 667 149 664 146 q 677 156 671 153 q 690 160 683 160 q 703 143 703 160 q 634 47 703 103 q 519 -8 565 -8 q 483 17 499 -8 q 468 79 468 43 q 483 271 468 139 q 497 422 497 403 q 493 463 497 442 q 465 510 489 485 q 400 536 440 536 q 310 475 353 536 q 282 435 290 447 q 267 401 274 422 q 258 367 260 379 q 248 309 256 354 q 233 224 240 264 q 215 117 221 158 q 208 65 208 76 q 206 45 207 53 q 206 33 206 38 q 192 4 203 11 q 154 -3 182 -3 q 115 4 124 -3 q 106 40 106 11 q 136 213 106 64 q 167 421 167 361 q 156 476 167 454 q 135 497 146 497 q 85 458 111 497 q 46 419 60 419 q 33 446 33 419 z "},"o":{"ha":619,"x_min":44,"x_max":575,"o":"m 44 235 q 134 490 44 376 q 372 604 224 604 q 523 534 471 604 q 575 358 575 464 q 540 185 575 268 q 429 44 504 101 q 257 -14 354 -14 q 105 50 165 -14 q 44 235 44 114 m 151 233 q 185 81 151 133 q 272 28 219 28 q 366 65 325 28 q 428 159 407 103 q 461 272 450 215 q 472 375 472 328 q 438 515 472 468 q 353 563 404 563 q 251 516 300 563 q 179 389 203 469 q 151 233 151 292 z "},"p":{"ha":678,"x_min":4,"x_max":633,"o":"m 4 -254 q 33 -222 4 -235 q 65 -197 61 -210 q 74 -143 68 -190 q 164 514 149 440 l 164 517 q 157 524 164 524 q 122 511 150 524 q 86 499 94 499 q 68 515 68 499 l 68 521 q 78 539 68 533 q 110 551 94 546 q 135 560 126 557 q 152 565 144 564 q 164 571 160 567 q 172 575 168 575 q 176 582 175 575 q 178 591 178 589 q 181 606 179 593 q 185 625 183 618 q 194 678 189 647 q 201 719 199 708 q 208 744 203 729 q 220 765 213 758 q 240 779 228 772 q 281 789 260 789 q 300 765 300 789 q 281 682 300 744 q 263 600 263 619 l 263 594 q 269 588 263 588 q 287 590 272 588 q 328 593 301 592 q 388 594 354 594 q 633 408 633 594 q 579 201 633 293 q 569 183 576 196 q 558 165 561 169 q 547 148 554 160 q 535 130 540 136 q 522 113 531 124 q 504 95 513 103 q 484 78 496 88 q 458 58 472 68 q 275 0 376 0 q 237 3 264 0 q 200 6 210 6 q 184 -1 188 6 q 176 -42 181 -8 q 172 -78 174 -64 q 167 -117 171 -93 q 160 -158 163 -142 q 158 -179 158 -174 q 188 -222 158 -210 q 245 -237 217 -233 q 274 -254 274 -242 q 254 -272 274 -272 q 181 -272 229 -272 q 115 -271 133 -271 q 73 -272 99 -271 q 40 -272 47 -272 l 28 -272 q 4 -254 4 -272 m 196 71 q 201 58 196 65 q 226 44 207 51 q 275 38 246 38 q 453 147 374 38 q 532 357 532 256 q 512 451 532 411 q 465 510 492 490 q 401 542 438 531 q 342 557 365 554 q 299 560 319 560 q 277 558 286 560 q 265 556 268 556 q 242 449 254 556 l 224 294 q 196 71 196 86 z "},"q":{"ha":704,"x_min":31,"x_max":636,"o":"m 31 161 q 78 321 31 232 q 188 479 125 410 q 429 593 293 593 q 503 581 476 593 q 533 568 531 568 q 578 622 550 568 q 619 676 606 676 q 636 660 636 676 q 627 622 636 649 q 606 549 618 596 q 588 450 594 503 q 564 263 571 308 q 500 -201 500 -175 q 516 -228 500 -219 q 551 -235 532 -236 q 585 -241 569 -235 q 601 -262 601 -247 q 568 -276 601 -276 q 496 -274 536 -276 q 446 -271 456 -271 q 383 -274 408 -271 q 344 -278 357 -278 q 301 -257 301 -278 q 318 -242 301 -246 q 356 -235 335 -237 q 397 -210 376 -232 q 421 -149 417 -189 q 440 -14 428 -90 q 458 108 451 63 q 465 161 465 154 q 463 169 465 169 q 447 151 458 169 q 414 105 435 132 q 362 51 393 78 q 278 5 331 24 q 161 -14 225 -14 q 72 31 113 -14 q 31 161 31 76 m 125 179 q 158 88 125 126 q 244 49 192 49 q 381 115 311 49 q 481 282 451 181 q 501 390 492 319 q 511 481 511 461 q 482 533 511 510 q 408 556 453 556 q 269 488 338 556 q 163 332 200 419 q 125 179 125 244 z "},"r":{"ha":489,"x_min":21,"x_max":475,"o":"m 21 411 q 33 492 21 456 q 63 547 46 528 q 100 581 81 567 q 133 599 119 594 q 151 603 146 603 q 203 554 185 603 q 242 463 238 463 q 268 498 243 463 q 335 569 293 533 q 424 606 378 606 q 462 592 449 606 q 475 563 475 579 q 467 532 475 551 q 460 511 460 513 l 458 500 q 453 481 456 488 q 444 466 450 474 q 429 458 438 458 q 408 473 417 458 q 388 502 400 488 q 354 517 375 517 q 286 433 314 517 q 250 276 258 350 l 243 231 q 207 13 218 35 q 165 -6 193 -6 l 158 -6 q 117 31 117 -6 q 147 194 117 53 q 176 394 176 336 q 129 489 176 489 q 88 469 104 489 q 63 423 71 449 q 53 396 54 397 q 38 388 44 388 q 21 411 21 388 z "},"s":{"ha":463,"x_min":21,"x_max":422,"o":"m 21 75 q 65 125 21 125 q 104 110 89 125 q 126 77 119 94 q 151 44 133 60 q 197 29 169 29 q 257 40 232 29 q 292 68 282 51 q 305 97 301 85 q 308 118 308 108 q 303 160 308 142 q 277 204 297 179 q 251 235 257 229 q 213 274 244 242 q 186 300 204 282 q 160 326 168 318 q 138 351 151 335 q 119 381 125 368 q 109 411 114 393 q 104 450 104 429 q 158 563 104 519 q 293 607 211 607 q 422 535 422 607 q 410 503 422 515 q 387 490 397 492 q 369 488 376 488 q 316 526 344 488 q 260 565 288 565 q 186 492 186 565 q 203 443 186 468 q 257 383 219 418 q 296 346 294 349 q 322 319 301 340 q 349 287 342 297 q 369 256 357 276 q 387 214 382 236 q 392 165 392 192 q 382 115 392 143 q 351 56 372 88 q 283 4 329 25 q 175 -17 238 -17 q 70 5 119 -17 q 21 75 21 26 z "},"t":{"ha":415,"x_min":40,"x_max":389,"o":"m 40 542 q 55 562 40 553 q 99 588 69 571 q 154 632 129 606 q 186 668 171 650 q 208 693 201 686 q 220 704 214 700 q 235 708 226 708 q 249 692 249 708 q 236 641 249 683 q 224 588 224 599 q 231 579 224 581 q 272 578 239 578 q 327 578 304 578 q 353 579 350 579 q 389 553 389 579 q 382 521 389 529 q 356 513 375 513 q 303 516 346 513 q 243 519 260 519 q 228 518 235 519 q 218 513 222 517 q 211 505 214 508 q 207 493 208 501 q 204 479 206 485 q 201 460 203 474 q 199 438 200 446 q 183 333 194 404 q 163 210 171 263 q 154 149 154 158 q 169 97 154 115 q 193 75 183 78 q 211 72 203 72 q 272 88 244 72 q 317 118 300 103 q 342 133 333 133 q 357 114 357 133 q 285 33 357 83 q 153 -17 213 -17 q 90 13 117 -17 q 64 114 64 42 q 93 343 64 189 q 122 504 122 497 q 81 519 122 518 q 40 542 40 521 z "},"u":{"ha":729,"x_min":28,"x_max":701,"o":"m 28 408 q 74 528 28 461 q 185 594 121 594 q 220 571 207 594 q 235 528 233 547 q 238 493 238 510 q 212 295 238 431 q 186 110 186 160 q 194 83 186 93 q 211 72 203 72 q 226 74 218 72 q 242 81 233 76 q 257 92 250 86 q 274 107 264 97 q 291 124 285 117 q 309 144 297 131 q 328 165 321 157 q 349 190 335 174 q 369 215 363 207 q 531 575 468 335 q 571 597 536 597 q 617 567 617 597 q 574 357 617 553 q 532 122 532 161 q 563 89 532 89 q 623 115 600 89 q 658 166 646 140 q 682 192 671 192 q 701 163 701 192 q 636 56 701 125 q 485 -12 571 -12 q 443 63 443 -12 q 449 151 443 101 q 462 236 456 201 q 468 274 468 271 q 461 289 468 289 q 453 280 458 289 q 435 248 447 271 q 404 200 422 225 q 138 -15 253 -15 q 90 74 90 -15 q 122 292 90 157 q 153 461 153 426 q 125 490 153 490 q 96 466 115 490 q 63 410 76 442 q 42 390 54 390 q 28 408 28 390 z "},"v":{"ha":593,"x_min":14,"x_max":565,"o":"m 14 351 q 74 524 14 450 q 185 597 135 597 q 231 564 215 597 q 247 485 247 531 q 233 347 247 451 q 219 160 219 242 q 240 101 219 126 q 289 75 260 75 q 431 200 363 75 q 500 447 500 325 q 485 505 500 472 q 471 551 471 538 q 490 585 471 572 q 521 599 508 599 q 565 524 565 599 q 542 379 565 475 q 490 228 519 283 q 331 32 419 90 q 226 -18 254 -18 q 136 197 136 -18 q 117 209 136 206 q 75 217 97 213 q 33 256 53 222 q 14 351 14 290 m 50 336 q 65 277 50 300 q 93 249 81 254 q 113 244 106 244 q 131 251 126 244 q 138 279 135 258 q 139 289 139 285 q 158 463 158 433 q 139 488 158 488 q 85 434 119 488 q 50 336 50 381 z "},"w":{"ha":938,"x_min":14,"x_max":910,"o":"m 14 344 q 74 518 14 440 q 182 596 133 596 q 226 561 213 596 q 240 486 240 526 q 232 333 240 432 q 224 163 224 235 q 241 104 224 131 q 278 78 258 78 q 372 142 324 78 q 450 275 421 206 q 510 529 486 363 q 517 568 514 558 q 528 585 519 578 q 557 593 538 593 q 597 558 597 593 q 578 443 597 539 q 560 275 560 347 q 574 143 560 211 q 594 91 582 108 q 632 74 607 74 q 732 139 681 74 q 813 280 783 204 q 843 399 843 356 q 830 504 843 471 q 817 550 817 538 q 835 581 817 567 q 869 596 853 596 q 910 533 910 596 q 887 382 910 476 q 833 231 864 288 q 692 49 771 111 q 564 -14 614 -14 q 482 226 485 -14 q 478 253 482 253 q 462 225 476 253 q 423 158 447 197 q 369 80 399 119 q 300 13 339 40 q 224 -15 261 -15 q 139 200 139 -15 q 119 212 139 207 q 76 223 100 217 q 33 260 53 229 q 14 344 14 292 m 60 338 q 65 290 60 306 q 119 253 82 253 q 140 268 135 253 q 151 336 146 283 q 158 444 158 396 q 138 475 158 475 q 89 430 118 475 q 60 338 60 385 z "},"x":{"ha":660,"x_min":28,"x_max":618,"o":"m 28 32 q 76 89 28 89 q 108 82 92 89 q 136 75 125 75 q 199 128 158 75 q 269 236 240 182 l 299 289 q 286 327 299 292 q 256 408 274 363 q 226 471 239 453 q 194 493 213 493 q 152 472 165 493 q 132 431 139 451 q 114 410 125 410 q 94 458 94 410 q 104 506 94 475 q 129 558 114 538 q 166 592 143 578 q 204 606 189 606 q 265 572 236 606 q 310 496 294 538 q 340 420 326 454 q 358 386 354 386 q 379 421 361 386 q 422 497 397 456 q 485 574 446 539 q 567 608 525 608 q 603 591 588 608 q 618 551 618 574 q 606 515 618 531 q 571 500 593 500 q 538 505 557 500 q 511 510 518 510 q 425 434 482 510 q 368 343 368 358 q 407 247 368 333 q 476 97 446 160 q 546 42 504 42 q 571 43 554 42 q 593 44 588 44 q 613 28 613 44 q 577 -6 613 4 q 521 -17 542 -17 q 463 -10 489 -17 q 424 3 438 -4 q 399 25 410 11 q 384 48 388 39 q 376 72 381 57 q 369 90 371 88 q 347 153 361 113 q 324 213 332 194 q 311 231 317 231 q 278 168 310 231 q 192 42 247 106 q 78 -21 136 -21 q 42 -6 56 -21 q 28 32 28 10 z "},"y":{"ha":565,"x_min":10,"x_max":525,"o":"m 10 -174 q 23 -142 10 -156 q 54 -128 36 -128 q 111 -151 81 -128 q 175 -174 142 -174 q 288 -83 229 -174 q 347 57 347 8 q 259 309 347 125 q 121 493 171 493 q 72 467 86 493 q 51 415 57 442 q 28 389 44 389 q 14 419 14 389 q 24 492 14 454 q 60 565 33 531 q 126 599 88 599 q 224 537 172 599 q 313 401 276 475 q 376 266 349 328 q 408 204 404 204 q 440 290 422 204 q 458 446 458 376 q 441 500 458 467 q 424 551 424 533 q 435 588 424 572 q 471 603 447 603 q 510 582 494 603 q 525 529 525 561 q 495 340 525 471 q 410 68 465 208 q 125 -256 282 -256 q 10 -174 10 -256 z "},"z":{"ha":568,"x_min":28,"x_max":542,"o":"m 28 22 q 40 44 28 32 q 376 411 376 389 q 371 417 376 415 q 281 456 322 438 q 223 482 240 474 q 191 497 206 490 q 171 504 176 503 q 158 506 165 506 q 130 490 143 506 q 117 461 117 475 q 128 423 117 443 q 140 400 140 403 q 124 388 140 388 q 105 398 117 388 q 82 433 93 408 q 71 486 71 457 q 104 563 71 529 q 179 597 138 597 q 276 565 213 597 q 358 525 340 532 q 446 503 421 503 q 476 544 467 503 q 510 585 486 585 q 532 578 522 585 q 542 558 542 571 q 513 513 542 546 l 244 214 q 196 154 196 160 q 213 132 196 146 q 256 98 231 118 q 294 64 282 78 q 342 -1 314 43 q 390 -72 369 -44 q 425 -99 411 -99 q 466 -61 450 -99 q 510 -24 482 -24 q 532 -34 524 -24 q 540 -56 540 -44 q 499 -110 540 -86 q 400 -135 457 -135 q 363 -128 382 -135 q 329 -110 343 -121 q 300 -86 315 -100 q 276 -62 285 -72 q 260 -42 268 -53 l 251 -31 q 129 68 167 68 q 92 34 121 68 q 49 0 63 0 q 35 7 42 0 q 28 22 28 14 z "},"{":{"ha":369,"x_min":72,"x_max":421,"o":"m 72 -243 q 102 22 72 -233 q 132 289 132 278 q 113 331 132 313 q 94 365 94 350 q 122 407 94 390 q 150 446 149 424 q 178 733 160 540 q 206 1019 196 926 q 232 1044 207 1044 q 269 1039 244 1044 q 311 1033 294 1033 q 364 1038 338 1033 q 399 1042 390 1042 q 421 1029 421 1042 q 371 974 421 997 q 283 951 321 951 q 272 939 272 951 q 213 397 242 668 q 172 -8 185 126 q 158 -147 158 -143 q 172 -156 158 -153 q 210 -166 186 -160 q 250 -182 233 -172 q 289 -235 289 -208 q 278 -251 289 -251 q 263 -248 276 -251 q 228 -242 250 -244 q 185 -239 207 -239 q 120 -249 146 -239 q 86 -258 94 -258 q 72 -243 72 -258 z "},"|":{"ha":290,"x_min":108,"x_max":182,"o":"m 108 -121 q 113 315 108 -17 q 117 792 117 647 q 117 906 117 853 q 116 988 117 958 q 115 1025 115 1018 q 123 1051 115 1043 q 150 1058 131 1058 q 174 1051 168 1058 q 181 1024 181 1043 q 180 1009 181 1019 q 179 992 179 999 q 180 958 179 985 q 181 882 181 931 q 182 776 182 833 q 178 392 182 667 q 175 14 175 117 q 176 -190 175 -121 q 177 -206 176 -193 q 178 -226 178 -218 l 178 -237 q 154 -290 178 -290 q 116 -276 124 -290 q 108 -206 108 -262 l 108 -121 z "},"}":{"ha":369,"x_min":-49,"x_max":299,"o":"m -49 -242 q 3 -182 -49 -210 q 47 -166 21 -172 q 87 -156 72 -160 q 101 -146 101 -151 q 128 97 119 21 q 140 196 138 174 q 160 385 143 218 q 215 940 176 551 q 207 951 215 951 q 129 972 172 951 q 86 1024 86 992 q 111 1042 86 1042 q 145 1038 119 1042 q 197 1033 171 1033 q 240 1039 214 1033 q 279 1044 267 1044 q 299 1024 299 1044 q 266 731 299 1011 q 233 440 233 450 q 253 408 233 421 q 274 376 274 394 q 248 333 274 354 q 219 281 222 311 q 179 -124 197 81 q 167 -240 171 -222 q 150 -258 164 -258 q 119 -249 142 -258 q 57 -239 96 -239 q 13 -242 35 -239 q -24 -248 -10 -244 q -39 -251 -37 -251 q -49 -242 -49 -251 z "},"~":{"ha":528,"x_min":40,"x_max":488,"o":"m 40 239 q 60 274 40 244 q 115 336 79 304 q 186 368 151 368 q 267 337 218 368 q 349 306 317 306 q 402 322 378 306 q 440 356 426 339 q 460 374 454 374 q 488 353 488 374 q 467 317 488 346 q 406 258 446 289 q 325 228 365 228 q 241 260 286 228 q 168 292 196 292 q 118 273 140 292 q 84 235 96 254 q 68 217 72 217 q 40 239 40 217 z "},"":{"ha":296,"x_min":0,"x_max":0,"o":""},"":{"ha":346,"x_min":94,"x_max":340,"o":"m 94 29 q 100 72 94 49 q 119 154 106 94 q 144 304 132 214 q 203 640 168 475 q 213 658 204 649 q 232 668 221 668 q 250 644 250 668 q 247 607 250 638 l 211 67 q 211 56 211 65 q 210 42 211 46 q 208 29 210 39 q 204 15 207 19 q 197 4 201 11 q 185 -6 192 -3 q 167 -12 178 -10 q 144 -15 157 -15 q 94 29 94 -15 m 169 861 q 211 917 169 878 q 256 954 249 954 q 299 922 272 954 q 317 903 304 915 q 335 882 329 890 q 340 868 340 874 q 326 845 340 861 q 304 824 311 829 q 280 803 294 817 q 256 783 265 789 q 238 778 247 778 q 227 783 232 778 q 212 801 222 788 q 194 824 201 815 q 169 861 169 851 z "},"":{"ha":581,"x_min":44,"x_max":532,"o":"m 44 221 q 108 440 44 340 q 278 578 172 540 q 302 585 290 582 q 317 589 314 589 q 325 592 321 589 q 330 601 329 596 q 332 618 331 606 l 338 668 q 358 682 338 682 q 389 668 389 682 q 385 636 389 664 q 381 606 381 608 q 399 594 381 596 q 453 588 418 593 q 514 568 488 583 q 528 538 528 558 q 503 424 525 424 q 489 431 494 424 q 478 448 483 438 q 454 476 474 458 q 403 513 435 494 q 381 522 385 522 q 369 494 372 522 l 321 63 q 320 60 321 61 q 319 57 319 58 q 342 43 319 43 q 428 61 388 43 q 492 97 468 79 q 519 115 515 115 q 532 103 532 115 q 510 66 532 92 q 438 10 488 40 q 328 -26 388 -19 q 324 -26 326 -26 q 308 -37 310 -28 q 306 -65 307 -43 q 300 -126 303 -100 q 271 -142 299 -142 q 251 -125 251 -142 q 256 -76 251 -117 q 260 -33 260 -35 q 258 -28 260 -29 q 251 -26 256 -26 q 238 -26 246 -26 q 216 -23 231 -26 q 185 -12 201 -19 q 44 221 44 40 m 146 276 q 157 198 146 235 q 183 137 168 161 q 215 94 199 113 q 244 68 232 76 q 263 60 257 60 q 272 81 271 60 l 321 519 l 321 529 q 317 538 321 536 q 301 539 314 539 q 198 463 250 539 q 146 276 146 388 z "},"":{"ha":736,"x_min":28,"x_max":710,"o":"m 28 51 q 52 113 28 86 q 125 139 76 139 q 170 132 147 139 q 208 117 193 125 q 225 110 222 110 q 238 129 229 113 q 255 175 247 146 q 263 232 263 204 q 222 432 263 294 q 219 440 221 435 q 211 458 215 454 q 193 463 207 463 q 157 462 190 463 q 89 461 124 461 q 74 483 74 461 q 94 521 74 521 l 171 521 q 193 524 193 521 q 188 548 193 525 q 176 608 182 571 q 171 681 171 644 q 258 916 171 833 q 463 999 344 999 q 605 961 544 999 q 665 865 665 924 q 642 810 665 835 q 604 785 618 785 q 588 798 593 785 q 575 838 582 811 q 560 882 568 865 q 510 931 544 913 q 435 949 476 949 q 383 941 408 949 q 330 914 358 933 q 284 852 301 894 q 267 750 267 810 q 306 550 267 686 q 315 527 311 532 q 328 522 319 522 l 526 522 q 553 506 553 522 q 547 475 553 485 q 536 464 542 465 q 518 463 531 463 l 361 463 q 332 457 332 463 q 337 435 332 456 q 347 381 342 414 q 351 317 351 347 q 332 206 351 263 q 298 124 313 149 q 278 93 283 99 q 454 69 357 69 q 563 92 515 69 q 633 140 611 114 q 672 188 656 165 q 694 210 689 210 q 710 192 710 210 q 697 142 710 175 q 658 71 683 110 q 588 4 633 32 q 486 -24 542 -24 q 235 38 378 -24 q 211 24 229 38 q 164 -3 193 10 q 99 -15 135 -15 q 46 4 64 -15 q 28 51 28 24 m 76 58 q 88 35 76 46 q 117 24 100 24 q 164 40 140 24 q 192 65 188 57 q 163 79 188 71 q 117 88 138 88 q 76 58 76 88 z "},"":{"ha":732,"x_min":28,"x_max":704,"o":"m 28 61 q 53 103 28 78 l 147 199 q 93 364 93 269 q 146 526 93 456 l 53 622 q 28 664 28 647 q 39 691 28 681 q 64 701 50 701 q 107 676 82 701 l 203 581 q 365 635 275 635 q 529 581 456 635 l 625 676 q 667 700 649 700 q 694 689 683 700 q 704 664 704 678 q 679 622 704 647 l 583 525 q 640 361 640 447 q 583 200 640 276 l 679 103 q 704 61 704 78 q 692 34 704 44 q 667 24 681 24 q 625 49 650 24 l 529 144 q 365 90 457 90 q 203 143 274 90 l 107 49 q 64 25 83 25 q 38 36 47 25 q 28 61 28 47 m 228 502 q 200 473 228 502 q 172 361 172 443 q 229 223 172 279 q 365 167 286 167 q 502 224 444 167 q 560 363 560 282 q 502 502 560 443 q 365 561 444 561 q 228 502 285 561 z "},"":{"ha":958,"x_min":28,"x_max":932,"o":"m 28 972 q 74 992 28 992 q 136 989 82 992 q 203 986 190 986 q 267 989 219 986 q 326 992 315 992 q 368 971 368 992 q 333 944 368 957 q 299 913 299 932 q 302 882 299 897 q 317 840 306 867 q 342 788 329 813 q 381 706 354 763 q 433 599 408 650 q 440 584 436 592 q 444 574 443 576 q 447 569 446 572 q 451 565 449 565 q 455 563 453 564 q 461 563 457 563 l 521 563 q 530 563 528 563 q 535 565 532 563 q 539 569 538 567 q 544 577 540 571 q 553 590 549 583 q 601 657 557 594 q 694 800 646 719 q 742 908 742 881 q 726 936 742 928 q 692 944 711 944 q 658 949 674 943 q 643 969 643 954 q 679 989 643 989 q 713 988 686 989 q 753 986 740 986 q 828 988 785 986 q 896 990 871 990 q 932 969 932 990 q 917 954 932 961 q 878 938 901 947 q 843 915 856 929 q 788 844 825 896 q 697 714 750 792 q 621 604 644 636 q 612 592 617 599 q 604 583 607 586 q 599 576 601 579 q 594 570 596 572 q 593 567 593 568 q 722 563 593 563 q 738 539 738 563 q 717 503 738 503 l 597 503 q 569 502 579 503 q 551 501 558 501 q 539 497 543 500 q 533 492 535 493 q 527 482 531 490 q 521 469 524 474 q 498 401 507 446 q 489 343 489 357 q 503 335 489 335 q 613 335 546 335 q 682 336 679 336 q 710 318 710 336 q 701 282 710 290 q 672 274 692 274 l 497 274 q 483 272 485 274 q 481 253 482 269 q 468 110 468 121 q 499 56 468 82 q 533 38 514 43 q 567 31 553 32 q 590 26 581 31 q 600 11 600 21 q 599 1 600 4 q 592 -6 597 -3 q 574 -8 586 -8 q 504 -3 567 -8 q 417 1 442 1 q 347 -4 381 1 q 300 -10 313 -10 q 263 8 263 -10 q 268 22 263 17 q 279 30 274 28 q 297 34 285 32 q 315 38 310 36 q 343 62 335 43 q 357 124 351 81 q 375 256 375 250 q 367 270 375 267 q 332 274 360 274 q 210 274 246 274 q 174 275 175 275 q 158 297 158 275 q 178 335 158 335 l 357 335 q 383 337 379 335 q 388 353 386 339 q 389 363 389 358 q 392 390 389 368 q 394 419 394 413 q 376 478 394 436 q 363 500 367 499 q 344 501 358 501 l 213 501 q 191 506 196 501 q 186 519 186 510 q 194 556 186 549 q 222 563 203 563 l 317 563 q 333 567 333 563 q 332 570 333 568 q 328 577 331 572 q 322 586 325 582 l 215 792 q 93 944 146 928 q 70 947 89 946 q 40 953 51 947 q 28 972 28 958 z "},"":{"ha":289,"x_min":108,"x_max":181,"o":"m 108 -206 q 109 -165 108 -187 q 110 -114 110 -143 q 110 8 110 -85 q 111 244 111 101 q 147 279 111 279 q 171 272 165 279 q 176 244 176 264 q 176 -11 176 89 q 177 -141 176 -111 q 178 -194 178 -171 q 178 -237 178 -218 q 154 -290 178 -290 q 116 -276 124 -290 q 108 -206 108 -262 m 115 575 l 115 1025 q 123 1051 115 1043 q 150 1058 131 1058 q 174 1051 168 1058 q 181 1024 181 1043 l 181 543 q 158 490 181 490 q 122 503 128 490 q 115 575 115 517 z "},"":{"ha":753,"x_min":82,"x_max":671,"o":"m 82 17 q 104 56 82 56 q 114 53 110 56 q 121 46 118 51 q 125 37 124 40 q 128 23 126 33 q 132 8 131 13 q 152 -50 140 -22 q 187 -112 164 -78 q 246 -168 210 -147 q 328 -189 282 -189 q 484 -140 422 -189 q 546 -24 546 -90 q 501 50 546 18 q 394 106 457 82 q 267 160 331 131 q 160 240 204 189 q 115 358 115 290 q 131 448 115 407 q 170 513 147 489 q 216 554 193 538 q 255 580 239 571 q 271 592 271 589 q 247 611 271 596 q 198 660 222 626 q 174 744 174 694 q 252 924 174 847 q 449 1000 331 1000 q 558 981 510 1000 q 611 963 606 963 q 626 967 614 963 q 643 972 638 972 q 664 958 664 972 q 667 867 664 933 q 671 783 671 801 q 650 731 671 731 q 629 751 636 731 q 617 801 622 772 q 590 865 613 829 q 528 924 568 900 q 422 949 485 949 q 303 900 346 949 q 260 801 260 851 q 302 726 260 757 q 404 672 344 694 q 524 623 464 650 q 626 546 583 596 q 668 425 668 496 q 656 335 668 376 q 626 267 643 293 q 590 223 608 242 q 560 194 572 204 q 547 182 547 183 q 558 172 547 179 q 586 144 569 164 q 613 90 603 124 q 622 29 622 54 q 540 -162 622 -74 q 311 -251 457 -251 q 211 -242 253 -251 q 115 -199 169 -232 q 90 -111 99 -189 q 82 17 82 -33 m 251 518 q 226 497 251 518 q 200 415 200 475 q 263 313 200 356 q 386 253 288 294 q 493 213 485 213 q 552 263 514 213 q 590 365 590 313 q 587 393 590 379 q 578 418 583 407 q 563 440 574 429 q 546 459 553 451 q 524 476 539 467 q 502 490 510 485 q 478 502 494 494 q 456 513 461 510 q 435 522 451 515 q 417 529 418 529 q 328 561 344 561 q 251 518 303 561 z "},"":{"ha":610,"x_min":169,"x_max":510,"o":"m 169 818 q 194 862 169 835 q 239 889 218 889 q 276 867 258 889 q 294 824 294 844 q 268 776 294 803 q 231 750 242 750 q 188 774 206 750 q 169 818 169 797 m 383 818 q 408 862 383 835 q 454 889 433 889 q 492 867 474 889 q 510 824 510 844 q 483 776 510 803 q 444 750 456 750 q 401 774 419 750 q 383 818 383 797 z "},"":{"ha":1106,"x_min":61,"x_max":1050,"o":"m 61 465 q 205 815 61 668 q 556 961 349 961 q 906 815 761 961 q 1050 465 1050 668 q 907 117 1050 264 q 554 -29 764 -29 q 207 115 353 -29 q 61 465 61 258 m 119 465 q 249 156 119 283 q 556 29 378 29 q 863 156 733 29 q 992 467 992 282 q 865 772 992 643 q 554 901 739 901 q 246 773 372 901 q 119 465 119 644 m 228 447 q 315 683 228 589 q 557 776 401 776 q 663 761 610 776 q 748 731 717 746 q 781 715 779 715 q 788 719 783 715 q 797 724 792 724 q 808 721 804 724 q 815 708 813 718 q 817 688 817 699 q 820 654 818 678 q 826 608 822 631 q 829 586 829 589 q 811 565 829 565 q 792 581 800 565 q 557 729 710 729 q 386 665 453 729 q 319 497 319 601 q 333 402 319 449 q 374 308 346 356 q 461 232 403 261 q 599 203 519 203 q 788 313 710 203 q 802 340 796 325 q 813 360 808 356 q 829 365 817 365 q 839 354 839 365 q 822 239 839 319 q 804 219 819 225 q 766 201 793 214 q 724 181 739 188 q 683 167 708 175 q 632 155 658 158 q 576 151 606 151 q 423 175 489 151 q 321 231 357 199 q 263 308 285 264 q 234 384 240 351 q 228 447 228 417 z "},"":{"ha":468,"x_min":28,"x_max":456,"o":"m 28 649 q 97 818 28 728 q 267 908 167 908 q 308 903 282 908 q 351 899 335 899 q 375 919 358 899 q 400 940 392 940 q 410 924 410 940 q 408 910 410 918 q 401 889 406 901 q 394 867 397 876 q 385 821 393 864 q 368 726 376 778 q 360 656 360 674 q 368 625 360 639 q 385 611 376 611 q 418 638 399 611 q 446 665 438 665 q 456 653 456 665 q 418 586 456 626 q 358 546 381 546 q 330 553 342 546 q 313 574 318 561 q 304 597 307 586 q 299 620 301 607 q 297 636 297 633 l 288 626 q 269 610 278 617 q 247 592 261 603 q 219 572 233 581 q 190 556 206 564 q 156 543 174 547 q 119 539 138 539 q 47 568 65 539 q 28 649 28 597 m 92 654 q 110 609 92 626 q 158 592 128 592 q 219 608 190 592 q 261 638 249 624 q 281 664 274 653 q 309 761 293 686 q 325 853 325 836 q 264 881 325 881 q 200 863 233 881 q 146 815 167 844 q 92 654 92 726 z "},"":{"ha":488,"x_min":28,"x_max":433,"o":"m 28 299 q 38 315 28 306 q 244 485 240 485 q 256 476 250 485 q 261 460 261 467 q 192 380 261 451 q 124 301 124 308 q 176 222 124 292 q 228 143 228 151 q 219 126 228 136 q 204 117 211 117 q 114 204 200 117 q 33 289 67 254 q 28 299 28 294 m 199 299 q 207 315 199 307 q 415 485 410 485 q 427 476 421 485 q 433 460 433 467 q 364 380 433 451 q 294 301 294 308 q 346 221 294 293 q 397 142 397 149 q 390 127 397 138 q 375 117 382 117 q 310 179 369 117 q 204 289 251 240 q 199 299 199 294 z "},"":{"ha":706,"x_min":29,"x_max":676,"o":"m 29 299 q 56 322 29 322 l 649 322 q 672 318 667 322 q 676 296 676 314 l 676 76 q 656 56 676 56 q 632 56 639 56 q 619 63 625 57 q 614 83 614 69 l 614 238 q 578 261 614 261 l 57 261 q 38 265 44 261 q 31 276 32 269 q 29 299 29 283 z "},"":{"ha":392,"x_min":54,"x_max":338,"o":"m 54 257 q 66 288 54 275 q 115 313 78 301 q 204 341 165 328 q 258 360 243 354 q 284 369 272 365 q 307 372 296 372 q 338 342 338 372 q 337 322 338 329 q 333 308 336 315 q 326 299 329 301 q 313 291 324 296 q 295 284 303 286 q 268 276 288 282 q 233 264 249 269 q 168 240 199 251 q 125 223 138 228 q 100 215 113 218 q 78 211 88 211 q 54 257 54 211 z "},"":{"ha":664,"x_min":40,"x_max":624,"o":"m 40 758 q 125 966 40 881 q 329 1051 210 1051 q 538 966 451 1051 q 624 758 624 881 q 538 553 624 639 q 329 468 451 468 q 125 553 210 468 q 40 758 40 639 m 82 758 q 156 585 82 658 q 329 513 229 513 q 506 585 432 513 q 581 758 581 658 q 506 935 581 861 q 329 1008 432 1008 q 156 935 229 1008 q 82 758 82 861 m 171 914 q 188 926 171 926 l 219 926 q 290 928 260 926 q 325 929 321 929 q 411 908 376 929 q 446 840 446 886 q 430 798 446 814 q 399 776 414 782 q 383 769 383 771 q 388 763 383 768 q 401 747 393 757 q 414 729 410 738 q 465 651 433 694 q 494 631 482 631 l 497 631 q 503 632 501 632 q 510 626 510 632 q 501 611 510 619 q 475 603 493 603 q 438 613 456 603 q 378 691 417 625 q 328 760 339 757 l 293 760 q 281 756 283 760 q 279 729 279 751 q 283 660 279 685 q 315 628 290 633 q 340 617 340 624 q 331 608 340 608 q 296 610 329 608 q 260 611 263 611 q 221 610 244 611 l 197 608 q 188 618 188 608 q 205 628 188 624 q 225 656 222 632 q 226 701 226 669 l 226 735 q 227 822 226 783 q 228 868 228 861 q 186 904 228 904 q 171 914 171 904 m 279 828 q 283 790 279 800 q 299 781 286 781 q 310 780 306 781 q 318 779 314 779 q 376 792 360 779 q 392 839 392 804 q 370 883 392 860 q 303 906 349 906 q 283 900 288 906 q 279 874 279 894 l 279 828 z "},"":{"ha":610,"x_min":174,"x_max":469,"o":"m 174 807 q 201 844 174 844 q 354 843 308 844 q 451 842 400 842 q 466 838 463 842 q 469 822 469 835 q 446 782 469 782 q 324 783 436 782 q 185 783 213 783 q 174 807 174 783 z "},"":{"ha":360,"x_min":42,"x_max":319,"o":"m 42 849 q 83 944 42 897 q 183 990 124 990 q 285 941 250 990 q 319 842 319 892 q 267 738 319 776 q 182 700 215 700 q 108 717 139 700 q 65 760 78 733 q 47 807 51 786 q 42 849 42 828 m 100 847 q 123 785 100 808 q 182 761 146 761 q 209 767 193 761 q 243 792 225 772 q 261 844 261 813 q 182 929 261 929 q 126 905 153 929 q 100 847 100 881 z "},"":{"ha":706,"x_min":29,"x_max":675,"o":"m 29 125 q 31 146 29 139 q 38 158 32 153 q 56 163 43 163 l 650 163 q 670 157 665 163 q 675 135 675 151 q 670 109 675 117 q 646 101 665 101 l 54 101 q 29 125 29 101 m 29 450 q 56 481 29 481 l 307 481 q 321 494 321 481 l 321 507 l 321 688 q 343 708 321 708 q 375 704 368 708 q 382 685 382 700 l 382 507 l 382 496 q 399 481 382 481 l 654 481 q 675 460 675 481 q 674 436 675 443 q 666 424 672 429 q 646 418 660 418 l 399 418 q 382 394 382 418 l 382 211 q 360 192 382 192 q 328 195 336 192 q 321 211 321 199 l 321 394 q 317 413 321 408 q 299 418 314 418 l 54 418 q 33 425 38 418 q 29 450 29 432 z "},"":{"ha":454,"x_min":51,"x_max":403,"o":"m 51 494 l 51 497 q 74 535 51 508 q 150 629 96 561 q 258 783 204 697 q 310 931 310 864 q 290 997 310 972 q 232 1022 269 1022 q 174 1001 199 1022 q 135 960 149 981 q 114 940 121 940 q 104 956 104 940 q 120 997 104 967 q 174 1058 136 1026 q 260 1089 213 1089 q 358 1055 314 1089 q 403 944 403 1021 q 365 835 403 899 q 283 723 328 772 q 200 630 238 674 q 163 574 163 586 q 186 569 163 569 q 267 571 236 569 q 317 579 299 572 q 342 589 336 586 q 358 607 347 592 q 372 626 368 622 q 386 636 381 636 q 394 626 394 636 q 363 549 394 613 q 311 486 331 486 q 219 488 260 486 q 167 489 178 489 q 120 488 157 489 q 72 486 83 486 q 51 494 51 486 z "},"":{"ha":454,"x_min":35,"x_max":386,"o":"m 75 497 q 55 504 75 497 q 35 532 35 511 q 51 553 35 553 q 64 546 56 553 q 93 533 72 539 q 147 526 114 526 q 255 575 213 526 q 297 681 297 624 q 268 754 297 725 q 181 783 239 783 q 165 782 172 783 q 154 780 158 781 q 149 779 150 779 q 138 794 138 779 q 142 802 138 800 q 171 815 147 804 q 225 844 194 825 q 299 960 299 890 q 276 1016 299 993 q 218 1039 254 1039 q 147 1018 183 1039 q 108 997 111 997 q 101 1004 101 997 q 147 1060 101 1029 q 250 1090 193 1090 q 345 1064 307 1090 q 383 986 383 1038 q 353 911 383 946 q 294 858 324 876 q 264 835 264 839 q 276 830 264 833 q 307 819 289 826 q 343 797 325 811 q 374 757 361 783 q 386 694 386 731 q 322 549 386 615 q 165 482 257 482 q 75 497 115 482 z "},"":{"ha":610,"x_min":260,"x_max":479,"o":"m 260 681 q 263 692 260 686 q 277 710 267 697 q 301 743 288 724 q 337 802 314 763 q 386 892 360 842 q 414 917 399 917 q 454 908 429 917 q 479 885 479 899 q 383 766 479 863 q 271 669 288 669 q 260 681 260 669 z "},"":{"ha":744,"x_min":14,"x_max":703,"o":"m 14 -203 q 27 -75 14 -140 q 67 83 40 -10 q 107 232 94 176 q 161 482 135 350 q 181 568 175 551 q 197 585 186 585 q 235 576 210 585 q 261 550 261 568 q 226 338 261 536 q 192 111 192 139 q 219 61 192 61 q 333 139 267 61 q 449 309 399 217 q 538 492 499 401 q 550 523 544 508 q 558 546 556 538 q 563 562 561 554 q 567 573 565 569 q 569 579 568 576 q 573 583 571 582 q 577 585 575 585 q 585 585 579 585 q 624 576 603 585 q 644 556 644 567 q 601 347 644 551 q 558 104 558 143 q 569 79 558 89 q 593 69 579 69 q 650 119 624 69 q 688 169 676 169 q 703 146 703 169 q 644 33 703 96 q 513 -29 586 -29 q 457 71 457 -29 q 470 190 457 107 q 483 275 483 274 q 481 283 483 283 q 463 259 476 283 q 415 183 450 235 q 335 82 381 132 q 244 6 293 36 q 156 -25 196 -25 q 122 -10 135 -25 q 103 19 108 4 q 97 35 99 35 q 88 8 94 35 q 75 -57 81 -19 q 69 -118 69 -94 q 88 -187 69 -144 q 106 -233 106 -229 q 94 -260 106 -244 q 56 -276 82 -276 q 14 -203 14 -276 z "},"":{"ha":674,"x_min":54,"x_max":619,"o":"m 54 658 q 103 840 54 760 q 217 956 153 919 q 343 993 282 993 q 435 994 379 993 q 517 994 490 994 q 553 996 528 994 q 594 997 579 997 l 610 997 q 616 992 613 997 q 619 985 619 988 q 610 970 619 975 q 583 958 600 965 q 557 940 567 951 q 529 849 536 919 q 489 490 514 708 q 450 131 464 271 q 353 -145 433 -33 q 161 -257 272 -257 q 78 -236 110 -257 q 71 -207 71 -232 q 89 -146 71 -183 q 119 -108 107 -108 q 132 -125 128 -108 q 140 -162 136 -142 q 160 -199 143 -182 q 208 -215 178 -215 q 333 147 303 -215 q 335 161 335 157 l 356 394 q 358 425 358 419 q 353 442 358 438 q 329 446 347 446 q 255 449 288 446 q 183 465 222 453 q 117 499 143 478 q 72 562 90 521 q 54 658 54 603 m 286 596 q 332 486 286 486 q 358 497 349 486 q 370 519 368 507 q 375 561 372 532 q 382 638 378 585 q 389 718 386 690 q 401 835 396 789 q 409 891 407 881 q 412 908 411 901 q 413 925 413 915 q 382 963 413 963 q 331 933 342 963 q 303 805 314 892 q 289 664 292 718 q 286 596 286 610 m 340 -71 q 349 -82 340 -82 q 368 -52 354 -82 q 399 38 382 -22 q 422 167 415 99 l 500 942 l 500 943 q 492 960 500 953 q 474 967 483 967 q 449 949 451 967 q 409 598 432 826 q 371 203 386 369 l 356 36 q 349 -19 353 3 q 344 -48 346 -40 q 342 -60 343 -56 q 340 -71 340 -65 z "},"":{"ha":418,"x_min":144,"x_max":267,"o":"m 144 461 q 170 503 144 472 q 213 533 196 533 q 249 507 232 533 q 267 460 267 481 q 242 413 267 440 q 206 386 217 386 q 167 417 189 386 q 144 461 144 449 z "},"":{"ha":610,"x_min":239,"x_max":375,"o":"z "},"":{"ha":454,"x_min":101,"x_max":379,"o":"m 101 506 q 128 526 101 526 l 139 526 q 174 535 161 526 q 190 550 188 543 q 193 561 193 557 q 208 690 199 588 q 225 881 218 792 l 232 969 q 210 1000 232 1000 q 181 995 200 1000 q 158 990 163 990 q 144 1003 144 990 q 157 1021 144 1015 q 188 1028 169 1026 q 235 1038 206 1029 q 289 1064 264 1047 q 301 1074 294 1068 q 313 1084 308 1081 q 326 1088 318 1088 q 333 1071 333 1088 q 333 1065 333 1069 q 303 810 325 1007 q 282 579 282 607 q 342 525 282 528 q 352 525 346 525 q 360 524 358 525 q 367 523 363 524 q 372 522 371 522 q 376 519 374 521 q 378 514 378 517 q 379 507 379 511 q 354 489 379 489 q 310 491 349 489 q 233 493 271 493 q 172 490 211 493 q 122 488 133 488 q 101 506 101 488 z "},"":{"ha":404,"x_min":28,"x_max":376,"o":"m 28 689 q 85 845 28 776 q 243 914 142 914 q 343 871 310 914 q 376 763 376 828 q 321 605 376 675 q 168 535 265 535 q 67 574 106 535 q 28 689 28 614 m 99 688 q 121 597 99 628 q 178 567 143 567 q 283 647 250 567 q 308 772 308 706 q 231 882 308 882 q 150 842 182 882 q 108 763 118 803 q 99 688 99 722 z "},"":{"ha":488,"x_min":54,"x_max":460,"o":"m 54 142 q 124 224 54 151 q 193 299 193 296 q 142 380 193 307 q 90 460 90 453 q 98 474 90 464 q 113 485 106 485 q 178 422 118 485 q 206 392 194 404 q 239 358 217 381 q 283 313 261 335 q 289 301 289 307 q 279 286 289 293 q 150 178 221 238 q 72 117 78 117 q 60 126 65 117 q 54 142 54 135 m 225 142 q 294 222 225 150 q 363 300 363 293 q 311 383 363 310 q 260 460 260 457 q 268 476 260 467 q 283 485 276 485 q 308 463 288 485 q 454 313 329 442 q 460 301 460 307 q 450 286 460 296 q 243 117 247 117 q 231 126 236 117 q 225 142 225 135 z "},"":{"ha":1214,"x_min":101,"x_max":1161,"o":"m 300 -100 q 355 -8 300 -93 q 499 213 410 78 q 668 467 589 349 q 835 717 747 586 q 933 864 922 847 q 940 874 933 865 q 956 893 947 883 q 971 903 965 903 q 987 897 978 903 q 996 885 996 890 q 983 856 996 876 q 375 -71 571 240 q 338 -124 343 -122 q 322 -126 329 -126 q 300 -100 300 -126 z "},"":{"ha":1214,"x_min":101,"x_max":1163,"o":"m 300 -100 q 355 -8 300 -93 q 499 213 410 78 q 668 467 589 349 q 835 717 747 586 q 933 864 922 847 q 940 874 933 865 q 956 893 947 883 q 971 903 965 903 q 987 897 978 903 q 996 885 996 890 q 983 856 996 876 q 375 -71 571 240 q 338 -124 343 -122 q 322 -126 329 -126 q 300 -100 300 -126 z "},"":{"ha":1214,"x_min":35,"x_max":1161,"o":"m 300 -100 q 355 -8 300 -93 q 499 213 410 78 q 668 467 589 349 q 835 717 747 586 q 933 864 922 847 q 940 874 933 865 q 956 893 947 883 q 971 903 965 903 q 987 897 978 903 q 996 885 996 890 q 983 856 996 876 q 375 -71 571 240 q 338 -124 343 -122 q 322 -126 329 -126 q 300 -100 300 -126 z "},"":{"ha":492,"x_min":72,"x_max":449,"o":"m 72 144 q 78 191 72 168 q 97 233 85 214 q 117 265 108 253 q 140 293 126 278 q 156 311 153 308 q 187 350 167 325 q 216 386 207 375 q 241 417 225 397 q 263 448 257 438 q 281 475 269 458 q 297 503 292 492 q 306 527 301 514 q 313 553 311 540 q 315 578 315 565 q 313 602 315 586 q 311 624 311 618 q 324 638 311 638 q 358 547 358 638 q 313 417 358 497 q 221 261 267 336 q 175 150 175 186 q 212 76 175 107 q 288 44 249 44 q 341 58 314 44 q 376 71 368 71 q 388 63 388 71 q 343 12 388 43 q 247 -19 299 -19 q 126 26 181 -19 q 72 144 72 72 m 300 792 q 268 835 268 828 q 274 849 268 842 q 295 868 281 856 q 315 885 310 881 q 361 926 357 926 q 370 924 365 926 q 380 918 375 922 q 388 910 385 914 q 397 899 390 907 q 406 889 403 892 q 424 869 413 881 q 442 851 436 858 q 449 838 449 843 q 400 789 449 825 q 378 769 389 781 q 360 753 367 757 q 343 749 353 749 q 337 750 340 749 q 329 756 333 751 q 322 765 325 761 q 312 778 318 769 q 300 792 306 786 z "},"":{"ha":1071,"x_min":28,"x_max":1044,"o":"m 515 1247 q 544 1274 515 1264 q 588 1283 574 1283 q 610 1258 601 1283 q 653 1137 632 1186 q 683 1072 675 1088 q 692 1050 692 1056 q 678 1036 692 1036 q 589 1129 663 1036 q 515 1247 515 1222 m 28 13 q 63 42 28 31 q 85 52 76 47 q 103 65 93 57 q 124 90 114 74 q 148 128 135 107 q 182 189 161 150 q 228 272 203 228 q 292 388 253 317 q 374 538 331 460 q 483 731 418 617 q 618 969 547 846 q 634 993 629 989 q 650 997 639 997 q 666 988 661 997 q 686 924 671 978 q 697 885 693 900 q 710 839 701 869 q 728 778 718 808 q 842 418 760 671 q 933 142 925 165 q 969 66 957 81 q 1022 39 982 51 q 1044 11 1044 32 q 1001 -3 1044 -3 q 959 -1 986 -3 q 911 1 932 1 q 847 -2 886 1 q 782 -6 808 -6 q 744 10 744 -6 q 759 31 744 22 q 790 42 774 39 q 822 57 807 44 q 836 90 836 69 q 825 158 836 114 q 799 251 814 201 q 779 318 783 301 q 750 356 772 349 q 728 358 740 358 q 667 358 721 358 q 560 357 613 357 q 419 359 454 357 q 374 361 385 361 q 325 340 336 361 q 257 213 286 272 q 217 127 228 154 q 207 96 207 100 q 231 49 207 61 q 278 34 254 38 q 301 17 301 31 q 300 5 301 10 q 295 -1 299 0 q 290 -3 292 -3 q 281 -3 288 -3 q 225 -2 251 -3 q 184 -1 199 -1 q 160 0 169 0 q 115 -1 147 0 q 56 -3 83 -3 q 28 13 28 -3 m 376 433 q 422 422 376 422 q 446 422 428 422 q 528 423 464 422 q 711 424 593 424 q 727 427 722 424 q 733 434 732 431 q 733 444 733 438 q 673 644 733 461 q 600 828 613 828 q 485 633 593 828 q 376 433 376 439 z "},"":{"ha":1071,"x_min":28,"x_max":1044,"o":"m 593 1047 q 597 1058 593 1053 q 610 1077 600 1064 q 634 1110 621 1090 q 670 1169 647 1129 q 719 1258 693 1208 q 747 1283 732 1283 q 788 1274 763 1283 q 813 1251 813 1265 q 717 1133 813 1229 q 604 1036 621 1036 q 593 1047 593 1036 m 28 13 q 63 42 28 31 q 85 52 76 47 q 103 65 93 57 q 124 90 114 74 q 148 128 135 107 q 182 189 161 150 q 228 272 203 228 q 292 388 253 317 q 374 538 331 460 q 483 731 418 617 q 618 969 547 846 q 634 993 629 989 q 650 997 639 997 q 666 988 661 997 q 686 924 671 978 q 697 885 693 900 q 710 839 701 869 q 728 778 718 808 q 842 418 760 671 q 933 142 925 165 q 969 66 957 81 q 1022 39 982 51 q 1044 11 1044 32 q 1001 -3 1044 -3 q 959 -1 986 -3 q 911 1 932 1 q 847 -2 886 1 q 782 -6 808 -6 q 744 10 744 -6 q 759 31 744 22 q 790 42 774 39 q 822 57 807 44 q 836 90 836 69 q 825 158 836 114 q 799 251 814 201 q 779 318 783 301 q 750 356 772 349 q 728 358 740 358 q 667 358 721 358 q 560 357 613 357 q 419 359 454 357 q 374 361 385 361 q 325 340 336 361 q 257 213 286 272 q 217 127 228 154 q 207 96 207 100 q 231 49 207 61 q 278 34 254 38 q 301 17 301 31 q 300 5 301 10 q 295 -1 299 0 q 290 -3 292 -3 q 281 -3 288 -3 q 225 -2 251 -3 q 184 -1 199 -1 q 160 0 169 0 q 115 -1 147 0 q 56 -3 83 -3 q 28 13 28 -3 m 376 433 q 422 422 376 422 q 446 422 428 422 q 528 423 464 422 q 711 424 593 424 q 727 427 722 424 q 733 434 732 431 q 733 444 733 438 q 673 644 733 461 q 600 828 613 828 q 485 633 593 828 q 376 433 376 439 z "},"":{"ha":1071,"x_min":28,"x_max":1044,"o":"m 492 1060 q 497 1069 492 1061 q 538 1122 519 1097 q 569 1165 557 1147 q 592 1197 582 1182 q 608 1222 603 1213 q 619 1240 614 1232 q 628 1253 625 1249 q 633 1260 631 1257 q 638 1263 636 1263 q 644 1264 640 1264 l 681 1264 q 700 1250 694 1264 q 745 1163 719 1208 q 785 1092 771 1117 q 799 1061 799 1067 q 788 1053 799 1053 q 719 1112 776 1053 q 656 1171 661 1171 q 577 1113 644 1171 q 501 1054 510 1054 q 492 1060 492 1054 m 28 13 q 63 42 28 31 q 85 52 76 47 q 103 65 93 57 q 124 90 114 74 q 148 128 135 107 q 182 189 161 150 q 228 272 203 228 q 292 388 253 317 q 374 538 331 460 q 483 731 418 617 q 618 969 547 846 q 634 993 629 989 q 650 997 639 997 q 666 988 661 997 q 686 924 671 978 q 697 885 693 900 q 710 839 701 869 q 728 778 718 808 q 842 418 760 671 q 933 142 925 165 q 969 66 957 81 q 1022 39 982 51 q 1044 11 1044 32 q 1001 -3 1044 -3 q 959 -1 986 -3 q 911 1 932 1 q 847 -2 886 1 q 782 -6 808 -6 q 744 10 744 -6 q 759 31 744 22 q 790 42 774 39 q 822 57 807 44 q 836 90 836 69 q 825 158 836 114 q 799 251 814 201 q 779 318 783 301 q 750 356 772 349 q 728 358 740 358 q 667 358 721 358 q 560 357 613 357 q 419 359 454 357 q 374 361 385 361 q 325 340 336 361 q 257 213 286 272 q 217 127 228 154 q 207 96 207 100 q 231 49 207 61 q 278 34 254 38 q 301 17 301 31 q 300 5 301 10 q 295 -1 299 0 q 290 -3 292 -3 q 281 -3 288 -3 q 225 -2 251 -3 q 184 -1 199 -1 q 160 0 169 0 q 115 -1 147 0 q 56 -3 83 -3 q 28 13 28 -3 m 376 433 q 422 422 376 422 q 446 422 428 422 q 528 423 464 422 q 711 424 593 424 q 727 427 722 424 q 733 434 732 431 q 733 444 733 438 q 673 644 733 461 q 600 828 613 828 q 485 633 593 828 q 376 433 376 439 z "},"":{"ha":1071,"x_min":28,"x_max":1044,"o":"m 446 1108 q 501 1188 446 1131 q 594 1246 557 1246 q 676 1213 626 1246 q 761 1179 726 1179 q 801 1199 783 1179 q 832 1238 819 1218 q 853 1257 844 1257 q 865 1242 865 1257 q 810 1162 865 1217 q 718 1107 756 1107 q 632 1140 683 1107 q 551 1174 581 1174 q 510 1153 529 1174 q 478 1114 492 1133 q 457 1094 465 1094 q 446 1108 446 1094 m 28 13 q 63 42 28 31 q 85 52 76 47 q 103 65 93 57 q 124 90 114 74 q 148 128 135 107 q 182 189 161 150 q 228 272 203 228 q 292 388 253 317 q 374 538 331 460 q 483 731 418 617 q 618 969 547 846 q 634 993 629 989 q 650 997 639 997 q 666 988 661 997 q 686 924 671 978 q 697 885 693 900 q 710 839 701 869 q 728 778 718 808 q 842 418 760 671 q 933 142 925 165 q 969 66 957 81 q 1022 39 982 51 q 1044 11 1044 32 q 1001 -3 1044 -3 q 959 -1 986 -3 q 911 1 932 1 q 847 -2 886 1 q 782 -6 808 -6 q 744 10 744 -6 q 759 31 744 22 q 790 42 774 39 q 822 57 807 44 q 836 90 836 69 q 825 158 836 114 q 799 251 814 201 q 779 318 783 301 q 750 356 772 349 q 728 358 740 358 q 667 358 721 358 q 560 357 613 357 q 419 359 454 357 q 374 361 385 361 q 325 340 336 361 q 257 213 286 272 q 217 127 228 154 q 207 96 207 100 q 231 49 207 61 q 278 34 254 38 q 301 17 301 31 q 300 5 301 10 q 295 -1 299 0 q 290 -3 292 -3 q 281 -3 288 -3 q 225 -2 251 -3 q 184 -1 199 -1 q 160 0 169 0 q 115 -1 147 0 q 56 -3 83 -3 q 28 13 28 -3 m 376 433 q 422 422 376 422 q 446 422 428 422 q 528 423 464 422 q 711 424 593 424 q 727 427 722 424 q 733 434 732 431 q 733 444 733 438 q 673 644 733 461 q 600 828 613 828 q 485 633 593 828 q 376 433 376 439 z "},"":{"ha":1071,"x_min":28,"x_max":1044,"o":"m 503 1185 q 527 1228 503 1201 q 572 1256 551 1256 q 610 1233 592 1256 q 628 1190 628 1211 q 601 1143 628 1169 q 564 1117 575 1117 q 521 1140 539 1117 q 503 1185 503 1164 m 717 1185 q 742 1228 717 1201 q 788 1256 767 1256 q 825 1233 807 1256 q 843 1190 843 1211 q 816 1143 843 1169 q 778 1117 789 1117 q 735 1140 753 1117 q 717 1185 717 1164 m 28 13 q 63 42 28 31 q 85 52 76 47 q 103 65 93 57 q 124 90 114 74 q 148 128 135 107 q 182 189 161 150 q 228 272 203 228 q 292 388 253 317 q 374 538 331 460 q 483 731 418 617 q 618 969 547 846 q 634 993 629 989 q 650 997 639 997 q 666 988 661 997 q 686 924 671 978 q 697 885 693 900 q 710 839 701 869 q 728 778 718 808 q 842 418 760 671 q 933 142 925 165 q 969 66 957 81 q 1022 39 982 51 q 1044 11 1044 32 q 1001 -3 1044 -3 q 959 -1 986 -3 q 911 1 932 1 q 847 -2 886 1 q 782 -6 808 -6 q 744 10 744 -6 q 759 31 744 22 q 790 42 774 39 q 822 57 807 44 q 836 90 836 69 q 825 158 836 114 q 799 251 814 201 q 779 318 783 301 q 750 356 772 349 q 728 358 740 358 q 667 358 721 358 q 560 357 613 357 q 419 359 454 357 q 374 361 385 361 q 325 340 336 361 q 257 213 286 272 q 217 127 228 154 q 207 96 207 100 q 231 49 207 61 q 278 34 254 38 q 301 17 301 31 q 300 5 301 10 q 295 -1 299 0 q 290 -3 292 -3 q 281 -3 288 -3 q 225 -2 251 -3 q 184 -1 199 -1 q 160 0 169 0 q 115 -1 147 0 q 56 -3 83 -3 q 28 13 28 -3 m 376 433 q 422 422 376 422 q 446 422 428 422 q 528 423 464 422 q 711 424 593 424 q 727 427 722 424 q 733 434 732 431 q 733 444 733 438 q 673 644 733 461 q 600 828 613 828 q 485 633 593 828 q 376 433 376 439 z "},"":{"ha":1071,"x_min":28,"x_max":1044,"o":"m 554 1172 q 591 1256 554 1219 q 671 1292 628 1292 q 738 1260 715 1292 q 760 1193 760 1229 q 717 1109 760 1140 q 647 1078 674 1078 q 574 1107 594 1078 q 554 1172 554 1136 m 600 1178 q 614 1140 600 1154 q 651 1125 628 1125 q 692 1142 669 1125 q 714 1193 714 1158 q 664 1243 714 1243 q 622 1225 643 1243 q 600 1178 600 1207 m 28 13 q 63 42 28 31 q 85 52 76 47 q 103 65 93 57 q 124 90 114 74 q 148 128 135 107 q 182 189 161 150 q 228 272 203 228 q 292 388 253 317 q 374 538 331 460 q 483 731 418 617 q 618 969 547 846 q 634 993 629 989 q 650 997 639 997 q 666 988 661 997 q 686 924 671 978 q 697 885 693 900 q 710 839 701 869 q 728 778 718 808 q 842 418 760 671 q 933 142 925 165 q 969 66 957 81 q 1022 39 982 51 q 1044 11 1044 32 q 1001 -3 1044 -3 q 959 -1 986 -3 q 911 1 932 1 q 847 -2 886 1 q 782 -6 808 -6 q 744 10 744 -6 q 759 31 744 22 q 790 42 774 39 q 822 57 807 44 q 836 90 836 69 q 825 158 836 114 q 799 251 814 201 q 779 318 783 301 q 750 356 772 349 q 728 358 740 358 q 667 358 721 358 q 560 357 613 357 q 419 359 454 357 q 374 361 385 361 q 325 340 336 361 q 257 213 286 272 q 217 127 228 154 q 207 96 207 100 q 231 49 207 61 q 278 34 254 38 q 301 17 301 31 q 300 5 301 10 q 295 -1 299 0 q 290 -3 292 -3 q 281 -3 288 -3 q 225 -2 251 -3 q 184 -1 199 -1 q 160 0 169 0 q 115 -1 147 0 q 56 -3 83 -3 q 28 13 28 -3 m 376 433 q 422 422 376 422 q 446 422 428 422 q 528 423 464 422 q 711 424 593 424 q 727 427 722 424 q 733 434 732 431 q 733 444 733 438 q 673 644 733 461 q 600 828 613 828 q 485 633 593 828 q 376 433 376 439 z "},"":{"ha":1497,"x_min":28,"x_max":1476,"o":"m 28 10 q 67 42 28 26 q 94 54 83 47 q 118 73 106 61 q 151 111 131 85 q 196 171 171 138 q 267 267 221 204 q 367 403 314 331 q 509 592 421 475 q 697 839 597 710 l 751 908 q 758 926 758 919 q 716 943 758 942 q 674 960 674 944 q 706 979 674 979 l 856 979 q 967 978 875 979 q 1132 976 1058 976 q 1297 980 1161 976 q 1453 983 1433 983 q 1476 956 1476 983 q 1474 925 1476 949 q 1472 883 1472 901 q 1474 849 1472 874 q 1476 808 1476 824 q 1472 781 1476 794 q 1458 768 1467 768 q 1442 778 1446 768 q 1438 801 1438 788 q 1432 837 1438 815 q 1411 875 1426 858 q 1392 890 1406 882 q 1343 908 1378 899 q 1265 918 1308 918 q 1153 920 1214 918 q 1050 922 1092 922 q 976 909 989 922 q 953 829 964 896 q 918 547 918 586 q 928 530 918 533 q 978 526 938 526 q 1200 533 1157 526 q 1261 561 1243 539 q 1280 590 1272 575 q 1290 613 1288 604 q 1297 628 1293 622 q 1307 633 1301 633 q 1325 617 1325 633 q 1313 550 1325 603 q 1297 472 1301 497 q 1294 418 1294 457 q 1290 357 1294 379 q 1272 335 1285 335 q 1257 358 1257 335 q 1233 442 1257 425 q 1085 471 1194 471 q 1017 471 1043 471 q 985 472 992 471 q 974 472 978 472 q 965 472 969 472 q 913 447 914 472 q 895 323 908 406 q 872 176 882 240 q 863 103 863 113 q 895 61 863 69 q 1038 53 928 53 q 1238 74 1156 53 q 1351 121 1321 96 q 1401 167 1381 146 q 1429 189 1421 189 q 1443 171 1443 189 q 1384 60 1443 133 q 1281 -14 1325 -14 q 1032 -7 1181 -14 q 853 0 883 0 q 772 -1 814 0 q 696 -3 729 -3 q 647 17 647 -3 q 656 28 647 22 q 679 36 664 35 q 747 88 731 39 q 794 350 763 138 q 765 358 783 358 q 708 358 758 358 q 608 357 658 357 q 478 359 510 357 q 436 361 446 361 q 388 340 403 361 q 294 213 335 272 q 238 127 254 154 q 221 96 222 100 q 219 78 219 89 q 255 40 219 49 q 290 21 290 32 q 283 1 290 6 q 256 -3 276 -3 q 212 -1 249 -3 q 147 0 175 0 q 106 -1 136 0 q 50 -3 76 -3 q 28 10 28 -3 m 457 433 q 496 422 457 422 q 532 422 500 422 q 635 423 564 422 q 806 424 706 424 l 843 754 q 851 818 846 785 q 858 869 856 851 q 860 897 860 888 q 842 924 860 924 q 797 888 828 924 q 587 610 717 783 q 457 433 457 438 z "},"":{"ha":1058,"x_min":54,"x_max":990,"o":"m 54 433 q 88 633 54 536 q 185 810 121 729 q 356 938 250 890 q 594 986 461 986 q 760 960 679 986 q 886 907 840 933 l 931 881 q 945 892 935 881 q 961 903 956 903 q 978 881 978 903 q 980 779 978 821 q 984 723 982 738 q 988 696 986 708 q 990 674 990 683 q 971 640 990 640 q 954 651 961 640 q 937 692 947 663 q 921 736 926 722 q 885 802 904 779 q 833 847 867 825 q 572 933 707 933 q 353 863 447 933 q 216 688 260 793 q 172 464 172 583 q 285 140 172 260 q 553 19 397 19 q 853 163 726 19 q 883 210 869 181 q 907 258 897 240 q 929 275 917 275 q 951 250 951 275 q 948 226 951 240 q 938 193 944 213 q 928 164 931 174 q 917 121 922 144 q 909 88 913 97 q 896 74 906 79 q 525 -32 694 -32 q 316 7 408 -32 q 167 112 224 46 q 83 260 111 178 q 54 433 54 342 z "},"":{"ha":876,"x_min":28,"x_max":857,"o":"m 410 1247 q 439 1274 410 1264 q 482 1283 468 1283 q 504 1258 496 1283 q 548 1137 526 1186 q 578 1072 569 1088 q 586 1050 586 1056 q 572 1036 586 1036 q 483 1129 557 1036 q 410 1247 410 1222 m 28 19 q 58 39 28 38 q 126 90 108 42 q 154 226 135 115 q 165 299 154 231 q 182 411 176 367 l 232 832 q 233 861 233 844 q 217 919 233 900 q 181 939 200 938 q 144 945 161 940 q 128 963 128 950 q 160 983 128 983 q 217 983 172 983 q 341 981 263 982 q 511 981 419 981 q 676 983 540 981 q 832 986 813 986 q 857 960 857 986 q 854 928 857 953 q 851 886 851 904 q 853 851 851 876 q 856 811 856 826 q 838 772 856 772 q 821 782 825 772 q 817 806 817 792 q 811 840 817 819 q 790 878 806 861 q 771 893 785 885 q 722 912 757 901 q 644 922 688 922 q 532 924 592 922 q 431 926 472 926 q 356 913 369 926 q 332 832 343 899 q 297 550 297 589 q 306 533 297 536 q 357 531 315 531 q 580 536 538 531 q 640 564 622 542 q 663 600 654 581 q 675 628 671 619 q 688 636 679 636 q 704 621 704 636 q 692 556 704 608 q 676 476 681 504 q 674 422 674 461 q 669 361 674 383 q 651 339 664 339 q 636 361 636 339 q 613 444 636 428 q 464 474 572 474 q 397 474 422 474 q 365 474 371 474 q 354 475 358 475 q 346 475 350 475 q 292 451 293 475 q 274 327 288 410 q 251 181 261 244 q 242 107 242 117 q 275 65 242 74 q 417 56 308 56 q 617 77 535 56 q 730 124 700 99 q 780 172 760 150 q 808 193 800 193 q 822 174 822 193 q 764 63 822 136 q 661 -11 706 -11 q 412 -3 561 -11 q 232 4 263 4 q 151 2 193 4 q 76 0 110 0 q 28 19 28 0 z "},"":{"ha":876,"x_min":28,"x_max":857,"o":"m 488 1047 q 491 1058 488 1053 q 505 1077 494 1064 q 528 1110 515 1090 q 565 1169 542 1129 q 614 1258 588 1208 q 642 1283 626 1283 q 682 1274 657 1283 q 707 1251 707 1265 q 611 1133 707 1229 q 499 1036 515 1036 q 488 1047 488 1036 m 28 19 q 58 39 28 38 q 126 90 108 42 q 154 226 135 115 q 165 299 154 231 q 182 411 176 367 l 232 832 q 233 861 233 844 q 217 919 233 900 q 181 939 200 938 q 144 945 161 940 q 128 963 128 950 q 160 983 128 983 q 217 983 172 983 q 341 981 263 982 q 511 981 419 981 q 676 983 540 981 q 832 986 813 986 q 857 960 857 986 q 854 928 857 953 q 851 886 851 904 q 853 851 851 876 q 856 811 856 826 q 838 772 856 772 q 821 782 825 772 q 817 806 817 792 q 811 840 817 819 q 790 878 806 861 q 771 893 785 885 q 722 912 757 901 q 644 922 688 922 q 532 924 592 922 q 431 926 472 926 q 356 913 369 926 q 332 832 343 899 q 297 550 297 589 q 306 533 297 536 q 357 531 315 531 q 580 536 538 531 q 640 564 622 542 q 663 600 654 581 q 675 628 671 619 q 688 636 679 636 q 704 621 704 636 q 692 556 704 608 q 676 476 681 504 q 674 422 674 461 q 669 361 674 383 q 651 339 664 339 q 636 361 636 339 q 613 444 636 428 q 464 474 572 474 q 397 474 422 474 q 365 474 371 474 q 354 475 358 475 q 346 475 350 475 q 292 451 293 475 q 274 327 288 410 q 251 181 261 244 q 242 107 242 117 q 275 65 242 74 q 417 56 308 56 q 617 77 535 56 q 730 124 700 99 q 780 172 760 150 q 808 193 800 193 q 822 174 822 193 q 764 63 822 136 q 661 -11 706 -11 q 412 -3 561 -11 q 232 4 263 4 q 151 2 193 4 q 76 0 110 0 q 28 19 28 0 z "},"":{"ha":876,"x_min":28,"x_max":857,"o":"m 386 1060 q 392 1069 386 1061 q 433 1122 414 1097 q 464 1165 451 1147 q 487 1197 476 1182 q 503 1222 497 1213 q 514 1240 508 1232 q 522 1253 519 1249 q 528 1260 525 1257 q 533 1263 531 1263 q 539 1264 535 1264 l 575 1264 q 594 1250 589 1264 q 640 1163 614 1208 q 679 1092 665 1117 q 693 1061 693 1067 q 682 1053 693 1053 q 613 1112 671 1053 q 550 1171 556 1171 q 472 1113 539 1171 q 396 1054 404 1054 q 386 1060 386 1054 m 28 19 q 58 39 28 38 q 126 90 108 42 q 154 226 135 115 q 165 299 154 231 q 182 411 176 367 l 232 832 q 233 861 233 844 q 217 919 233 900 q 181 939 200 938 q 144 945 161 940 q 128 963 128 950 q 160 983 128 983 q 217 983 172 983 q 341 981 263 982 q 511 981 419 981 q 676 983 540 981 q 832 986 813 986 q 857 960 857 986 q 854 928 857 953 q 851 886 851 904 q 853 851 851 876 q 856 811 856 826 q 838 772 856 772 q 821 782 825 772 q 817 806 817 792 q 811 840 817 819 q 790 878 806 861 q 771 893 785 885 q 722 912 757 901 q 644 922 688 922 q 532 924 592 922 q 431 926 472 926 q 356 913 369 926 q 332 832 343 899 q 297 550 297 589 q 306 533 297 536 q 357 531 315 531 q 580 536 538 531 q 640 564 622 542 q 663 600 654 581 q 675 628 671 619 q 688 636 679 636 q 704 621 704 636 q 692 556 704 608 q 676 476 681 504 q 674 422 674 461 q 669 361 674 383 q 651 339 664 339 q 636 361 636 339 q 613 444 636 428 q 464 474 572 474 q 397 474 422 474 q 365 474 371 474 q 354 475 358 475 q 346 475 350 475 q 292 451 293 475 q 274 327 288 410 q 251 181 261 244 q 242 107 242 117 q 275 65 242 74 q 417 56 308 56 q 617 77 535 56 q 730 124 700 99 q 780 172 760 150 q 808 193 800 193 q 822 174 822 193 q 764 63 822 136 q 661 -11 706 -11 q 412 -3 561 -11 q 232 4 263 4 q 151 2 193 4 q 76 0 110 0 q 28 19 28 0 z "},"":{"ha":876,"x_min":28,"x_max":857,"o":"m 397 1185 q 422 1228 397 1201 q 467 1256 446 1256 q 504 1233 486 1256 q 522 1190 522 1211 q 496 1143 522 1169 q 458 1117 469 1117 q 415 1140 433 1117 q 397 1185 397 1164 m 611 1185 q 636 1228 611 1201 q 682 1256 661 1256 q 719 1233 701 1256 q 738 1190 738 1211 q 710 1143 738 1169 q 672 1117 683 1117 q 629 1140 647 1117 q 611 1185 611 1164 m 28 19 q 58 39 28 38 q 126 90 108 42 q 154 226 135 115 q 165 299 154 231 q 182 411 176 367 l 232 832 q 233 861 233 844 q 217 919 233 900 q 181 939 200 938 q 144 945 161 940 q 128 963 128 950 q 160 983 128 983 q 217 983 172 983 q 341 981 263 982 q 511 981 419 981 q 676 983 540 981 q 832 986 813 986 q 857 960 857 986 q 854 928 857 953 q 851 886 851 904 q 853 851 851 876 q 856 811 856 826 q 838 772 856 772 q 821 782 825 772 q 817 806 817 792 q 811 840 817 819 q 790 878 806 861 q 771 893 785 885 q 722 912 757 901 q 644 922 688 922 q 532 924 592 922 q 431 926 472 926 q 356 913 369 926 q 332 832 343 899 q 297 550 297 589 q 306 533 297 536 q 357 531 315 531 q 580 536 538 531 q 640 564 622 542 q 663 600 654 581 q 675 628 671 619 q 688 636 679 636 q 704 621 704 636 q 692 556 704 608 q 676 476 681 504 q 674 422 674 461 q 669 361 674 383 q 651 339 664 339 q 636 361 636 339 q 613 444 636 428 q 464 474 572 474 q 397 474 422 474 q 365 474 371 474 q 354 475 358 475 q 346 475 350 475 q 292 451 293 475 q 274 327 288 410 q 251 181 261 244 q 242 107 242 117 q 275 65 242 74 q 417 56 308 56 q 617 77 535 56 q 730 124 700 99 q 780 172 760 150 q 808 193 800 193 q 822 174 822 193 q 764 63 822 136 q 661 -11 706 -11 q 412 -3 561 -11 q 232 4 263 4 q 151 2 193 4 q 76 0 110 0 q 28 19 28 0 z "},"":{"ha":451,"x_min":28,"x_max":425,"o":"m 144 1247 q 174 1274 144 1264 q 217 1283 203 1283 q 239 1258 231 1283 q 283 1137 261 1186 q 313 1072 304 1088 q 321 1050 321 1056 q 307 1036 321 1036 q 218 1129 292 1036 q 144 1247 144 1222 m 28 15 q 36 29 28 25 q 55 34 44 33 q 79 42 65 35 q 103 63 93 49 q 124 110 121 89 q 152 332 126 136 q 199 692 178 528 q 219 860 219 857 q 196 913 219 896 q 137 935 172 931 q 100 940 101 939 q 89 957 89 944 q 126 978 89 978 q 183 972 142 978 q 269 967 225 967 q 347 971 303 967 q 400 975 390 975 q 425 956 425 975 q 412 942 425 946 q 380 934 399 939 q 353 919 361 929 q 313 757 325 888 q 275 453 296 600 q 243 231 254 306 q 232 138 232 157 q 236 86 232 107 q 251 56 240 65 q 267 42 261 46 q 290 35 274 38 q 311 31 307 32 q 324 28 317 29 q 335 26 331 26 q 344 24 340 25 q 351 19 349 22 q 353 13 353 17 q 349 -1 353 3 q 340 -6 344 -6 q 324 -7 336 -7 q 267 -3 318 -7 q 183 1 217 1 q 126 -3 163 1 q 76 -7 90 -7 q 28 15 28 -7 z "},"":{"ha":451,"x_min":28,"x_max":442,"o":"m 222 1047 q 226 1058 222 1053 q 240 1077 229 1064 q 263 1110 250 1090 q 299 1169 276 1129 q 349 1258 322 1208 q 376 1283 361 1283 q 417 1274 392 1283 q 442 1251 442 1265 q 346 1133 442 1229 q 233 1036 250 1036 q 222 1047 222 1036 m 28 15 q 36 29 28 25 q 55 34 44 33 q 79 42 65 35 q 103 63 93 49 q 124 110 121 89 q 152 332 126 136 q 199 692 178 528 q 219 860 219 857 q 196 913 219 896 q 137 935 172 931 q 100 940 101 939 q 89 957 89 944 q 126 978 89 978 q 183 972 142 978 q 269 967 225 967 q 347 971 303 967 q 400 975 390 975 q 425 956 425 975 q 412 942 425 946 q 380 934 399 939 q 353 919 361 929 q 313 757 325 888 q 275 453 296 600 q 243 231 254 306 q 232 138 232 157 q 236 86 232 107 q 251 56 240 65 q 267 42 261 46 q 290 35 274 38 q 311 31 307 32 q 324 28 317 29 q 335 26 331 26 q 344 24 340 25 q 351 19 349 22 q 353 13 353 17 q 349 -1 353 3 q 340 -6 344 -6 q 324 -7 336 -7 q 267 -3 318 -7 q 183 1 217 1 q 126 -3 163 1 q 76 -7 90 -7 q 28 15 28 -7 z "},"":{"ha":451,"x_min":28,"x_max":428,"o":"m 121 1060 q 126 1069 121 1061 q 167 1122 149 1097 q 199 1165 186 1147 q 222 1197 211 1182 q 238 1222 232 1213 q 249 1240 243 1232 q 257 1253 254 1249 q 263 1260 260 1257 q 267 1263 265 1263 q 274 1264 269 1264 l 310 1264 q 329 1250 324 1264 q 374 1163 349 1208 q 414 1092 400 1117 q 428 1061 428 1067 q 417 1053 428 1053 q 348 1112 406 1053 q 285 1171 290 1171 q 206 1113 274 1171 q 131 1054 139 1054 q 121 1060 121 1054 m 28 15 q 36 29 28 25 q 55 34 44 33 q 79 42 65 35 q 103 63 93 49 q 124 110 121 89 q 152 332 126 136 q 199 692 178 528 q 219 860 219 857 q 196 913 219 896 q 137 935 172 931 q 100 940 101 939 q 89 957 89 944 q 126 978 89 978 q 183 972 142 978 q 269 967 225 967 q 347 971 303 967 q 400 975 390 975 q 425 956 425 975 q 412 942 425 946 q 380 934 399 939 q 353 919 361 929 q 313 757 325 888 q 275 453 296 600 q 243 231 254 306 q 232 138 232 157 q 236 86 232 107 q 251 56 240 65 q 267 42 261 46 q 290 35 274 38 q 311 31 307 32 q 324 28 317 29 q 335 26 331 26 q 344 24 340 25 q 351 19 349 22 q 353 13 353 17 q 349 -1 353 3 q 340 -6 344 -6 q 324 -7 336 -7 q 267 -3 318 -7 q 183 1 217 1 q 126 -3 163 1 q 76 -7 90 -7 q 28 15 28 -7 z "},"":{"ha":451,"x_min":28,"x_max":472,"o":"m 132 1185 q 156 1228 132 1201 q 201 1256 181 1256 q 239 1233 221 1256 q 257 1190 257 1211 q 231 1143 257 1169 q 193 1117 204 1117 q 150 1140 168 1117 q 132 1185 132 1164 m 346 1185 q 371 1228 346 1201 q 417 1256 396 1256 q 454 1233 436 1256 q 472 1190 472 1211 q 445 1143 472 1169 q 407 1117 418 1117 q 364 1140 382 1117 q 346 1185 346 1164 m 28 15 q 36 29 28 25 q 55 34 44 33 q 79 42 65 35 q 103 63 93 49 q 124 110 121 89 q 152 332 126 136 q 199 692 178 528 q 219 860 219 857 q 196 913 219 896 q 137 935 172 931 q 100 940 101 939 q 89 957 89 944 q 126 978 89 978 q 183 972 142 978 q 269 967 225 967 q 347 971 303 967 q 400 975 390 975 q 425 956 425 975 q 412 942 425 946 q 380 934 399 939 q 353 919 361 929 q 313 757 325 888 q 275 453 296 600 q 243 231 254 306 q 232 138 232 157 q 236 86 232 107 q 251 56 240 65 q 267 42 261 46 q 290 35 274 38 q 311 31 307 32 q 324 28 317 29 q 335 26 331 26 q 344 24 340 25 q 351 19 349 22 q 353 13 353 17 q 349 -1 353 3 q 340 -6 344 -6 q 324 -7 336 -7 q 267 -3 318 -7 q 183 1 217 1 q 126 -3 163 1 q 76 -7 90 -7 q 28 15 28 -7 z "},"":{"ha":1065,"x_min":28,"x_max":1018,"o":"m 28 18 q 39 34 28 29 q 65 41 50 39 q 96 58 79 43 q 122 101 113 72 q 140 205 128 118 q 164 369 153 292 l 174 449 q 169 464 174 461 q 151 467 164 467 l 82 467 q 64 497 64 467 q 69 519 64 510 q 79 528 74 528 q 126 526 90 528 q 172 525 163 525 q 185 530 183 525 q 190 564 188 535 l 229 856 q 232 881 232 878 q 213 919 232 901 q 169 938 193 936 q 106 968 106 942 q 149 993 106 993 q 213 985 172 993 q 289 978 254 978 q 385 985 324 978 q 506 992 447 992 q 894 881 769 992 q 1018 600 1018 771 q 910 258 1018 425 q 822 155 879 210 q 728 79 764 100 q 414 0 597 0 q 321 2 378 0 q 199 4 264 4 q 108 -1 150 4 q 58 -7 65 -7 q 37 1 46 -7 q 28 18 28 8 m 239 99 q 253 60 239 74 q 306 47 267 47 l 428 47 q 572 76 489 47 q 711 157 654 106 q 806 276 767 208 q 862 408 846 343 q 884 518 878 474 q 890 599 890 563 q 881 685 890 643 q 843 774 871 728 q 772 855 815 821 q 656 911 729 889 q 490 933 583 933 q 379 922 404 933 q 339 857 354 911 q 323 763 335 843 q 303 608 311 682 l 293 535 q 311 525 293 525 q 435 527 336 525 q 543 529 533 529 q 560 497 560 529 q 549 468 560 468 q 494 467 540 468 q 408 467 447 467 l 306 467 q 288 463 290 467 q 282 442 285 460 l 272 358 q 250 188 261 274 q 239 99 239 103 z "},"":{"ha":1117,"x_min":28,"x_max":1090,"o":"m 394 1108 q 450 1188 394 1131 q 543 1246 506 1246 q 625 1213 575 1246 q 710 1179 675 1179 q 750 1199 732 1179 q 781 1238 768 1218 q 801 1257 793 1257 q 814 1242 814 1257 q 759 1162 814 1217 q 667 1107 704 1107 q 581 1140 632 1107 q 500 1174 529 1174 q 459 1153 478 1174 q 427 1114 440 1133 q 406 1094 414 1094 q 394 1108 394 1094 m 28 8 q 33 19 28 15 q 47 26 39 24 q 66 32 54 28 q 86 44 78 36 q 106 65 97 54 q 122 95 115 76 q 133 128 129 114 q 144 177 138 143 q 153 235 150 211 q 165 313 157 258 q 179 406 174 367 q 194 495 182 425 q 212 607 206 565 q 224 704 218 649 q 231 793 231 760 q 228 826 231 811 q 222 850 225 842 q 210 870 219 858 q 197 885 200 882 q 180 902 194 889 q 163 918 165 915 q 114 935 146 933 q 60 940 82 938 q 39 960 39 942 q 132 986 39 986 q 160 984 140 986 q 190 982 181 982 q 210 983 193 982 q 232 983 226 983 q 244 983 239 983 q 253 980 249 982 q 260 976 258 978 q 268 969 263 975 q 276 958 274 963 q 287 944 279 954 q 300 925 294 933 q 785 221 629 469 q 821 176 813 176 q 888 494 847 176 q 929 856 929 811 q 912 915 929 894 q 873 940 894 936 q 834 951 851 943 q 817 975 817 958 q 851 989 817 989 q 897 986 857 989 q 957 983 936 983 q 1017 986 990 983 q 1054 989 1044 989 q 1083 985 1076 989 q 1090 969 1090 981 q 1088 963 1090 965 q 1081 958 1086 960 q 1071 955 1075 956 q 1060 952 1067 954 q 1049 949 1053 950 q 994 889 1011 938 q 967 747 978 840 q 858 29 908 257 q 849 5 857 18 q 829 -8 840 -8 q 808 4 819 -8 q 776 50 797 17 q 730 126 756 83 q 655 245 704 168 q 549 403 606 322 q 463 525 504 467 q 401 613 422 583 q 361 668 379 643 q 335 706 343 693 q 322 728 326 719 q 300 744 314 744 q 274 679 281 744 q 229 347 258 525 q 200 110 200 168 q 254 39 200 56 q 270 35 260 38 q 286 31 281 32 q 299 26 292 29 q 308 19 306 24 q 311 10 311 15 q 288 -7 311 -7 q 251 -5 281 -7 q 149 -3 222 -3 q 92 -5 121 -3 q 58 -7 64 -7 q 28 8 28 -7 z "},"":{"ha":1132,"x_min":54,"x_max":1078,"o":"m 479 1247 q 508 1274 479 1264 q 551 1283 538 1283 q 574 1258 565 1283 q 617 1137 596 1186 q 647 1072 639 1088 q 656 1050 656 1056 q 642 1036 656 1036 q 553 1129 626 1036 q 479 1247 479 1222 m 54 436 q 91 638 54 539 q 196 817 128 736 q 370 946 264 897 q 603 994 476 994 q 815 955 721 994 q 964 849 908 915 q 1049 699 1019 782 q 1078 522 1078 615 q 1045 328 1078 424 q 949 152 1013 233 q 782 22 886 71 q 547 -28 678 -28 q 190 100 325 -28 q 54 436 54 228 m 174 482 q 288 145 174 268 q 557 22 401 22 q 772 99 678 22 q 910 288 865 175 q 956 528 956 401 q 926 724 956 650 q 798 890 886 828 q 583 953 710 953 q 404 908 485 953 q 275 792 324 863 q 200 640 226 721 q 174 482 174 560 z "},"":{"ha":1132,"x_min":54,"x_max":1078,"o":"m 557 1047 q 560 1058 557 1053 q 574 1077 564 1064 q 598 1110 585 1090 q 634 1169 611 1129 q 683 1258 657 1208 q 711 1283 696 1283 q 751 1274 726 1283 q 776 1251 776 1265 q 681 1133 776 1229 q 568 1036 585 1036 q 557 1047 557 1036 m 54 436 q 91 638 54 539 q 196 817 128 736 q 370 946 264 897 q 603 994 476 994 q 815 955 721 994 q 964 849 908 915 q 1049 699 1019 782 q 1078 522 1078 615 q 1045 328 1078 424 q 949 152 1013 233 q 782 22 886 71 q 547 -28 678 -28 q 190 100 325 -28 q 54 436 54 228 m 174 482 q 288 145 174 268 q 557 22 401 22 q 772 99 678 22 q 910 288 865 175 q 956 528 956 401 q 926 724 956 650 q 798 890 886 828 q 583 953 710 953 q 404 908 485 953 q 275 792 324 863 q 200 640 226 721 q 174 482 174 560 z "},"":{"ha":1132,"x_min":54,"x_max":1078,"o":"m 456 1060 q 461 1069 456 1061 q 502 1122 483 1097 q 533 1165 521 1147 q 556 1197 546 1182 q 572 1222 567 1213 q 583 1240 578 1232 q 592 1253 589 1249 q 597 1260 594 1257 q 602 1263 600 1263 q 608 1264 604 1264 l 644 1264 q 664 1250 658 1264 q 709 1163 683 1208 q 749 1092 735 1117 q 763 1061 763 1067 q 751 1053 763 1053 q 683 1112 740 1053 q 619 1171 625 1171 q 541 1113 608 1171 q 465 1054 474 1054 q 456 1060 456 1054 m 54 436 q 91 638 54 539 q 196 817 128 736 q 370 946 264 897 q 603 994 476 994 q 815 955 721 994 q 964 849 908 915 q 1049 699 1019 782 q 1078 522 1078 615 q 1045 328 1078 424 q 949 152 1013 233 q 782 22 886 71 q 547 -28 678 -28 q 190 100 325 -28 q 54 436 54 228 m 174 482 q 288 145 174 268 q 557 22 401 22 q 772 99 678 22 q 910 288 865 175 q 956 528 956 401 q 926 724 956 650 q 798 890 886 828 q 583 953 710 953 q 404 908 485 953 q 275 792 324 863 q 200 640 226 721 q 174 482 174 560 z "},"":{"ha":1132,"x_min":54,"x_max":1078,"o":"m 410 1108 q 465 1188 410 1131 q 558 1246 521 1246 q 640 1213 590 1246 q 725 1179 690 1179 q 765 1199 747 1179 q 796 1238 783 1218 q 817 1257 808 1257 q 829 1242 829 1257 q 774 1162 829 1217 q 682 1107 719 1107 q 596 1140 647 1107 q 515 1174 544 1174 q 474 1153 493 1174 q 442 1114 456 1133 q 421 1094 429 1094 q 410 1108 410 1094 m 54 436 q 91 638 54 539 q 196 817 128 736 q 370 946 264 897 q 603 994 476 994 q 815 955 721 994 q 964 849 908 915 q 1049 699 1019 782 q 1078 522 1078 615 q 1045 328 1078 424 q 949 152 1013 233 q 782 22 886 71 q 547 -28 678 -28 q 190 100 325 -28 q 54 436 54 228 m 174 482 q 288 145 174 268 q 557 22 401 22 q 772 99 678 22 q 910 288 865 175 q 956 528 956 401 q 926 724 956 650 q 798 890 886 828 q 583 953 710 953 q 404 908 485 953 q 275 792 324 863 q 200 640 226 721 q 174 482 174 560 z "},"":{"ha":1132,"x_min":54,"x_max":1078,"o":"m 467 1185 q 491 1228 467 1201 q 536 1256 515 1256 q 574 1233 556 1256 q 592 1190 592 1211 q 565 1143 592 1169 q 528 1117 539 1117 q 485 1140 503 1117 q 467 1185 467 1164 m 681 1185 q 706 1228 681 1201 q 751 1256 731 1256 q 789 1233 771 1256 q 807 1190 807 1211 q 780 1143 807 1169 q 742 1117 753 1117 q 699 1140 717 1117 q 681 1185 681 1164 m 54 436 q 91 638 54 539 q 196 817 128 736 q 370 946 264 897 q 603 994 476 994 q 815 955 721 994 q 964 849 908 915 q 1049 699 1019 782 q 1078 522 1078 615 q 1045 328 1078 424 q 949 152 1013 233 q 782 22 886 71 q 547 -28 678 -28 q 190 100 325 -28 q 54 436 54 228 m 174 482 q 288 145 174 268 q 557 22 401 22 q 772 99 678 22 q 910 288 865 175 q 956 528 956 401 q 926 724 956 650 q 798 890 886 828 q 583 953 710 953 q 404 908 485 953 q 275 792 324 863 q 200 640 226 721 q 174 482 174 560 z "},"":{"ha":706,"x_min":110,"x_max":596,"o":"m 110 85 q 121 103 110 92 l 288 271 q 300 292 300 283 q 290 310 300 300 l 118 482 q 110 497 110 490 q 124 519 110 506 q 147 533 139 533 q 167 522 156 533 l 328 363 q 354 346 344 346 q 371 353 364 346 l 544 526 q 560 535 553 535 q 581 521 567 535 q 596 499 596 507 q 582 478 596 492 l 414 310 q 404 292 404 300 q 414 275 404 285 l 586 103 q 596 86 596 93 q 581 63 596 78 q 558 49 565 49 q 542 58 551 49 l 371 231 q 351 240 361 240 q 329 225 344 240 l 164 58 q 146 49 154 49 q 124 63 139 49 q 110 85 110 76 z "},"":{"ha":1132,"x_min":54,"x_max":1078,"o":"m 54 436 q 91 638 54 539 q 196 817 128 736 q 370 946 264 897 q 603 994 476 994 q 669 991 638 994 q 721 983 700 988 q 757 975 742 979 q 781 967 772 971 q 792 964 790 964 q 808 988 796 964 l 857 1074 q 883 1094 869 1094 q 906 1086 892 1094 q 919 1067 919 1078 q 917 1056 919 1064 l 864 964 q 858 954 861 958 q 854 947 856 950 q 851 943 853 944 q 850 940 850 942 l 863 933 q 895 910 875 925 q 940 872 915 894 q 988 816 964 850 q 1033 741 1013 782 q 1065 643 1053 700 q 1078 522 1078 586 q 1045 328 1078 424 q 949 152 1013 233 q 782 22 886 71 q 547 -28 678 -28 q 469 -24 507 -28 q 406 -12 432 -19 q 361 1 381 -6 q 331 11 342 7 q 319 15 321 15 q 299 -18 317 15 l 232 -133 q 210 -154 218 -154 q 185 -144 199 -154 q 171 -126 171 -135 q 175 -110 171 -117 l 246 10 l 264 42 q 242 58 264 43 q 190 101 221 72 q 128 172 160 131 q 76 284 97 214 q 54 436 54 354 m 174 482 q 188 351 174 413 q 221 249 201 289 q 260 180 240 210 q 294 137 281 150 q 310 124 308 124 q 332 158 314 124 l 749 883 q 763 910 763 907 q 738 924 763 914 q 669 944 713 935 q 583 953 625 953 q 404 908 485 953 q 275 792 324 863 q 200 640 226 721 q 174 482 174 560 m 358 86 q 385 65 358 79 q 461 36 413 50 q 557 22 510 22 q 772 99 678 22 q 910 288 865 175 q 956 528 956 401 q 844 851 956 739 q 815 876 819 876 q 804 860 814 876 q 385 132 531 385 q 358 86 358 88 z "},"":{"ha":1149,"x_min":61,"x_max":1121,"o":"m 504 1247 q 533 1274 504 1264 q 576 1283 563 1283 q 599 1258 590 1283 q 642 1137 621 1186 q 672 1072 664 1088 q 681 1050 681 1056 q 667 1036 681 1036 q 578 1129 651 1036 q 504 1247 504 1222 m 61 964 q 85 983 61 983 q 133 979 85 983 q 243 975 182 975 q 296 979 256 975 q 368 983 336 983 q 396 964 396 983 q 381 945 396 951 q 349 936 367 939 q 315 914 332 933 q 296 860 299 894 q 273 653 289 788 q 248 425 257 519 q 239 267 239 331 q 249 197 239 231 q 284 123 258 163 q 365 59 310 83 q 501 35 421 35 q 861 256 771 35 q 927 560 892 333 q 963 857 963 786 q 933 917 963 900 q 872 939 903 933 q 842 961 842 944 q 875 979 842 979 q 910 976 882 979 q 951 974 938 974 q 1035 976 985 974 q 1096 979 1086 979 q 1113 974 1106 979 q 1121 961 1121 968 q 1104 947 1121 951 q 1065 926 1088 942 q 1032 876 1042 911 q 1012 733 1029 867 q 967 447 994 600 q 913 228 940 294 q 839 112 882 154 q 715 21 796 69 q 615 -12 682 1 q 506 -26 547 -26 q 314 -3 385 -26 q 196 69 243 21 q 142 160 154 111 q 131 299 131 208 q 156 585 131 318 q 182 869 182 851 q 163 919 182 903 q 122 938 144 936 q 80 944 99 939 q 61 964 61 950 z "},"":{"ha":1149,"x_min":61,"x_max":1121,"o":"m 582 1047 q 585 1058 582 1053 q 599 1077 589 1064 q 623 1110 610 1090 q 659 1169 636 1129 q 708 1258 682 1208 q 736 1283 721 1283 q 776 1274 751 1283 q 801 1251 801 1265 q 706 1133 801 1229 q 593 1036 610 1036 q 582 1047 582 1036 m 61 964 q 85 983 61 983 q 133 979 85 983 q 243 975 182 975 q 296 979 256 975 q 368 983 336 983 q 396 964 396 983 q 381 945 396 951 q 349 936 367 939 q 315 914 332 933 q 296 860 299 894 q 273 653 289 788 q 248 425 257 519 q 239 267 239 331 q 249 197 239 231 q 284 123 258 163 q 365 59 310 83 q 501 35 421 35 q 861 256 771 35 q 927 560 892 333 q 963 857 963 786 q 933 917 963 900 q 872 939 903 933 q 842 961 842 944 q 875 979 842 979 q 910 976 882 979 q 951 974 938 974 q 1035 976 985 974 q 1096 979 1086 979 q 1113 974 1106 979 q 1121 961 1121 968 q 1104 947 1121 951 q 1065 926 1088 942 q 1032 876 1042 911 q 1012 733 1029 867 q 967 447 994 600 q 913 228 940 294 q 839 112 882 154 q 715 21 796 69 q 615 -12 682 1 q 506 -26 547 -26 q 314 -3 385 -26 q 196 69 243 21 q 142 160 154 111 q 131 299 131 208 q 156 585 131 318 q 182 869 182 851 q 163 919 182 903 q 122 938 144 936 q 80 944 99 939 q 61 964 61 950 z "},"":{"ha":1149,"x_min":61,"x_max":1121,"o":"m 481 1060 q 486 1069 481 1061 q 527 1122 508 1097 q 558 1165 546 1147 q 581 1197 571 1182 q 597 1222 592 1213 q 608 1240 603 1232 q 617 1253 614 1249 q 622 1260 619 1257 q 627 1263 625 1263 q 633 1264 629 1264 l 669 1264 q 689 1250 683 1264 q 734 1163 708 1208 q 774 1092 760 1117 q 788 1061 788 1067 q 776 1053 788 1053 q 708 1112 765 1053 q 644 1171 650 1171 q 566 1113 633 1171 q 490 1054 499 1054 q 481 1060 481 1054 m 61 964 q 85 983 61 983 q 133 979 85 983 q 243 975 182 975 q 296 979 256 975 q 368 983 336 983 q 396 964 396 983 q 381 945 396 951 q 349 936 367 939 q 315 914 332 933 q 296 860 299 894 q 273 653 289 788 q 248 425 257 519 q 239 267 239 331 q 249 197 239 231 q 284 123 258 163 q 365 59 310 83 q 501 35 421 35 q 861 256 771 35 q 927 560 892 333 q 963 857 963 786 q 933 917 963 900 q 872 939 903 933 q 842 961 842 944 q 875 979 842 979 q 910 976 882 979 q 951 974 938 974 q 1035 976 985 974 q 1096 979 1086 979 q 1113 974 1106 979 q 1121 961 1121 968 q 1104 947 1121 951 q 1065 926 1088 942 q 1032 876 1042 911 q 1012 733 1029 867 q 967 447 994 600 q 913 228 940 294 q 839 112 882 154 q 715 21 796 69 q 615 -12 682 1 q 506 -26 547 -26 q 314 -3 385 -26 q 196 69 243 21 q 142 160 154 111 q 131 299 131 208 q 156 585 131 318 q 182 869 182 851 q 163 919 182 903 q 122 938 144 936 q 80 944 99 939 q 61 964 61 950 z "},"":{"ha":1149,"x_min":61,"x_max":1121,"o":"m 492 1185 q 516 1228 492 1201 q 561 1256 540 1256 q 599 1233 581 1256 q 617 1190 617 1211 q 590 1143 617 1169 q 553 1117 564 1117 q 510 1140 528 1117 q 492 1185 492 1164 m 706 1185 q 731 1228 706 1201 q 776 1256 756 1256 q 814 1233 796 1256 q 832 1190 832 1211 q 805 1143 832 1169 q 767 1117 778 1117 q 724 1140 742 1117 q 706 1185 706 1164 m 61 964 q 85 983 61 983 q 133 979 85 983 q 243 975 182 975 q 296 979 256 975 q 368 983 336 983 q 396 964 396 983 q 381 945 396 951 q 349 936 367 939 q 315 914 332 933 q 296 860 299 894 q 273 653 289 788 q 248 425 257 519 q 239 267 239 331 q 249 197 239 231 q 284 123 258 163 q 365 59 310 83 q 501 35 421 35 q 861 256 771 35 q 927 560 892 333 q 963 857 963 786 q 933 917 963 900 q 872 939 903 933 q 842 961 842 944 q 875 979 842 979 q 910 976 882 979 q 951 974 938 974 q 1035 976 985 974 q 1096 979 1086 979 q 1113 974 1106 979 q 1121 961 1121 968 q 1104 947 1121 951 q 1065 926 1088 942 q 1032 876 1042 911 q 1012 733 1029 867 q 967 447 994 600 q 913 228 940 294 q 839 112 882 154 q 715 21 796 69 q 615 -12 682 1 q 506 -26 547 -26 q 314 -3 385 -26 q 196 69 243 21 q 142 160 154 111 q 131 299 131 208 q 156 585 131 318 q 182 869 182 851 q 163 919 182 903 q 122 938 144 936 q 80 944 99 939 q 61 964 61 950 z "},"":{"ha":958,"x_min":28,"x_max":932,"o":"m 464 1047 q 467 1058 464 1053 q 481 1077 471 1064 q 505 1110 492 1090 q 541 1169 518 1129 q 590 1258 564 1208 q 618 1283 603 1283 q 658 1274 633 1283 q 683 1251 683 1265 q 588 1133 683 1229 q 475 1036 492 1036 q 464 1047 464 1036 m 28 972 q 74 992 28 992 q 136 989 82 992 q 203 986 190 986 q 267 989 219 986 q 326 992 315 992 q 368 971 368 992 q 333 944 368 957 q 299 913 299 932 q 360 750 299 856 q 412 643 382 708 q 460 538 442 578 q 483 499 479 499 q 550 585 486 499 q 678 774 614 671 q 742 908 742 876 q 726 936 742 928 q 692 944 711 944 q 658 949 674 943 q 643 969 643 954 q 679 989 643 989 q 713 988 686 989 q 753 986 740 986 q 828 988 785 986 q 896 990 871 990 q 932 969 932 990 q 917 954 932 961 q 878 938 901 947 q 843 915 856 929 q 692 707 811 882 q 550 507 572 532 q 510 446 522 475 q 490 344 499 417 q 468 110 468 132 q 499 56 468 82 q 533 38 514 43 q 567 31 553 32 q 590 26 581 31 q 600 11 600 21 q 599 1 600 4 q 592 -6 597 -3 q 574 -8 586 -8 q 504 -3 567 -8 q 417 1 442 1 q 347 -4 381 1 q 300 -10 313 -10 q 263 8 263 -10 q 268 22 263 17 q 279 30 274 28 q 297 34 285 32 q 315 38 310 36 q 343 62 335 43 q 357 124 351 81 q 394 419 394 379 q 392 437 394 428 q 384 462 390 446 q 371 493 378 478 q 347 540 364 508 q 315 600 331 571 q 272 684 300 629 q 215 792 243 739 q 93 944 146 928 q 70 947 89 946 q 40 953 51 947 q 28 972 28 958 z "},"":{"ha":768,"x_min":28,"x_max":714,"o":"m 28 15 q 38 31 28 26 q 63 36 49 35 q 95 53 78 38 q 122 100 113 69 l 171 478 q 219 860 219 857 q 196 913 219 896 q 137 935 172 931 q 100 940 101 939 q 89 957 89 944 q 126 978 89 978 q 183 972 142 978 q 269 967 225 967 q 347 971 303 967 q 400 975 390 975 q 425 956 425 975 q 412 942 425 946 q 380 934 399 939 q 353 919 361 929 q 322 832 333 897 q 311 743 311 767 q 324 732 311 732 q 389 737 339 732 q 460 742 439 742 q 645 683 576 742 q 714 511 714 625 q 667 343 714 422 q 538 229 619 264 q 390 206 481 206 q 323 213 351 206 q 294 229 294 219 q 299 232 294 232 q 309 231 300 232 q 335 230 318 231 q 375 229 353 229 q 529 303 454 229 q 604 496 604 376 q 586 578 604 542 q 551 629 568 614 q 506 663 533 644 q 376 696 453 696 q 313 685 322 696 q 296 618 303 674 q 265 382 282 496 q 240 213 249 268 q 232 138 232 157 q 236 86 232 107 q 251 56 240 65 q 267 42 261 46 q 290 35 274 38 q 311 31 307 32 q 324 28 317 29 q 335 26 331 26 q 344 24 340 25 q 351 19 349 22 q 353 13 353 17 q 349 -1 353 3 q 340 -6 344 -6 q 324 -7 336 -7 q 267 -3 318 -7 q 183 1 217 1 q 126 -3 163 1 q 76 -7 90 -7 q 28 15 28 -7 z "},"":{"ha":707,"x_min":-60,"x_max":639,"o":"m -60 -231 q -49 -174 -60 -212 q -19 -136 -37 -136 q -1 -154 -3 -136 q 17 -190 3 -176 q 40 -204 32 -204 q 56 -197 49 -204 q 67 -174 63 -190 q 76 -138 72 -158 q 85 -83 81 -118 q 93 -15 89 -49 q 104 72 97 18 q 118 176 111 126 q 141 347 126 238 q 161 495 156 457 q 178 606 167 533 q 199 707 190 678 q 222 781 208 736 q 253 856 236 826 q 293 918 269 886 q 377 998 329 968 q 468 1028 425 1028 q 534 1017 499 1028 q 603 967 569 1006 q 638 868 638 928 q 606 758 638 811 q 535 672 574 706 q 464 597 496 638 q 432 521 432 556 q 458 454 432 493 q 543 349 483 415 q 564 326 546 346 q 588 299 582 306 q 606 273 593 292 q 624 241 619 254 q 634 206 629 228 q 639 163 639 185 q 629 113 639 140 q 598 53 619 85 q 531 1 576 22 q 422 -19 485 -19 q 317 1 367 -19 q 267 71 267 22 q 313 121 267 121 q 351 106 336 121 q 372 73 365 90 q 397 40 379 56 q 443 25 415 25 q 503 36 478 25 q 538 65 528 47 q 551 94 547 82 q 554 115 554 106 q 540 176 554 146 q 508 226 525 207 q 460 276 492 244 q 353 464 353 388 q 384 556 353 508 q 453 638 415 603 q 522 728 490 674 q 553 840 553 782 q 522 933 553 897 q 447 969 492 969 q 420 967 433 969 q 397 959 407 964 q 379 949 388 954 q 364 934 371 943 q 353 919 357 925 q 344 904 349 914 q 338 890 339 894 q 333 878 336 886 l 329 868 q 293 749 311 819 q 267 634 275 678 q 257 578 258 590 q 226 297 243 474 q 195 22 208 119 q 165 -114 182 -75 q 101 -210 140 -174 q 37 -254 63 -246 q -10 -262 11 -262 q -60 -231 -60 -262 z "},"":{"ha":719,"x_min":44,"x_max":693,"o":"m 279 881 q 308 907 279 897 q 351 917 338 917 q 374 892 365 917 q 417 770 396 819 q 447 705 439 721 q 456 683 456 689 q 442 669 456 669 q 353 763 426 669 q 279 881 279 856 m 44 158 q 122 385 44 260 q 310 565 206 515 q 411 590 361 590 q 469 583 432 590 q 529 575 506 575 q 565 609 543 575 q 601 643 588 643 q 617 622 617 643 q 605 576 617 610 q 589 526 593 543 q 557 349 588 521 q 532 171 532 211 q 546 115 532 142 q 579 89 560 89 q 637 134 604 89 q 681 179 669 179 q 693 164 693 179 q 668 104 693 139 q 599 26 639 61 q 533 -10 560 -10 q 475 29 494 -10 q 452 107 456 68 q 447 146 449 146 q 431 128 446 146 q 392 87 417 111 q 338 38 368 63 q 269 -3 308 14 q 193 -21 231 -21 q 74 27 104 -21 q 44 158 44 75 m 142 167 q 173 86 142 117 q 250 56 204 56 q 362 99 314 56 q 428 181 410 143 q 460 292 443 210 q 488 438 478 374 q 499 507 499 501 q 468 544 499 532 q 407 556 438 556 q 314 525 363 556 q 235 443 265 494 q 149 242 163 324 q 142 167 142 200 z "},"":{"ha":719,"x_min":44,"x_max":693,"o":"m 357 681 q 360 692 357 686 q 374 710 364 697 q 398 743 385 724 q 434 802 411 763 q 483 892 457 842 q 511 917 496 917 q 551 908 526 917 q 576 885 576 899 q 481 766 576 863 q 368 669 385 669 q 357 681 357 669 m 44 158 q 122 385 44 260 q 310 565 206 515 q 411 590 361 590 q 469 583 432 590 q 529 575 506 575 q 565 609 543 575 q 601 643 588 643 q 617 622 617 643 q 605 576 617 610 q 589 526 593 543 q 557 349 588 521 q 532 171 532 211 q 546 115 532 142 q 579 89 560 89 q 637 134 604 89 q 681 179 669 179 q 693 164 693 179 q 668 104 693 139 q 599 26 639 61 q 533 -10 560 -10 q 475 29 494 -10 q 452 107 456 68 q 447 146 449 146 q 431 128 446 146 q 392 87 417 111 q 338 38 368 63 q 269 -3 308 14 q 193 -21 231 -21 q 74 27 104 -21 q 44 158 44 75 m 142 167 q 173 86 142 117 q 250 56 204 56 q 362 99 314 56 q 428 181 410 143 q 460 292 443 210 q 488 438 478 374 q 499 507 499 501 q 468 544 499 532 q 407 556 438 556 q 314 525 363 556 q 235 443 265 494 q 149 242 163 324 q 142 167 142 200 z "},"":{"ha":719,"x_min":44,"x_max":693,"o":"m 256 693 q 261 703 256 694 q 302 756 283 731 q 333 798 321 781 q 356 831 346 815 q 372 856 367 846 q 383 874 378 865 q 392 886 389 882 q 397 893 394 890 q 402 897 400 896 q 408 897 404 897 l 444 897 q 464 883 458 897 q 509 796 483 842 q 549 725 535 750 q 563 694 563 700 q 551 686 563 686 q 483 745 540 686 q 419 804 425 804 q 341 746 408 804 q 265 688 274 688 q 256 693 256 688 m 44 158 q 122 385 44 260 q 310 565 206 515 q 411 590 361 590 q 469 583 432 590 q 529 575 506 575 q 565 609 543 575 q 601 643 588 643 q 617 622 617 643 q 605 576 617 610 q 589 526 593 543 q 557 349 588 521 q 532 171 532 211 q 546 115 532 142 q 579 89 560 89 q 637 134 604 89 q 681 179 669 179 q 693 164 693 179 q 668 104 693 139 q 599 26 639 61 q 533 -10 560 -10 q 475 29 494 -10 q 452 107 456 68 q 447 146 449 146 q 431 128 446 146 q 392 87 417 111 q 338 38 368 63 q 269 -3 308 14 q 193 -21 231 -21 q 74 27 104 -21 q 44 158 44 75 m 142 167 q 173 86 142 117 q 250 56 204 56 q 362 99 314 56 q 428 181 410 143 q 460 292 443 210 q 488 438 478 374 q 499 507 499 501 q 468 544 499 532 q 407 556 438 556 q 314 525 363 556 q 235 443 265 494 q 149 242 163 324 q 142 167 142 200 z "},"":{"ha":719,"x_min":44,"x_max":693,"o":"m 210 742 q 265 822 210 764 q 358 879 321 879 q 440 846 390 879 q 525 813 490 813 q 565 832 547 813 q 596 871 583 851 q 617 890 608 890 q 629 875 629 890 q 574 795 629 850 q 482 740 519 740 q 396 774 447 740 q 315 807 344 807 q 274 787 293 807 q 242 747 256 767 q 221 728 229 728 q 210 742 210 728 m 44 158 q 122 385 44 260 q 310 565 206 515 q 411 590 361 590 q 469 583 432 590 q 529 575 506 575 q 565 609 543 575 q 601 643 588 643 q 617 622 617 643 q 605 576 617 610 q 589 526 593 543 q 557 349 588 521 q 532 171 532 211 q 546 115 532 142 q 579 89 560 89 q 637 134 604 89 q 681 179 669 179 q 693 164 693 179 q 668 104 693 139 q 599 26 639 61 q 533 -10 560 -10 q 475 29 494 -10 q 452 107 456 68 q 447 146 449 146 q 431 128 446 146 q 392 87 417 111 q 338 38 368 63 q 269 -3 308 14 q 193 -21 231 -21 q 74 27 104 -21 q 44 158 44 75 m 142 167 q 173 86 142 117 q 250 56 204 56 q 362 99 314 56 q 428 181 410 143 q 460 292 443 210 q 488 438 478 374 q 499 507 499 501 q 468 544 499 532 q 407 556 438 556 q 314 525 363 556 q 235 443 265 494 q 149 242 163 324 q 142 167 142 200 z "},"":{"ha":719,"x_min":44,"x_max":693,"o":"m 267 818 q 291 862 267 835 q 336 889 315 889 q 374 867 356 889 q 392 824 392 844 q 365 776 392 803 q 328 750 339 750 q 285 774 303 750 q 267 818 267 797 m 481 818 q 506 862 481 835 q 551 889 531 889 q 589 867 571 889 q 607 824 607 844 q 580 776 607 803 q 542 750 553 750 q 499 774 517 750 q 481 818 481 797 m 44 158 q 122 385 44 260 q 310 565 206 515 q 411 590 361 590 q 469 583 432 590 q 529 575 506 575 q 565 609 543 575 q 601 643 588 643 q 617 622 617 643 q 605 576 617 610 q 589 526 593 543 q 557 349 588 521 q 532 171 532 211 q 546 115 532 142 q 579 89 560 89 q 637 134 604 89 q 681 179 669 179 q 693 164 693 179 q 668 104 693 139 q 599 26 639 61 q 533 -10 560 -10 q 475 29 494 -10 q 452 107 456 68 q 447 146 449 146 q 431 128 446 146 q 392 87 417 111 q 338 38 368 63 q 269 -3 308 14 q 193 -21 231 -21 q 74 27 104 -21 q 44 158 44 75 m 142 167 q 173 86 142 117 q 250 56 204 56 q 362 99 314 56 q 428 181 410 143 q 460 292 443 210 q 488 438 478 374 q 499 507 499 501 q 468 544 499 532 q 407 556 438 556 q 314 525 363 556 q 235 443 265 494 q 149 242 163 324 q 142 167 142 200 z "},"":{"ha":719,"x_min":44,"x_max":693,"o":"m 318 806 q 355 889 318 853 q 435 925 392 925 q 501 894 479 925 q 524 826 524 863 q 481 742 524 774 q 411 711 438 711 q 338 740 358 711 q 318 806 318 769 m 364 811 q 378 773 364 788 q 415 758 392 758 q 456 775 433 758 q 478 826 478 792 q 428 876 478 876 q 385 858 407 876 q 364 811 364 840 m 44 158 q 122 385 44 260 q 310 565 206 515 q 411 590 361 590 q 469 583 432 590 q 529 575 506 575 q 565 609 543 575 q 601 643 588 643 q 617 622 617 643 q 605 576 617 610 q 589 526 593 543 q 557 349 588 521 q 532 171 532 211 q 546 115 532 142 q 579 89 560 89 q 637 134 604 89 q 681 179 669 179 q 693 164 693 179 q 668 104 693 139 q 599 26 639 61 q 533 -10 560 -10 q 475 29 494 -10 q 452 107 456 68 q 447 146 449 146 q 431 128 446 146 q 392 87 417 111 q 338 38 368 63 q 269 -3 308 14 q 193 -21 231 -21 q 74 27 104 -21 q 44 158 44 75 m 142 167 q 173 86 142 117 q 250 56 204 56 q 362 99 314 56 q 428 181 410 143 q 460 292 443 210 q 488 438 478 374 q 499 507 499 501 q 468 544 499 532 q 407 556 438 556 q 314 525 363 556 q 235 443 265 494 q 149 242 163 324 q 142 167 142 200 z "},"":{"ha":978,"x_min":44,"x_max":933,"o":"m 44 158 q 92 337 44 239 q 228 509 140 435 q 411 583 315 583 q 465 579 432 583 q 522 575 499 575 q 558 609 536 575 q 594 643 581 643 q 610 622 610 643 q 594 563 610 611 q 578 499 578 515 q 581 493 578 493 q 593 505 583 493 q 620 533 603 517 q 662 566 638 550 q 726 594 686 582 q 813 606 765 606 q 898 576 863 606 q 933 503 933 547 q 903 417 933 457 q 848 361 874 378 q 800 335 822 344 q 581 297 719 299 q 557 240 557 297 q 607 113 557 160 q 757 67 657 67 q 826 82 792 67 q 881 112 860 97 q 907 126 903 126 q 925 113 925 126 q 845 33 925 83 q 683 -17 765 -17 q 575 1 619 -17 q 511 42 531 18 q 482 91 492 67 q 468 133 472 115 q 460 150 464 150 q 428 124 454 150 q 370 65 401 97 q 290 6 339 32 q 193 -21 240 -21 q 74 27 104 -21 q 44 158 44 75 m 142 167 q 173 86 142 117 q 250 56 204 56 q 362 99 314 56 q 428 181 410 143 q 459 289 442 210 q 487 431 476 368 q 497 499 497 493 q 469 533 497 521 q 414 546 442 546 q 229 427 317 546 q 142 167 142 308 m 578 349 q 589 321 578 321 q 763 376 688 321 q 838 499 838 432 q 813 549 838 533 q 764 564 789 564 q 650 499 713 564 q 600 418 622 469 q 578 349 578 367 z "},"":{"ha":581,"x_min":44,"x_max":536,"o":"m 44 207 q 149 481 44 356 q 397 606 254 606 q 440 598 411 606 q 503 566 469 590 q 536 506 536 542 q 522 468 536 485 q 490 451 508 451 q 452 467 471 451 q 419 501 433 483 q 380 535 406 519 q 321 551 354 551 q 283 538 310 551 q 231 503 256 525 q 199 466 217 490 q 160 388 181 442 q 139 276 139 333 q 303 64 139 64 q 394 83 353 64 q 458 120 435 101 q 489 139 481 139 q 507 121 507 139 q 478 77 507 108 q 386 15 449 46 q 254 -17 324 -17 q 44 207 44 -17 z "},"":{"ha":558,"x_min":44,"x_max":515,"o":"m 249 881 q 278 907 249 897 q 321 917 307 917 q 343 892 335 917 q 387 770 365 819 q 417 705 408 721 q 425 683 425 689 q 411 669 425 669 q 322 763 396 669 q 249 881 249 856 m 44 204 q 86 378 44 292 q 201 532 128 464 q 394 606 279 606 q 480 576 444 606 q 515 503 515 547 q 499 437 515 468 q 457 385 482 406 q 413 352 432 364 q 381 335 394 340 q 163 297 300 299 q 139 240 139 297 q 189 113 139 160 q 339 67 239 67 q 408 82 374 67 q 463 112 442 97 q 489 126 485 126 q 506 113 506 126 q 426 33 506 83 q 264 -17 346 -17 q 92 42 140 -17 q 44 204 44 100 m 158 349 q 171 321 158 321 q 344 376 269 321 q 419 499 419 432 q 395 549 419 533 q 346 564 371 564 q 232 499 294 564 q 181 418 204 469 q 158 349 158 367 z "},"":{"ha":558,"x_min":44,"x_max":546,"o":"m 326 681 q 330 692 326 686 q 344 710 333 697 q 367 743 354 724 q 403 802 381 763 q 453 892 426 842 q 481 917 465 917 q 521 908 496 917 q 546 885 546 899 q 450 766 546 863 q 338 669 354 669 q 326 681 326 669 m 44 204 q 86 378 44 292 q 201 532 128 464 q 394 606 279 606 q 480 576 444 606 q 515 503 515 547 q 499 437 515 468 q 457 385 482 406 q 413 352 432 364 q 381 335 394 340 q 163 297 300 299 q 139 240 139 297 q 189 113 139 160 q 339 67 239 67 q 408 82 374 67 q 463 112 442 97 q 489 126 485 126 q 506 113 506 126 q 426 33 506 83 q 264 -17 346 -17 q 92 42 140 -17 q 44 204 44 100 m 158 349 q 171 321 158 321 q 344 376 269 321 q 419 499 419 432 q 395 549 419 533 q 346 564 371 564 q 232 499 294 564 q 181 418 204 469 q 158 349 158 367 z "},"":{"ha":558,"x_min":44,"x_max":532,"o":"m 225 693 q 231 703 225 694 q 272 756 253 731 q 303 798 290 781 q 326 831 315 815 q 342 856 336 846 q 353 874 347 865 q 361 886 358 882 q 367 893 364 890 q 372 897 369 896 q 378 897 374 897 l 414 897 q 433 883 428 897 q 478 796 453 842 q 518 725 504 750 q 532 694 532 700 q 521 686 532 686 q 452 745 510 686 q 389 804 394 804 q 310 746 378 804 q 235 688 243 688 q 225 693 225 688 m 44 204 q 86 378 44 292 q 201 532 128 464 q 394 606 279 606 q 480 576 444 606 q 515 503 515 547 q 499 437 515 468 q 457 385 482 406 q 413 352 432 364 q 381 335 394 340 q 163 297 300 299 q 139 240 139 297 q 189 113 139 160 q 339 67 239 67 q 408 82 374 67 q 463 112 442 97 q 489 126 485 126 q 506 113 506 126 q 426 33 506 83 q 264 -17 346 -17 q 92 42 140 -17 q 44 204 44 100 m 158 349 q 171 321 158 321 q 344 376 269 321 q 419 499 419 432 q 395 549 419 533 q 346 564 371 564 q 232 499 294 564 q 181 418 204 469 q 158 349 158 367 z "},"":{"ha":558,"x_min":44,"x_max":576,"o":"m 236 818 q 260 862 236 835 q 306 889 285 889 q 343 867 325 889 q 361 824 361 844 q 335 776 361 803 q 297 750 308 750 q 254 774 272 750 q 236 818 236 797 m 450 818 q 475 862 450 835 q 521 889 500 889 q 558 867 540 889 q 576 824 576 844 q 549 776 576 803 q 511 750 522 750 q 468 774 486 750 q 450 818 450 797 m 44 204 q 86 378 44 292 q 201 532 128 464 q 394 606 279 606 q 480 576 444 606 q 515 503 515 547 q 499 437 515 468 q 457 385 482 406 q 413 352 432 364 q 381 335 394 340 q 163 297 300 299 q 139 240 139 297 q 189 113 139 160 q 339 67 239 67 q 408 82 374 67 q 463 112 442 97 q 489 126 485 126 q 506 113 506 126 q 426 33 506 83 q 264 -17 346 -17 q 92 42 140 -17 q 44 204 44 100 m 158 349 q 171 321 158 321 q 344 376 269 321 q 419 499 419 432 q 395 549 419 533 q 346 564 371 564 q 232 499 294 564 q 181 418 204 469 q 158 349 158 367 z "},"":{"ha":347,"x_min":28,"x_max":300,"o":"m 53 881 q 82 907 53 897 q 125 917 111 917 q 147 892 139 917 q 191 770 169 819 q 221 705 213 721 q 229 683 229 689 q 215 669 229 669 q 126 763 200 669 q 53 881 53 856 m 28 550 q 60 569 28 569 l 74 569 q 144 576 99 569 q 232 582 189 582 q 251 567 251 582 q 235 494 251 549 q 214 406 219 440 q 172 129 172 143 q 181 103 172 115 q 200 92 189 92 q 253 128 228 92 q 286 164 279 164 q 300 149 300 164 q 286 108 300 136 q 260 68 272 81 q 132 -14 183 -14 q 81 101 81 -14 q 112 312 81 157 q 143 503 143 467 q 136 526 143 519 q 110 532 129 532 q 72 533 93 532 q 47 533 50 533 q 28 550 28 533 z "},"":{"ha":347,"x_min":28,"x_max":350,"o":"m 131 681 q 134 692 131 686 q 148 710 138 697 q 172 743 158 724 q 208 802 185 763 q 257 892 231 842 q 285 917 269 917 q 325 908 300 917 q 350 885 350 899 q 254 766 350 863 q 142 669 158 669 q 131 681 131 669 m 28 550 q 60 569 28 569 l 74 569 q 144 576 99 569 q 232 582 189 582 q 251 567 251 582 q 235 494 251 549 q 214 406 219 440 q 172 129 172 143 q 181 103 172 115 q 200 92 189 92 q 253 128 228 92 q 286 164 279 164 q 300 149 300 164 q 286 108 300 136 q 260 68 272 81 q 132 -14 183 -14 q 81 101 81 -14 q 112 312 81 157 q 143 503 143 467 q 136 526 143 519 q 110 532 129 532 q 72 533 93 532 q 47 533 50 533 q 28 550 28 533 z "},"":{"ha":347,"x_min":28,"x_max":336,"o":"m 29 693 q 35 703 29 694 q 76 756 57 731 q 107 798 94 781 q 130 831 119 815 q 146 856 140 846 q 157 874 151 865 q 165 886 163 882 q 171 893 168 890 q 176 897 174 896 q 182 897 178 897 l 218 897 q 238 883 232 897 q 283 796 257 842 q 322 725 308 750 q 336 694 336 700 q 325 686 336 686 q 256 745 314 686 q 193 804 199 804 q 115 746 182 804 q 39 688 47 688 q 29 693 29 688 m 28 550 q 60 569 28 569 l 74 569 q 144 576 99 569 q 232 582 189 582 q 251 567 251 582 q 235 494 251 549 q 214 406 219 440 q 172 129 172 143 q 181 103 172 115 q 200 92 189 92 q 253 128 228 92 q 286 164 279 164 q 300 149 300 164 q 286 108 300 136 q 260 68 272 81 q 132 -14 183 -14 q 81 101 81 -14 q 112 312 81 157 q 143 503 143 467 q 136 526 143 519 q 110 532 129 532 q 72 533 93 532 q 47 533 50 533 q 28 550 28 533 z "},"":{"ha":347,"x_min":28,"x_max":381,"o":"m 40 818 q 65 862 40 835 q 110 889 89 889 q 147 867 129 889 q 165 824 165 844 q 139 776 165 803 q 101 750 113 750 q 58 774 76 750 q 40 818 40 797 m 254 818 q 279 862 254 835 q 325 889 304 889 q 363 867 344 889 q 381 824 381 844 q 353 776 381 803 q 315 750 326 750 q 272 774 290 750 q 254 818 254 797 m 28 550 q 60 569 28 569 l 74 569 q 144 576 99 569 q 232 582 189 582 q 251 567 251 582 q 235 494 251 549 q 214 406 219 440 q 172 129 172 143 q 181 103 172 115 q 200 92 189 92 q 253 128 228 92 q 286 164 279 164 q 300 149 300 164 q 286 108 300 136 q 260 68 272 81 q 132 -14 183 -14 q 81 101 81 -14 q 112 312 81 157 q 143 503 143 467 q 136 526 143 519 q 110 532 129 532 q 72 533 93 532 q 47 533 50 533 q 28 550 28 533 z "},"":{"ha":629,"x_min":44,"x_max":668,"o":"m 44 235 q 134 490 44 376 q 372 604 224 604 q 497 560 446 604 q 443 742 488 643 q 422 779 426 779 q 418 778 421 779 q 413 776 415 778 q 405 772 410 775 q 394 768 400 769 l 311 738 q 222 707 232 707 q 205 725 213 707 q 197 754 197 743 q 297 794 197 760 q 396 833 396 829 q 388 848 396 835 q 365 879 379 861 q 339 911 351 897 q 294 952 317 935 q 256 976 271 969 q 233 991 242 983 q 224 1007 224 999 q 272 1024 224 1024 q 352 985 301 1024 q 446 883 403 947 q 465 857 464 857 q 470 858 467 857 q 480 863 474 860 q 493 868 486 865 l 576 899 q 638 922 622 915 l 639 924 q 658 908 647 924 q 668 875 668 892 q 611 847 668 867 l 528 818 q 493 801 493 806 l 503 781 q 526 724 513 760 q 552 643 539 689 q 575 535 565 597 q 585 413 585 474 q 550 212 585 307 q 439 51 515 117 q 258 -14 363 -14 q 106 50 167 -14 q 44 235 44 114 m 151 233 q 185 81 151 133 q 272 28 219 28 q 366 65 325 28 q 428 159 407 103 q 461 272 450 215 q 472 375 472 328 q 438 515 472 468 q 353 563 404 563 q 251 516 300 563 q 179 389 203 469 q 151 233 151 292 z "},"":{"ha":731,"x_min":33,"x_max":703,"o":"m 219 742 q 275 822 219 764 q 368 879 331 879 q 450 846 400 879 q 535 813 500 813 q 575 832 557 813 q 606 871 593 851 q 626 890 618 890 q 639 875 639 890 q 584 795 639 850 q 492 740 529 740 q 406 774 457 740 q 325 807 354 807 q 284 787 303 807 q 252 747 265 767 q 231 728 239 728 q 219 742 219 728 m 33 446 q 82 546 33 488 q 169 604 131 604 q 218 567 206 604 q 231 494 231 531 q 233 458 231 458 q 242 467 236 458 q 265 493 249 475 q 303 528 281 511 q 472 607 404 607 q 589 433 589 607 q 577 268 589 378 q 565 142 565 158 q 592 92 565 92 q 617 99 603 92 q 639 114 631 107 l 647 122 q 658 136 651 126 q 667 149 664 146 q 677 156 671 153 q 690 160 683 160 q 703 143 703 160 q 634 47 703 103 q 519 -8 565 -8 q 483 17 499 -8 q 468 79 468 43 q 483 271 468 139 q 497 422 497 403 q 493 463 497 442 q 465 510 489 485 q 400 536 440 536 q 310 475 353 536 q 282 435 290 447 q 267 401 274 422 q 258 367 260 379 q 248 309 256 354 q 233 224 240 264 q 215 117 221 158 q 208 65 208 76 q 206 45 207 53 q 206 33 206 38 q 192 4 203 11 q 154 -3 182 -3 q 115 4 124 -3 q 106 40 106 11 q 136 213 106 64 q 167 421 167 361 q 156 476 167 454 q 135 497 146 497 q 85 458 111 497 q 46 419 60 419 q 33 446 33 419 z "},"":{"ha":619,"x_min":44,"x_max":575,"o":"m 242 881 q 271 907 242 897 q 314 917 300 917 q 336 892 328 917 q 380 770 358 819 q 410 705 401 721 q 418 683 418 689 q 404 669 418 669 q 315 763 389 669 q 242 881 242 856 m 44 235 q 134 490 44 376 q 372 604 224 604 q 523 534 471 604 q 575 358 575 464 q 540 185 575 268 q 429 44 504 101 q 257 -14 354 -14 q 105 50 165 -14 q 44 235 44 114 m 151 233 q 185 81 151 133 q 272 28 219 28 q 366 65 325 28 q 428 159 407 103 q 461 272 450 215 q 472 375 472 328 q 438 515 472 468 q 353 563 404 563 q 251 516 300 563 q 179 389 203 469 q 151 233 151 292 z "},"":{"ha":619,"x_min":44,"x_max":575,"o":"m 319 681 q 323 692 319 686 q 337 710 326 697 q 360 743 347 724 q 397 802 374 763 q 446 892 419 842 q 474 917 458 917 q 514 908 489 917 q 539 885 539 899 q 443 766 539 863 q 331 669 347 669 q 319 681 319 669 m 44 235 q 134 490 44 376 q 372 604 224 604 q 523 534 471 604 q 575 358 575 464 q 540 185 575 268 q 429 44 504 101 q 257 -14 354 -14 q 105 50 165 -14 q 44 235 44 114 m 151 233 q 185 81 151 133 q 272 28 219 28 q 366 65 325 28 q 428 159 407 103 q 461 272 450 215 q 472 375 472 328 q 438 515 472 468 q 353 563 404 563 q 251 516 300 563 q 179 389 203 469 q 151 233 151 292 z "},"":{"ha":619,"x_min":44,"x_max":575,"o":"m 218 693 q 224 703 218 694 q 265 756 246 731 q 296 798 283 781 q 319 831 308 815 q 335 856 329 846 q 346 874 340 865 q 354 886 351 882 q 360 893 357 890 q 365 897 363 896 q 371 897 367 897 l 407 897 q 426 883 421 897 q 472 796 446 842 q 511 725 497 750 q 525 694 525 700 q 514 686 525 686 q 445 745 503 686 q 382 804 388 804 q 303 746 371 804 q 228 688 236 688 q 218 693 218 688 m 44 235 q 134 490 44 376 q 372 604 224 604 q 523 534 471 604 q 575 358 575 464 q 540 185 575 268 q 429 44 504 101 q 257 -14 354 -14 q 105 50 165 -14 q 44 235 44 114 m 151 233 q 185 81 151 133 q 272 28 219 28 q 366 65 325 28 q 428 159 407 103 q 461 272 450 215 q 472 375 472 328 q 438 515 472 468 q 353 563 404 563 q 251 516 300 563 q 179 389 203 469 q 151 233 151 292 z "},"":{"ha":619,"x_min":44,"x_max":592,"o":"m 172 742 q 228 822 172 764 q 321 879 283 879 q 403 846 353 879 q 488 813 453 813 q 528 832 510 813 q 558 871 546 851 q 579 890 571 890 q 592 875 592 890 q 537 795 592 850 q 444 740 482 740 q 358 774 410 740 q 278 807 307 807 q 237 787 256 807 q 205 747 218 767 q 183 728 192 728 q 172 742 172 728 m 44 235 q 134 490 44 376 q 372 604 224 604 q 523 534 471 604 q 575 358 575 464 q 540 185 575 268 q 429 44 504 101 q 257 -14 354 -14 q 105 50 165 -14 q 44 235 44 114 m 151 233 q 185 81 151 133 q 272 28 219 28 q 366 65 325 28 q 428 159 407 103 q 461 272 450 215 q 472 375 472 328 q 438 515 472 468 q 353 563 404 563 q 251 516 300 563 q 179 389 203 469 q 151 233 151 292 z "},"":{"ha":619,"x_min":44,"x_max":575,"o":"m 229 818 q 253 862 229 835 q 299 889 278 889 q 336 867 318 889 q 354 824 354 844 q 328 776 354 803 q 290 750 301 750 q 247 774 265 750 q 229 818 229 797 m 443 818 q 468 862 443 835 q 514 889 493 889 q 551 867 533 889 q 569 824 569 844 q 542 776 569 803 q 504 750 515 750 q 461 774 479 750 q 443 818 443 797 m 44 235 q 134 490 44 376 q 372 604 224 604 q 523 534 471 604 q 575 358 575 464 q 540 185 575 268 q 429 44 504 101 q 257 -14 354 -14 q 105 50 165 -14 q 44 235 44 114 m 151 233 q 185 81 151 133 q 272 28 219 28 q 366 65 325 28 q 428 159 407 103 q 461 272 450 215 q 472 375 472 328 q 438 515 472 468 q 353 563 404 563 q 251 516 300 563 q 179 389 203 469 q 151 233 151 292 z "},"":{"ha":706,"x_min":29,"x_max":675,"o":"m 298 406 q 289 414 298 406 q 281 444 281 422 q 298 484 281 467 q 339 501 315 501 q 379 485 363 501 q 396 446 396 468 q 378 406 396 422 q 339 389 361 389 q 298 406 315 389 m 306 100 q 297 108 306 100 q 289 140 289 117 q 306 180 289 164 q 344 196 322 196 q 385 178 368 196 q 403 139 403 161 q 386 100 403 117 q 346 83 369 83 q 306 100 322 83 m 29 294 q 31 310 29 306 q 38 319 32 315 q 56 322 43 322 l 653 322 q 669 319 664 322 q 674 310 674 315 q 675 293 675 306 q 671 267 675 274 q 646 261 667 261 l 54 261 q 33 268 38 261 q 29 294 29 275 z "},"":{"ha":619,"x_min":44,"x_max":575,"o":"m 44 235 q 134 490 44 376 q 372 604 224 604 q 408 601 392 604 q 433 594 425 597 l 443 592 q 453 607 444 592 l 494 679 q 511 692 501 692 q 536 684 521 692 q 551 664 551 676 q 532 624 551 656 l 497 561 l 506 553 q 525 531 514 546 q 547 494 536 515 q 567 436 558 472 q 575 358 575 400 q 540 185 575 268 q 430 44 504 101 q 258 -14 356 -14 q 231 -12 244 -14 q 208 -9 218 -11 q 192 -4 199 -7 q 181 0 185 -1 l 175 1 l 165 -14 l 126 -81 q 99 -115 107 -115 q 74 -106 90 -115 q 57 -86 57 -96 q 60 -75 57 -81 l 99 -8 q 121 32 121 31 q 113 42 121 33 q 94 65 106 50 q 72 100 83 79 q 52 157 60 121 q 44 235 44 193 m 151 233 q 156 178 151 208 q 165 129 160 147 q 171 111 169 111 q 193 153 182 133 l 401 517 q 408 526 404 521 q 413 535 411 532 q 414 539 414 538 q 406 547 414 542 q 383 558 399 553 q 353 563 368 563 q 251 516 300 563 q 179 389 203 469 q 151 233 151 292 m 207 58 q 229 38 207 49 q 272 28 251 28 q 366 65 325 28 q 428 159 407 103 q 461 272 450 215 q 472 375 472 328 q 468 433 472 406 q 460 472 464 460 q 454 485 456 485 q 447 475 453 485 l 231 100 q 207 58 207 60 z "},"":{"ha":729,"x_min":28,"x_max":701,"o":"m 251 881 q 281 907 251 897 q 324 917 310 917 q 346 892 338 917 q 390 770 368 819 q 419 705 411 721 q 428 683 428 689 q 414 669 428 669 q 325 763 399 669 q 251 881 251 856 m 28 408 q 74 528 28 461 q 185 594 121 594 q 220 571 207 594 q 235 528 233 547 q 238 493 238 510 q 212 295 238 431 q 186 110 186 160 q 194 83 186 93 q 211 72 203 72 q 226 74 218 72 q 242 81 233 76 q 257 92 250 86 q 274 107 264 97 q 291 124 285 117 q 309 144 297 131 q 328 165 321 157 q 349 190 335 174 q 369 215 363 207 q 531 575 468 335 q 571 597 536 597 q 617 567 617 597 q 574 357 617 553 q 532 122 532 161 q 563 89 532 89 q 623 115 600 89 q 658 166 646 140 q 682 192 671 192 q 701 163 701 192 q 636 56 701 125 q 485 -12 571 -12 q 443 63 443 -12 q 449 151 443 101 q 462 236 456 201 q 468 274 468 271 q 461 289 468 289 q 453 280 458 289 q 435 248 447 271 q 404 200 422 225 q 138 -15 253 -15 q 90 74 90 -15 q 122 292 90 157 q 153 461 153 426 q 125 490 153 490 q 96 466 115 490 q 63 410 76 442 q 42 390 54 390 q 28 408 28 390 z "},"":{"ha":729,"x_min":28,"x_max":701,"o":"m 329 681 q 333 692 329 686 q 347 710 336 697 q 370 743 357 724 q 406 802 383 763 q 456 892 429 842 q 483 917 468 917 q 524 908 499 917 q 549 885 549 899 q 453 766 549 863 q 340 669 357 669 q 329 681 329 669 m 28 408 q 74 528 28 461 q 185 594 121 594 q 220 571 207 594 q 235 528 233 547 q 238 493 238 510 q 212 295 238 431 q 186 110 186 160 q 194 83 186 93 q 211 72 203 72 q 226 74 218 72 q 242 81 233 76 q 257 92 250 86 q 274 107 264 97 q 291 124 285 117 q 309 144 297 131 q 328 165 321 157 q 349 190 335 174 q 369 215 363 207 q 531 575 468 335 q 571 597 536 597 q 617 567 617 597 q 574 357 617 553 q 532 122 532 161 q 563 89 532 89 q 623 115 600 89 q 658 166 646 140 q 682 192 671 192 q 701 163 701 192 q 636 56 701 125 q 485 -12 571 -12 q 443 63 443 -12 q 449 151 443 101 q 462 236 456 201 q 468 274 468 271 q 461 289 468 289 q 453 280 458 289 q 435 248 447 271 q 404 200 422 225 q 138 -15 253 -15 q 90 74 90 -15 q 122 292 90 157 q 153 461 153 426 q 125 490 153 490 q 96 466 115 490 q 63 410 76 442 q 42 390 54 390 q 28 408 28 390 z "},"":{"ha":729,"x_min":28,"x_max":701,"o":"m 228 693 q 233 703 228 694 q 274 756 256 731 q 306 798 293 781 q 328 831 318 815 q 344 856 339 846 q 356 874 350 865 q 364 886 361 882 q 369 893 367 890 q 374 897 372 896 q 381 897 376 897 l 417 897 q 436 883 431 897 q 481 796 456 842 q 521 725 507 750 q 535 694 535 700 q 524 686 535 686 q 455 745 513 686 q 392 804 397 804 q 313 746 381 804 q 238 688 246 688 q 228 693 228 688 m 28 408 q 74 528 28 461 q 185 594 121 594 q 220 571 207 594 q 235 528 233 547 q 238 493 238 510 q 212 295 238 431 q 186 110 186 160 q 194 83 186 93 q 211 72 203 72 q 226 74 218 72 q 242 81 233 76 q 257 92 250 86 q 274 107 264 97 q 291 124 285 117 q 309 144 297 131 q 328 165 321 157 q 349 190 335 174 q 369 215 363 207 q 531 575 468 335 q 571 597 536 597 q 617 567 617 597 q 574 357 617 553 q 532 122 532 161 q 563 89 532 89 q 623 115 600 89 q 658 166 646 140 q 682 192 671 192 q 701 163 701 192 q 636 56 701 125 q 485 -12 571 -12 q 443 63 443 -12 q 449 151 443 101 q 462 236 456 201 q 468 274 468 271 q 461 289 468 289 q 453 280 458 289 q 435 248 447 271 q 404 200 422 225 q 138 -15 253 -15 q 90 74 90 -15 q 122 292 90 157 q 153 461 153 426 q 125 490 153 490 q 96 466 115 490 q 63 410 76 442 q 42 390 54 390 q 28 408 28 390 z "},"":{"ha":729,"x_min":28,"x_max":701,"o":"m 239 818 q 263 862 239 835 q 308 889 288 889 q 346 867 328 889 q 364 824 364 844 q 338 776 364 803 q 300 750 311 750 q 257 774 275 750 q 239 818 239 797 m 453 818 q 478 862 453 835 q 524 889 503 889 q 561 867 543 889 q 579 824 579 844 q 552 776 579 803 q 514 750 525 750 q 471 774 489 750 q 453 818 453 797 m 28 408 q 74 528 28 461 q 185 594 121 594 q 220 571 207 594 q 235 528 233 547 q 238 493 238 510 q 212 295 238 431 q 186 110 186 160 q 194 83 186 93 q 211 72 203 72 q 226 74 218 72 q 242 81 233 76 q 257 92 250 86 q 274 107 264 97 q 291 124 285 117 q 309 144 297 131 q 328 165 321 157 q 349 190 335 174 q 369 215 363 207 q 531 575 468 335 q 571 597 536 597 q 617 567 617 597 q 574 357 617 553 q 532 122 532 161 q 563 89 532 89 q 623 115 600 89 q 658 166 646 140 q 682 192 671 192 q 701 163 701 192 q 636 56 701 125 q 485 -12 571 -12 q 443 63 443 -12 q 449 151 443 101 q 462 236 456 201 q 468 274 468 271 q 461 289 468 289 q 453 280 458 289 q 435 248 447 271 q 404 200 422 225 q 138 -15 253 -15 q 90 74 90 -15 q 122 292 90 157 q 153 461 153 426 q 125 490 153 490 q 96 466 115 490 q 63 410 76 442 q 42 390 54 390 q 28 408 28 390 z "},"":{"ha":565,"x_min":10,"x_max":525,"o":"m 260 681 q 263 692 260 686 q 277 710 267 697 q 301 743 288 724 q 337 802 314 763 q 386 892 360 842 q 414 917 399 917 q 454 908 429 917 q 479 885 479 899 q 383 766 479 863 q 271 669 288 669 q 260 681 260 669 m 10 -174 q 23 -142 10 -156 q 54 -128 36 -128 q 111 -151 81 -128 q 175 -174 142 -174 q 288 -83 229 -174 q 347 57 347 8 q 259 309 347 125 q 121 493 171 493 q 72 467 86 493 q 51 415 57 442 q 28 389 44 389 q 14 419 14 389 q 24 492 14 454 q 60 565 33 531 q 126 599 88 599 q 224 537 172 599 q 313 401 276 475 q 376 266 349 328 q 408 204 404 204 q 440 290 422 204 q 458 446 458 376 q 441 500 458 467 q 424 551 424 533 q 435 588 424 572 q 471 603 447 603 q 510 582 494 603 q 525 529 525 561 q 495 340 525 471 q 410 68 465 208 q 125 -256 282 -256 q 10 -174 10 -256 z "},"":{"ha":678,"x_min":4,"x_max":633,"o":"m 4 -254 q 33 -222 4 -235 q 65 -197 61 -210 l 161 517 q 157 524 161 524 q 122 511 150 524 q 86 499 94 499 q 68 515 68 499 l 68 521 q 77 538 68 533 q 139 561 86 543 q 149 565 144 564 q 157 569 154 567 q 163 574 160 572 q 167 578 165 575 q 169 583 168 582 q 172 590 171 585 q 172 597 172 594 q 173 605 172 599 q 174 614 174 611 q 194 752 181 669 q 215 888 207 835 q 224 951 224 942 q 189 979 224 979 q 167 978 178 979 q 147 976 156 976 q 117 979 125 976 q 108 993 108 982 q 129 1013 108 1011 q 217 1025 179 1017 q 275 1040 256 1033 q 303 1047 294 1047 q 325 1022 325 1047 q 325 1017 325 1019 q 324 1011 325 1014 q 322 1001 324 1008 q 319 985 321 994 q 315 959 318 976 q 308 920 311 942 q 299 865 304 899 q 288 792 293 832 q 263 600 263 617 q 269 590 263 590 q 288 591 274 590 q 328 593 301 592 q 388 594 354 594 q 633 408 633 594 q 579 201 633 293 q 569 183 576 196 q 558 165 561 169 q 547 148 554 160 q 535 130 540 136 q 522 113 531 124 q 504 95 513 103 q 484 78 496 88 q 458 58 472 68 q 275 0 376 0 q 237 3 264 0 q 200 6 210 6 q 184 -1 188 6 q 176 -42 181 -8 q 172 -78 174 -64 q 167 -117 171 -93 q 160 -158 163 -142 q 158 -179 158 -174 q 188 -222 158 -210 q 245 -237 217 -233 q 274 -254 274 -242 q 254 -272 274 -272 q 181 -272 229 -272 q 115 -271 133 -271 q 73 -272 99 -271 q 40 -272 47 -272 l 28 -272 q 4 -254 4 -272 m 196 71 q 201 58 196 65 q 226 44 207 51 q 275 38 246 38 q 453 147 374 38 q 532 357 532 256 q 512 451 532 411 q 465 510 492 490 q 401 542 438 531 q 342 557 365 554 q 299 560 319 560 q 277 558 286 560 q 265 556 268 556 q 242 449 254 556 l 224 294 q 196 71 196 86 z "},"":{"ha":565,"x_min":10,"x_max":525,"o":"m 169 818 q 194 862 169 835 q 239 889 218 889 q 276 867 258 889 q 294 824 294 844 q 268 776 294 803 q 231 750 242 750 q 188 774 206 750 q 169 818 169 797 m 383 818 q 408 862 383 835 q 454 889 433 889 q 492 867 474 889 q 510 824 510 844 q 483 776 510 803 q 444 750 456 750 q 401 774 419 750 q 383 818 383 797 m 10 -174 q 23 -142 10 -156 q 54 -128 36 -128 q 111 -151 81 -128 q 175 -174 142 -174 q 288 -83 229 -174 q 347 57 347 8 q 259 309 347 125 q 121 493 171 493 q 72 467 86 493 q 51 415 57 442 q 28 389 44 389 q 14 419 14 389 q 24 492 14 454 q 60 565 33 531 q 126 599 88 599 q 224 537 172 599 q 313 401 276 475 q 376 266 349 328 q 408 204 404 204 q 440 290 422 204 q 458 446 458 376 q 441 500 458 467 q 424 551 424 533 q 435 588 424 572 q 471 603 447 603 q 510 582 494 603 q 525 529 525 561 q 495 340 525 471 q 410 68 465 208 q 125 -256 282 -256 q 10 -174 10 -256 z "},"":{"ha":1071,"x_min":28,"x_max":1044,"o":"m 507 1174 q 535 1211 507 1211 q 688 1210 642 1211 q 785 1208 733 1208 q 799 1205 796 1208 q 803 1189 803 1201 q 779 1149 803 1149 q 658 1149 769 1149 q 518 1150 546 1150 q 507 1174 507 1150 m 28 13 q 63 42 28 31 q 85 52 76 47 q 103 65 93 57 q 124 90 114 74 q 148 128 135 107 q 182 189 161 150 q 228 272 203 228 q 292 388 253 317 q 374 538 331 460 q 483 731 418 617 q 618 969 547 846 q 634 993 629 989 q 650 997 639 997 q 666 988 661 997 q 686 924 671 978 q 697 885 693 900 q 710 839 701 869 q 728 778 718 808 q 842 418 760 671 q 933 142 925 165 q 969 66 957 81 q 1022 39 982 51 q 1044 11 1044 32 q 1001 -3 1044 -3 q 959 -1 986 -3 q 911 1 932 1 q 847 -2 886 1 q 782 -6 808 -6 q 744 10 744 -6 q 759 31 744 22 q 790 42 774 39 q 822 57 807 44 q 836 90 836 69 q 825 158 836 114 q 799 251 814 201 q 779 318 783 301 q 750 356 772 349 q 728 358 740 358 q 667 358 721 358 q 560 357 613 357 q 419 359 454 357 q 374 361 385 361 q 325 340 336 361 q 257 213 286 272 q 217 127 228 154 q 207 96 207 100 q 231 49 207 61 q 278 34 254 38 q 301 17 301 31 q 300 5 301 10 q 295 -1 299 0 q 290 -3 292 -3 q 281 -3 288 -3 q 225 -2 251 -3 q 184 -1 199 -1 q 160 0 169 0 q 115 -1 147 0 q 56 -3 83 -3 q 28 13 28 -3 m 376 433 q 422 422 376 422 q 446 422 428 422 q 528 423 464 422 q 711 424 593 424 q 727 427 722 424 q 733 434 732 431 q 733 444 733 438 q 673 644 733 461 q 600 828 613 828 q 485 633 593 828 q 376 433 376 439 z "},"":{"ha":719,"x_min":44,"x_max":693,"o":"m 271 807 q 299 844 271 844 q 451 843 406 844 q 549 842 497 842 q 563 838 560 842 q 567 822 567 835 q 543 782 567 782 q 422 783 533 782 q 282 783 310 783 q 271 807 271 783 m 44 158 q 122 385 44 260 q 310 565 206 515 q 411 590 361 590 q 469 583 432 590 q 529 575 506 575 q 565 609 543 575 q 601 643 588 643 q 617 622 617 643 q 605 576 617 610 q 589 526 593 543 q 557 349 588 521 q 532 171 532 211 q 546 115 532 142 q 579 89 560 89 q 637 134 604 89 q 681 179 669 179 q 693 164 693 179 q 668 104 693 139 q 599 26 639 61 q 533 -10 560 -10 q 475 29 494 -10 q 452 107 456 68 q 447 146 449 146 q 431 128 446 146 q 392 87 417 111 q 338 38 368 63 q 269 -3 308 14 q 193 -21 231 -21 q 74 27 104 -21 q 44 158 44 75 m 142 167 q 173 86 142 117 q 250 56 204 56 q 362 99 314 56 q 428 181 410 143 q 460 292 443 210 q 488 438 478 374 q 499 507 499 501 q 468 544 499 532 q 407 556 438 556 q 314 525 363 556 q 235 443 265 494 q 149 242 163 324 q 142 167 142 200 z "},"":{"ha":1071,"x_min":28,"x_max":1044,"o":"m 511 1211 q 518 1238 511 1238 l 533 1238 q 543 1222 538 1238 q 558 1189 549 1207 q 594 1156 567 1171 q 667 1140 622 1140 q 733 1156 704 1140 q 775 1189 763 1171 q 797 1222 788 1207 q 810 1238 806 1238 l 819 1238 q 829 1235 829 1238 q 819 1199 829 1224 q 789 1142 808 1174 q 733 1089 769 1111 q 651 1067 696 1067 q 549 1110 586 1067 q 511 1211 511 1154 m 28 13 q 63 42 28 31 q 85 52 76 47 q 103 65 93 57 q 124 90 114 74 q 148 128 135 107 q 182 189 161 150 q 228 272 203 228 q 292 388 253 317 q 374 538 331 460 q 483 731 418 617 q 618 969 547 846 q 634 993 629 989 q 650 997 639 997 q 666 988 661 997 q 686 924 671 978 q 697 885 693 900 q 710 839 701 869 q 728 778 718 808 q 842 418 760 671 q 933 142 925 165 q 969 66 957 81 q 1022 39 982 51 q 1044 11 1044 32 q 1001 -3 1044 -3 q 959 -1 986 -3 q 911 1 932 1 q 847 -2 886 1 q 782 -6 808 -6 q 744 10 744 -6 q 759 31 744 22 q 790 42 774 39 q 822 57 807 44 q 836 90 836 69 q 825 158 836 114 q 799 251 814 201 q 779 318 783 301 q 750 356 772 349 q 728 358 740 358 q 667 358 721 358 q 560 357 613 357 q 419 359 454 357 q 374 361 385 361 q 325 340 336 361 q 257 213 286 272 q 217 127 228 154 q 207 96 207 100 q 231 49 207 61 q 278 34 254 38 q 301 17 301 31 q 300 5 301 10 q 295 -1 299 0 q 290 -3 292 -3 q 281 -3 288 -3 q 225 -2 251 -3 q 184 -1 199 -1 q 160 0 169 0 q 115 -1 147 0 q 56 -3 83 -3 q 28 13 28 -3 m 376 433 q 422 422 376 422 q 446 422 428 422 q 528 423 464 422 q 711 424 593 424 q 727 427 722 424 q 733 434 732 431 q 733 444 733 438 q 673 644 733 461 q 600 828 613 828 q 485 633 593 828 q 376 433 376 439 z "},"":{"ha":719,"x_min":44,"x_max":693,"o":"m 275 844 q 282 871 275 871 l 297 871 q 307 856 301 871 q 322 822 313 840 q 358 789 331 804 q 431 774 386 774 q 497 789 468 774 q 539 822 526 804 q 560 856 551 840 q 574 871 569 871 l 583 871 q 593 868 593 871 q 583 832 593 857 q 553 776 572 807 q 497 722 533 744 q 415 700 460 700 q 313 744 350 700 q 275 844 275 788 m 44 158 q 122 385 44 260 q 310 565 206 515 q 411 590 361 590 q 469 583 432 590 q 529 575 506 575 q 565 609 543 575 q 601 643 588 643 q 617 622 617 643 q 605 576 617 610 q 589 526 593 543 q 557 349 588 521 q 532 171 532 211 q 546 115 532 142 q 579 89 560 89 q 637 134 604 89 q 681 179 669 179 q 693 164 693 179 q 668 104 693 139 q 599 26 639 61 q 533 -10 560 -10 q 475 29 494 -10 q 452 107 456 68 q 447 146 449 146 q 431 128 446 146 q 392 87 417 111 q 338 38 368 63 q 269 -3 308 14 q 193 -21 231 -21 q 74 27 104 -21 q 44 158 44 75 m 142 167 q 173 86 142 117 q 250 56 204 56 q 362 99 314 56 q 428 181 410 143 q 460 292 443 210 q 488 438 478 374 q 499 507 499 501 q 468 544 499 532 q 407 556 438 556 q 314 525 363 556 q 235 443 265 494 q 149 242 163 324 q 142 167 142 200 z "},"":{"ha":1071,"x_min":28,"x_max":1044,"o":"m 28 13 q 63 42 28 31 q 85 52 76 47 q 103 65 93 57 q 124 90 114 74 q 148 128 135 107 q 182 189 161 150 q 228 272 203 228 q 292 388 253 317 q 374 538 331 460 q 483 731 418 617 q 618 969 547 846 q 634 993 629 989 q 650 997 639 997 q 665 988 661 997 q 683 932 669 979 q 728 778 706 851 q 842 418 760 671 q 933 142 925 165 q 969 66 957 81 q 1022 39 982 51 q 1044 11 1044 32 q 1001 -3 1044 -3 q 991 -2 1000 -3 q 969 -1 982 -1 q 942 0 956 0 q 790 -40 853 0 q 728 -129 728 -79 q 749 -193 728 -168 q 797 -218 769 -218 q 840 -200 818 -218 q 868 -182 863 -182 q 872 -193 872 -182 q 833 -241 872 -211 q 751 -271 794 -271 q 647 -179 647 -271 q 729 -46 647 -108 q 763 -24 736 -42 q 800 3 789 -7 q 824 37 811 14 q 836 89 836 60 q 826 158 836 115 q 799 251 815 201 q 779 318 783 300 q 750 356 772 349 q 728 358 740 358 q 667 358 721 358 q 560 357 613 357 q 419 359 454 357 q 374 361 385 361 q 325 340 336 361 q 257 213 286 272 q 217 127 228 154 q 207 96 207 100 q 231 49 207 61 q 278 34 254 38 q 301 17 301 31 q 300 5 301 10 q 295 -1 299 0 q 290 -3 292 -3 q 281 -3 288 -3 q 225 -2 251 -3 q 184 -1 199 -1 q 160 0 169 0 q 115 -1 147 0 q 56 -3 83 -3 q 28 13 28 -3 m 376 433 q 422 422 376 422 q 446 422 428 422 q 528 423 464 422 q 711 424 593 424 q 727 427 722 424 q 733 434 732 431 q 733 444 733 438 q 673 644 733 461 q 600 828 613 828 q 485 633 593 828 q 376 433 376 439 z "},"":{"ha":719,"x_min":44,"x_max":693,"o":"m 74 27 q 59 51 74 27 q 44 158 44 75 q 95 342 44 242 q 233 516 146 442 q 411 590 321 590 q 469 583 432 590 q 529 575 506 575 q 565 609 543 575 q 601 643 588 643 q 617 622 617 643 q 605 576 617 610 q 589 526 593 543 q 532 171 532 238 q 546 115 532 142 q 579 89 560 89 q 637 134 604 89 q 681 179 669 179 q 693 164 693 179 q 593 21 693 106 q 529 -17 578 8 q 450 -70 481 -43 q 419 -129 419 -97 q 440 -193 419 -168 q 489 -218 461 -218 q 532 -200 510 -218 q 560 -182 554 -182 q 564 -193 564 -182 q 524 -241 564 -211 q 442 -271 485 -271 q 339 -179 339 -271 q 360 -109 339 -142 q 408 -58 382 -76 q 455 -21 433 -40 q 476 13 476 -1 q 469 41 476 25 q 458 82 463 57 l 447 146 q 431 128 446 146 q 392 87 417 111 q 338 38 368 63 q 269 -3 308 14 q 193 -21 231 -21 q 74 27 104 -21 m 142 167 q 173 86 142 117 q 250 56 204 56 q 362 99 314 56 q 428 181 410 143 q 460 292 443 210 q 488 438 478 374 q 499 507 499 501 q 468 544 499 532 q 407 556 438 556 q 314 525 363 556 q 235 443 265 494 q 165 303 188 365 q 142 167 142 242 z "},"":{"ha":1058,"x_min":54,"x_max":990,"o":"m 563 1047 q 566 1058 563 1053 q 580 1077 569 1064 q 603 1110 590 1090 q 640 1169 617 1129 q 689 1258 663 1208 q 717 1283 701 1283 q 757 1274 732 1283 q 782 1251 782 1265 q 686 1133 782 1229 q 574 1036 590 1036 q 563 1047 563 1036 m 54 433 q 88 633 54 536 q 185 810 121 729 q 356 938 250 890 q 594 986 461 986 q 760 960 679 986 q 886 907 840 933 l 931 881 q 945 892 935 881 q 961 903 956 903 q 978 881 978 903 q 980 779 978 821 q 984 723 982 738 q 988 696 986 708 q 990 674 990 683 q 971 640 990 640 q 954 651 961 640 q 937 692 947 663 q 921 736 926 722 q 885 802 904 779 q 833 847 867 825 q 572 933 707 933 q 353 863 447 933 q 216 688 260 793 q 172 464 172 583 q 285 140 172 260 q 553 19 397 19 q 853 163 726 19 q 883 210 869 181 q 907 258 897 240 q 929 275 917 275 q 951 250 951 275 q 948 226 951 240 q 938 193 944 213 q 928 164 931 174 q 917 121 922 144 q 909 88 913 97 q 896 74 906 79 q 525 -32 694 -32 q 316 7 408 -32 q 167 112 224 46 q 83 260 111 178 q 54 433 54 342 z "},"":{"ha":581,"x_min":44,"x_max":536,"o":"m 304 681 q 308 692 304 686 q 322 710 311 697 q 345 743 332 724 q 381 802 358 763 q 431 892 404 842 q 458 917 443 917 q 499 908 474 917 q 524 885 524 899 q 428 766 524 863 q 315 669 332 669 q 304 681 304 669 m 44 207 q 149 481 44 356 q 397 606 254 606 q 440 598 411 606 q 503 566 469 590 q 536 506 536 542 q 522 468 536 485 q 490 451 508 451 q 452 467 471 451 q 419 501 433 483 q 380 535 406 519 q 321 551 354 551 q 283 538 310 551 q 231 503 256 525 q 199 466 217 490 q 160 388 181 442 q 139 276 139 333 q 303 64 139 64 q 394 83 353 64 q 458 120 435 101 q 489 139 481 139 q 507 121 507 139 q 478 77 507 108 q 386 15 449 46 q 254 -17 324 -17 q 44 207 44 -17 z "},"":{"ha":1058,"x_min":54,"x_max":990,"o":"m 461 1060 q 467 1069 461 1061 q 508 1122 489 1097 q 539 1165 526 1147 q 562 1197 551 1182 q 578 1222 572 1213 q 589 1240 583 1232 q 597 1253 594 1249 q 603 1260 600 1257 q 608 1263 606 1263 q 614 1264 610 1264 l 650 1264 q 669 1250 664 1264 q 715 1163 689 1208 q 754 1092 740 1117 q 768 1061 768 1067 q 757 1053 768 1053 q 688 1112 746 1053 q 625 1171 631 1171 q 547 1113 614 1171 q 471 1054 479 1054 q 461 1060 461 1054 m 54 433 q 88 633 54 536 q 185 810 121 729 q 356 938 250 890 q 594 986 461 986 q 760 960 679 986 q 886 907 840 933 l 931 881 q 945 892 935 881 q 961 903 956 903 q 978 881 978 903 q 980 779 978 821 q 984 723 982 738 q 988 696 986 708 q 990 674 990 683 q 971 640 990 640 q 954 651 961 640 q 937 692 947 663 q 921 736 926 722 q 885 802 904 779 q 833 847 867 825 q 572 933 707 933 q 353 863 447 933 q 216 688 260 793 q 172 464 172 583 q 285 140 172 260 q 553 19 397 19 q 853 163 726 19 q 883 210 869 181 q 907 258 897 240 q 929 275 917 275 q 951 250 951 275 q 948 226 951 240 q 938 193 944 213 q 928 164 931 174 q 917 121 922 144 q 909 88 913 97 q 896 74 906 79 q 525 -32 694 -32 q 316 7 408 -32 q 167 112 224 46 q 83 260 111 178 q 54 433 54 342 z "},"":{"ha":581,"x_min":44,"x_max":536,"o":"m 203 693 q 208 703 203 694 q 249 756 231 731 q 281 798 268 781 q 303 831 293 815 q 319 856 314 846 q 331 874 325 865 q 339 886 336 882 q 344 893 342 890 q 349 897 347 896 q 356 897 351 897 l 392 897 q 411 883 406 897 q 456 796 431 842 q 496 725 482 750 q 510 694 510 700 q 499 686 510 686 q 430 745 488 686 q 367 804 372 804 q 288 746 356 804 q 213 688 221 688 q 203 693 203 688 m 44 207 q 149 481 44 356 q 397 606 254 606 q 440 598 411 606 q 503 566 469 590 q 536 506 536 542 q 522 468 536 485 q 490 451 508 451 q 452 467 471 451 q 419 501 433 483 q 380 535 406 519 q 321 551 354 551 q 283 538 310 551 q 231 503 256 525 q 199 466 217 490 q 160 388 181 442 q 139 276 139 333 q 303 64 139 64 q 394 83 353 64 q 458 120 435 101 q 489 139 481 139 q 507 121 507 139 q 478 77 507 108 q 386 15 449 46 q 254 -17 324 -17 q 44 207 44 -17 z "},"":{"ha":1058,"x_min":54,"x_max":990,"o":"m 565 1190 q 592 1233 565 1201 q 636 1264 618 1264 q 672 1237 656 1264 q 689 1190 689 1210 q 664 1142 689 1169 q 626 1114 639 1114 q 588 1144 611 1114 q 565 1190 565 1175 m 54 433 q 88 633 54 536 q 185 810 121 729 q 356 938 250 890 q 594 986 461 986 q 760 960 679 986 q 886 907 840 933 l 931 881 q 945 892 935 881 q 961 903 956 903 q 978 881 978 903 q 980 779 978 821 q 984 723 982 738 q 988 696 986 708 q 990 674 990 683 q 971 640 990 640 q 954 651 961 640 q 937 692 947 663 q 921 736 926 722 q 885 802 904 779 q 833 847 867 825 q 572 933 707 933 q 353 863 447 933 q 216 688 260 793 q 172 464 172 583 q 285 140 172 260 q 553 19 397 19 q 853 163 726 19 q 883 210 869 181 q 907 258 897 240 q 929 275 917 275 q 951 250 951 275 q 948 226 951 240 q 938 193 944 213 q 928 164 931 174 q 917 121 922 144 q 909 88 913 97 q 896 74 906 79 q 525 -32 694 -32 q 316 7 408 -32 q 167 112 224 46 q 83 260 111 178 q 54 433 54 342 z "},"":{"ha":581,"x_min":44,"x_max":536,"o":"m 307 824 q 333 866 307 835 q 378 897 360 897 q 414 870 397 897 q 431 824 431 843 q 406 775 431 803 q 368 747 381 747 q 330 778 353 747 q 307 824 307 808 m 44 207 q 149 481 44 356 q 397 606 254 606 q 440 598 411 606 q 503 566 469 590 q 536 506 536 542 q 522 468 536 485 q 490 451 508 451 q 452 467 471 451 q 419 501 433 483 q 380 535 406 519 q 321 551 354 551 q 283 538 310 551 q 231 503 256 525 q 199 466 217 490 q 160 388 181 442 q 139 276 139 333 q 303 64 139 64 q 394 83 353 64 q 458 120 435 101 q 489 139 481 139 q 507 121 507 139 q 478 77 507 108 q 386 15 449 46 q 254 -17 324 -17 q 44 207 44 -17 z "},"":{"ha":1058,"x_min":54,"x_max":990,"o":"m 481 1256 q 490 1264 481 1264 l 493 1264 q 559 1205 501 1264 q 624 1146 617 1146 q 699 1203 633 1146 q 726 1228 711 1214 q 747 1248 740 1242 q 760 1258 753 1254 q 775 1263 768 1263 q 785 1256 785 1263 q 782 1246 785 1250 q 741 1193 760 1218 q 710 1151 722 1168 q 687 1118 697 1133 q 671 1094 676 1103 q 660 1076 665 1085 q 651 1064 654 1068 q 646 1057 649 1060 q 641 1053 643 1054 q 635 1053 639 1053 l 599 1053 q 579 1067 585 1053 q 535 1151 561 1106 q 495 1223 510 1197 q 481 1256 481 1249 m 54 433 q 88 633 54 536 q 185 810 121 729 q 356 938 250 890 q 594 986 461 986 q 760 960 679 986 q 886 907 840 933 l 931 881 q 945 892 935 881 q 961 903 956 903 q 978 881 978 903 q 980 779 978 821 q 984 723 982 738 q 988 696 986 708 q 990 674 990 683 q 971 640 990 640 q 954 651 961 640 q 937 692 947 663 q 921 736 926 722 q 885 802 904 779 q 833 847 867 825 q 572 933 707 933 q 353 863 447 933 q 216 688 260 793 q 172 464 172 583 q 285 140 172 260 q 553 19 397 19 q 853 163 726 19 q 883 210 869 181 q 907 258 897 240 q 929 275 917 275 q 951 250 951 275 q 948 226 951 240 q 938 193 944 213 q 928 164 931 174 q 917 121 922 144 q 909 88 913 97 q 896 74 906 79 q 525 -32 694 -32 q 316 7 408 -32 q 167 112 224 46 q 83 260 111 178 q 54 433 54 342 z "},"":{"ha":581,"x_min":44,"x_max":536,"o":"m 222 889 q 232 897 222 897 l 235 897 q 301 838 243 897 q 365 779 358 779 q 440 836 375 779 q 467 861 453 847 q 488 881 482 875 q 502 892 494 888 q 517 896 510 896 q 526 889 526 896 q 524 879 526 883 q 483 826 501 851 q 451 784 464 801 q 428 751 439 767 q 413 727 418 736 q 401 710 407 718 q 393 697 396 701 q 388 690 390 693 q 383 687 385 688 q 376 686 381 686 l 340 686 q 321 700 326 686 q 277 785 303 739 q 237 856 251 831 q 222 889 222 882 m 44 207 q 149 481 44 356 q 397 606 254 606 q 440 598 411 606 q 503 566 469 590 q 536 506 536 542 q 522 468 536 485 q 490 451 508 451 q 452 467 471 451 q 419 501 433 483 q 380 535 406 519 q 321 551 354 551 q 283 538 310 551 q 231 503 256 525 q 199 466 217 490 q 160 388 181 442 q 139 276 139 333 q 303 64 139 64 q 394 83 353 64 q 458 120 435 101 q 489 139 481 139 q 507 121 507 139 q 478 77 507 108 q 386 15 449 46 q 254 -17 324 -17 q 44 207 44 -17 z "},"":{"ha":1065,"x_min":28,"x_max":1018,"o":"m 444 1256 q 454 1264 444 1264 l 457 1264 q 523 1205 465 1264 q 588 1146 581 1146 q 663 1203 597 1146 q 690 1228 675 1214 q 710 1248 704 1242 q 724 1258 717 1254 q 739 1263 732 1263 q 749 1256 749 1263 q 746 1246 749 1250 q 705 1193 724 1218 q 674 1151 686 1168 q 651 1118 661 1133 q 635 1094 640 1103 q 624 1076 629 1085 q 615 1064 618 1068 q 610 1057 613 1060 q 605 1053 607 1054 q 599 1053 603 1053 l 563 1053 q 543 1067 549 1053 q 499 1151 525 1106 q 459 1223 474 1197 q 444 1256 444 1249 m 28 18 q 39 34 28 29 q 65 41 50 39 q 96 58 79 43 q 122 101 113 72 q 135 161 129 128 l 229 856 q 232 881 232 878 q 213 919 232 901 q 169 938 193 936 q 106 968 106 942 q 149 993 106 993 q 213 985 172 993 q 289 978 254 978 q 385 985 324 978 q 506 992 447 992 q 894 881 769 992 q 1018 600 1018 771 q 910 258 1018 425 q 822 155 879 210 q 728 79 764 100 q 414 0 597 0 q 321 2 378 0 q 199 4 264 4 q 108 -1 150 4 q 58 -7 65 -7 q 37 1 46 -7 q 28 18 28 8 m 239 99 q 253 60 239 74 q 306 47 267 47 l 428 47 q 572 76 489 47 q 711 157 654 106 q 806 276 767 208 q 862 408 846 343 q 884 518 878 474 q 890 599 890 563 q 881 685 890 643 q 843 774 871 728 q 772 855 815 821 q 656 911 729 889 q 490 933 583 933 q 379 922 404 933 q 339 857 354 911 q 308 644 333 833 q 261 278 283 454 q 239 99 239 101 z "},"":{"ha":688,"x_min":24,"x_max":822,"o":"m 688 996 q 754 1040 735 1040 q 774 1033 760 1040 q 806 1006 789 1026 q 822 958 822 986 q 779 865 822 900 q 711 829 736 829 q 703 835 703 829 q 717 846 703 838 q 745 871 731 854 q 760 913 760 888 q 742 956 760 940 q 706 979 724 971 q 688 996 688 988 m 24 174 q 133 465 24 333 q 369 596 243 596 q 420 587 388 596 q 472 578 453 578 q 499 760 475 578 q 522 953 522 943 q 510 978 522 968 q 482 988 499 988 q 463 987 475 988 q 442 986 451 986 l 433 986 q 411 1001 411 986 q 423 1017 411 1013 q 460 1024 435 1021 q 499 1029 486 1026 q 535 1039 518 1035 q 559 1045 553 1043 q 574 1049 565 1047 q 588 1051 582 1051 q 606 1051 594 1051 q 622 1044 615 1051 q 628 1028 628 1038 q 626 1003 628 1018 q 617 945 624 988 q 602 844 611 903 q 575 659 593 785 q 536 379 557 533 q 507 144 507 178 q 543 85 507 85 q 594 106 569 85 q 634 149 618 128 q 658 171 650 171 q 674 158 674 171 q 615 58 674 126 q 496 -11 556 -11 q 444 13 463 -11 q 424 67 426 38 q 419 120 421 96 q 411 144 417 144 q 390 120 408 144 q 348 67 372 96 q 281 13 324 38 q 190 -11 238 -11 q 65 40 106 -11 q 24 174 24 90 m 121 213 q 150 108 121 147 q 239 69 179 69 q 379 142 322 69 q 435 314 415 186 q 456 511 456 442 q 426 552 456 538 q 363 567 396 567 q 244 508 301 567 q 154 368 188 450 q 121 213 121 286 z "},"":{"ha":1065,"x_min":28,"x_max":1018,"o":"m 28 18 q 39 34 28 29 q 65 41 50 39 q 96 58 79 43 q 122 101 113 72 q 140 205 128 118 q 164 369 153 292 l 174 449 q 169 464 174 461 q 151 467 164 467 l 82 467 q 64 497 64 467 q 69 519 64 510 q 79 528 74 528 q 126 526 90 528 q 172 525 163 525 q 185 530 183 525 q 190 564 188 535 l 229 856 q 232 881 232 878 q 213 919 232 901 q 169 938 193 936 q 106 968 106 942 q 149 993 106 993 q 213 985 172 993 q 289 978 254 978 q 385 985 324 978 q 506 992 447 992 q 894 881 769 992 q 1018 600 1018 771 q 910 258 1018 425 q 822 155 879 210 q 728 79 764 100 q 414 0 597 0 q 321 2 378 0 q 199 4 264 4 q 108 -1 150 4 q 58 -7 65 -7 q 37 1 46 -7 q 28 18 28 8 m 239 99 q 253 60 239 74 q 306 47 267 47 l 428 47 q 572 76 489 47 q 711 157 654 106 q 806 276 767 208 q 862 408 846 343 q 884 518 878 474 q 890 599 890 563 q 881 685 890 643 q 843 774 871 728 q 772 855 815 821 q 656 911 729 889 q 490 933 583 933 q 379 922 404 933 q 339 857 354 911 q 323 763 335 843 q 303 608 311 682 l 293 535 q 311 525 293 525 q 435 527 336 525 q 543 529 533 529 q 560 497 560 529 q 549 468 560 468 q 494 467 540 468 q 408 467 447 467 l 306 467 q 288 463 290 467 q 282 442 285 460 l 272 358 q 250 188 261 274 q 239 99 239 103 z "},"":{"ha":688,"x_min":24,"x_max":706,"o":"m 24 174 q 133 465 24 333 q 369 596 243 596 q 420 587 388 596 q 472 578 453 578 q 485 657 474 578 q 497 744 497 736 q 485 757 497 757 l 296 757 q 278 781 278 757 q 293 817 278 817 q 348 816 299 817 q 458 815 397 815 l 485 815 q 504 817 501 815 q 508 833 507 819 q 510 840 510 838 l 515 883 q 522 953 522 949 q 510 978 522 968 q 482 988 499 988 q 463 987 475 988 q 442 986 451 986 l 433 986 q 411 1001 411 986 q 423 1017 411 1013 q 460 1024 435 1021 q 499 1029 486 1026 q 535 1039 518 1035 q 559 1045 553 1043 q 574 1049 565 1047 q 588 1051 582 1051 q 606 1051 594 1051 q 622 1044 615 1051 q 628 1028 628 1038 q 610 890 628 1006 l 604 849 q 601 828 601 829 q 619 817 601 817 q 656 817 631 817 q 688 818 682 818 q 703 814 700 818 q 706 800 706 810 q 685 757 706 757 l 600 757 q 588 749 590 757 q 588 740 588 747 l 586 733 l 536 379 q 507 144 507 178 q 543 85 507 85 q 594 106 569 85 q 634 149 618 128 q 658 171 650 171 q 674 158 674 171 q 615 58 674 126 q 496 -11 556 -11 q 444 13 463 -11 q 424 67 426 38 q 419 120 421 96 q 411 144 417 144 q 390 120 408 144 q 348 67 372 96 q 281 13 324 38 q 190 -11 238 -11 q 65 40 106 -11 q 24 174 24 90 m 121 213 q 150 108 121 147 q 239 69 179 69 q 379 142 322 69 q 435 314 415 186 q 456 511 456 442 q 426 552 456 538 q 363 567 396 567 q 244 508 301 567 q 154 368 188 450 q 121 213 121 286 z "},"":{"ha":876,"x_min":28,"x_max":857,"o":"m 401 1174 q 429 1211 401 1211 q 582 1210 536 1211 q 679 1208 628 1208 q 694 1205 690 1208 q 697 1189 697 1201 q 674 1149 697 1149 q 552 1149 664 1149 q 413 1150 440 1150 q 401 1174 401 1150 m 28 19 q 58 39 28 38 q 126 90 108 42 q 154 226 135 115 q 165 299 154 231 q 182 411 176 367 l 232 832 q 233 861 233 844 q 217 919 233 900 q 181 939 200 938 q 144 945 161 940 q 128 963 128 950 q 160 983 128 983 q 217 983 172 983 q 341 981 263 982 q 511 981 419 981 q 676 983 540 981 q 832 986 813 986 q 857 960 857 986 q 854 928 857 953 q 851 886 851 904 q 853 851 851 876 q 856 811 856 826 q 838 772 856 772 q 821 782 825 772 q 817 806 817 792 q 811 840 817 819 q 790 878 806 861 q 771 893 785 885 q 722 912 757 901 q 644 922 688 922 q 532 924 592 922 q 431 926 472 926 q 356 913 369 926 q 332 832 343 899 q 297 550 297 589 q 306 533 297 536 q 357 531 315 531 q 580 536 538 531 q 640 564 622 542 q 663 600 654 581 q 675 628 671 619 q 688 636 679 636 q 704 621 704 636 q 692 556 704 608 q 676 476 681 504 q 674 422 674 461 q 669 361 674 383 q 651 339 664 339 q 636 361 636 339 q 613 444 636 428 q 464 474 572 474 q 397 474 422 474 q 365 474 371 474 q 354 475 358 475 q 346 475 350 475 q 292 451 293 475 q 274 327 288 410 q 251 181 261 244 q 242 107 242 117 q 275 65 242 74 q 417 56 308 56 q 617 77 535 56 q 730 124 700 99 q 780 172 760 150 q 808 193 800 193 q 822 174 822 193 q 764 63 822 136 q 661 -11 706 -11 q 412 -3 561 -11 q 232 4 263 4 q 151 2 193 4 q 76 0 110 0 q 28 19 28 0 z "},"":{"ha":558,"x_min":44,"x_max":536,"o":"m 240 807 q 268 844 240 844 q 421 843 375 844 q 518 842 467 842 q 533 838 529 842 q 536 822 536 835 q 513 782 536 782 q 391 783 503 782 q 251 783 279 783 q 240 807 240 783 m 44 204 q 86 378 44 292 q 201 532 128 464 q 394 606 279 606 q 480 576 444 606 q 515 503 515 547 q 499 437 515 468 q 457 385 482 406 q 413 352 432 364 q 381 335 394 340 q 163 297 300 299 q 139 240 139 297 q 189 113 139 160 q 339 67 239 67 q 408 82 374 67 q 463 112 442 97 q 489 126 485 126 q 506 113 506 126 q 426 33 506 83 q 264 -17 346 -17 q 92 42 140 -17 q 44 204 44 100 m 158 349 q 171 321 158 321 q 344 376 269 321 q 419 499 419 432 q 395 549 419 533 q 346 564 371 564 q 232 499 294 564 q 181 418 204 469 q 158 349 158 367 z "},"":{"ha":876,"x_min":28,"x_max":857,"o":"m 406 1211 q 413 1238 406 1238 l 428 1238 q 438 1222 432 1238 q 452 1189 443 1207 q 489 1156 461 1171 q 561 1140 517 1140 q 628 1156 599 1140 q 669 1189 657 1171 q 691 1222 682 1207 q 704 1238 700 1238 l 714 1238 q 724 1235 724 1238 q 713 1199 724 1224 q 683 1142 703 1174 q 627 1089 664 1111 q 546 1067 590 1067 q 443 1110 481 1067 q 406 1211 406 1154 m 28 19 q 58 39 28 38 q 126 90 108 42 q 154 226 135 115 q 165 299 154 231 q 182 411 176 367 l 232 832 q 233 861 233 844 q 217 919 233 900 q 181 939 200 938 q 144 945 161 940 q 128 963 128 950 q 160 983 128 983 q 217 983 172 983 q 341 981 263 982 q 511 981 419 981 q 676 983 540 981 q 832 986 813 986 q 857 960 857 986 q 854 928 857 953 q 851 886 851 904 q 853 851 851 876 q 856 811 856 826 q 838 772 856 772 q 821 782 825 772 q 817 806 817 792 q 811 840 817 819 q 790 878 806 861 q 771 893 785 885 q 722 912 757 901 q 644 922 688 922 q 532 924 592 922 q 431 926 472 926 q 356 913 369 926 q 332 832 343 899 q 297 550 297 589 q 306 533 297 536 q 357 531 315 531 q 580 536 538 531 q 640 564 622 542 q 663 600 654 581 q 675 628 671 619 q 688 636 679 636 q 704 621 704 636 q 692 556 704 608 q 676 476 681 504 q 674 422 674 461 q 669 361 674 383 q 651 339 664 339 q 636 361 636 339 q 613 444 636 428 q 464 474 572 474 q 397 474 422 474 q 365 474 371 474 q 354 475 358 475 q 346 475 350 475 q 292 451 293 475 q 274 327 288 410 q 251 181 261 244 q 242 107 242 117 q 275 65 242 74 q 417 56 308 56 q 617 77 535 56 q 730 124 700 99 q 780 172 760 150 q 808 193 800 193 q 822 174 822 193 q 764 63 822 136 q 661 -11 706 -11 q 412 -3 561 -11 q 232 4 263 4 q 151 2 193 4 q 76 0 110 0 q 28 19 28 0 z "},"":{"ha":558,"x_min":44,"x_max":563,"o":"m 244 844 q 251 871 244 871 l 267 871 q 276 856 271 871 q 291 822 282 840 q 328 789 300 804 q 400 774 356 774 q 467 789 438 774 q 508 822 496 804 q 530 856 521 840 q 543 871 539 871 l 553 871 q 563 868 563 871 q 552 832 563 857 q 522 776 542 807 q 466 722 503 744 q 385 700 429 700 q 282 744 319 700 q 244 844 244 788 m 44 204 q 86 378 44 292 q 201 532 128 464 q 394 606 279 606 q 480 576 444 606 q 515 503 515 547 q 499 437 515 468 q 457 385 482 406 q 413 352 432 364 q 381 335 394 340 q 163 297 300 299 q 139 240 139 297 q 189 113 139 160 q 339 67 239 67 q 408 82 374 67 q 463 112 442 97 q 489 126 485 126 q 506 113 506 126 q 426 33 506 83 q 264 -17 346 -17 q 92 42 140 -17 q 44 204 44 100 m 158 349 q 171 321 158 321 q 344 376 269 321 q 419 499 419 432 q 395 549 419 533 q 346 564 371 564 q 232 499 294 564 q 181 418 204 469 q 158 349 158 367 z "},"":{"ha":876,"x_min":28,"x_max":857,"o":"m 490 1190 q 517 1233 490 1201 q 561 1264 543 1264 q 597 1237 581 1264 q 614 1190 614 1210 q 589 1142 614 1169 q 551 1114 564 1114 q 513 1144 536 1114 q 490 1190 490 1175 m 28 19 q 58 39 28 38 q 126 90 108 42 q 154 226 135 115 q 165 299 154 231 q 182 411 176 367 l 232 832 q 233 861 233 844 q 217 919 233 900 q 181 939 200 938 q 144 945 161 940 q 128 963 128 950 q 160 983 128 983 q 217 983 172 983 q 341 981 263 982 q 511 981 419 981 q 676 983 540 981 q 832 986 813 986 q 857 960 857 986 q 854 928 857 953 q 851 886 851 904 q 853 851 851 876 q 856 811 856 826 q 838 772 856 772 q 821 782 825 772 q 817 806 817 792 q 811 840 817 819 q 790 878 806 861 q 771 893 785 885 q 722 912 757 901 q 644 922 688 922 q 532 924 592 922 q 431 926 472 926 q 356 913 369 926 q 332 832 343 899 q 297 550 297 589 q 306 533 297 536 q 357 531 315 531 q 580 536 538 531 q 640 564 622 542 q 663 600 654 581 q 675 628 671 619 q 688 636 679 636 q 704 621 704 636 q 692 556 704 608 q 676 476 681 504 q 674 422 674 461 q 669 361 674 383 q 651 339 664 339 q 636 361 636 339 q 613 444 636 428 q 464 474 572 474 q 397 474 422 474 q 365 474 371 474 q 354 475 358 475 q 346 475 350 475 q 292 451 293 475 q 274 327 288 410 q 251 181 261 244 q 242 107 242 117 q 275 65 242 74 q 417 56 308 56 q 617 77 535 56 q 730 124 700 99 q 780 172 760 150 q 808 193 800 193 q 822 174 822 193 q 764 63 822 136 q 661 -11 706 -11 q 412 -3 561 -11 q 232 4 263 4 q 151 2 193 4 q 76 0 110 0 q 28 19 28 0 z "}}}
